IBM Plex Devanagari-Regular.ufo
<glyph name="period" format="1">
  <advance width="272"/>
  <unicode hex="002E"/>
  <outline>
    <contour>
      <point x="136" y="-12" type="curve" smooth="yes" name="hr00"/>
      <point x="178" y="-12"/>
      <point x="197" y="12"/>
      <point x="197" y="46" type="curve" smooth="yes"/>
      <point x="197" y="59" type="line" smooth="yes"/>
      <point x="197" y="93"/>
      <point x="178" y="117"/>
      <point x="136" y="117" type="curve" smooth="yes"/>
      <point x="94" y="117"/>
      <point x="75" y="93"/>
      <point x="75" y="59" type="curve" smooth="yes"/>
      <point x="75" y="46" type="line" smooth="yes"/>
      <point x="75" y="12"/>
      <point x="94" y="-12"/>
    </contour>
  </outline>
</glyph>
<glyph name="one" format="1">
  <advance width="600"/>
  <unicode hex="0031"/>
  <outline>
    <contour>
      <point x="547" y="0" type="line" name="hr00"/>
      <point x="547" y="74" type="line"/>
      <point x="367" y="74" type="line"/>
      <point x="367" y="698" type="line"/>
      <point x="236" y="698" type="line"/>
      <point x="51" y="525" type="line"/>
      <point x="100" y="472" type="line"/>
      <point x="276" y="636" type="line"/>
      <point x="283" y="636" type="line"/>
      <point x="283" y="74" type="line"/>
      <point x="88" y="74" type="line"/>
      <point x="88" y="0" type="line"/>
    </contour>
  </outline>
</glyph>
<glyph name="five" format="1">
  <advance width="600"/>
  <unicode hex="0035"/>
  <outline>
    <contour>
      <point x="498" y="698" type="line" name="hr00"/>
      <point x="124" y="698" type="line"/>
      <point x="99" y="314" type="line"/>
      <point x="170" y="304" type="line"/>
      <point x="199" y="336"/>
      <point x="231" y="363"/>
      <point x="295" y="363" type="curve" smooth="yes"/>
      <point x="390" y="363"/>
      <point x="441" y="310"/>
      <point x="441" y="218" type="curve" smooth="yes"/>
      <point x="441" y="208" type="line" smooth="yes"/>
      <point x="441" y="116"/>
      <point x="390" y="63"/>
      <point x="295" y="63" type="curve" smooth="yes"/>
      <point x="211" y="63"/>
      <point x="176" y="100"/>
      <point x="140" y="155" type="curve"/>
      <point x="77" y="107" type="line"/>
      <point x="119" y="47"/>
      <point x="179" y="-12"/>
      <point x="295" y="-12" type="curve" smooth="yes"/>
      <point x="442" y="-12"/>
      <point x="530" y="83"/>
      <point x="530" y="219" type="curve" smooth="yes"/>
      <point x="530" y="354"/>
      <point x="442" y="435"/>
      <point x="322" y="435" type="curve" smooth="yes"/>
      <point x="249" y="435"/>
      <point x="212" y="405"/>
      <point x="179" y="358" type="curve"/>
      <point x="172" y="358" type="line"/>
      <point x="192" y="624" type="line"/>
      <point x="498" y="624" type="line"/>
    </contour>
  </outline>
</glyph>
<glyph name="less" format="1">
  <advance width="600"/>
  <unicode hex="003C"/>
  <outline>
    <contour>
      <point x="510" y="-12" type="line" name="hr00"/>
      <point x="510" y="72" type="line"/>
      <point x="165" y="273" type="line"/>
      <point x="165" y="281" type="line"/>
      <point x="510" y="482" type="line"/>
      <point x="510" y="566" type="line"/>
      <point x="90" y="317" type="line"/>
      <point x="90" y="237" type="line"/>
    </contour>
  </outline>
</glyph>
<glyph name="twosuperior" format="1">
  <advance width="346"/>
  <unicode hex="00B2"/>
  <outline>
    <contour>
      <point x="311" y="379" type="line" name="hr00"/>
      <point x="106" y="379" type="line"/>
      <point x="203" y="454" type="line" smooth="yes"/>
      <point x="259" y="497"/>
      <point x="298" y="537"/>
      <point x="298" y="595" type="curve" smooth="yes"/>
      <point x="298" y="659"/>
      <point x="252" y="704"/>
      <point x="170" y="704" type="curve" smooth="yes"/>
      <point x="90" y="704"/>
      <point x="50" y="661"/>
      <point x="34" y="614" type="curve"/>
      <point x="88" y="594" type="line"/>
      <point x="99" y="626"/>
      <point x="120" y="652"/>
      <point x="166" y="652" type="curve" smooth="yes"/>
      <point x="208" y="652"/>
      <point x="231" y="629"/>
      <point x="231" y="595" type="curve" smooth="yes"/>
      <point x="231" y="589" type="line" smooth="yes"/>
      <point x="231" y="553"/>
      <point x="208" y="523"/>
      <point x="169" y="491" type="curve" smooth="yes"/>
      <point x="39" y="386" type="line"/>
      <point x="39" y="329" type="line"/>
      <point x="311" y="329" type="line"/>
    </contour>
  </outline>
</glyph>
<glyph name="questiondown" format="1">
  <advance width="467"/>
  <unicode hex="00BF"/>
  <outline>
    <contour>
      <point x="238" y="-194" type="curve" smooth="yes"/>
      <point x="363" y="-194"/>
      <point x="429" y="-118"/>
      <point x="454" y="-32" type="curve"/>
      <point x="380" y="-4" type="line"/>
      <point x="364" y="-71"/>
      <point x="318" y="-121"/>
      <point x="241" y="-121" type="curve" smooth="yes"/>
      <point x="170" y="-121"/>
      <point x="123" y="-77"/>
      <point x="123" y="-9" type="curve" smooth="yes"/>
      <point x="123" y="5" type="line" smooth="yes"/>
      <point x="123" y="89"/>
      <point x="189" y="139"/>
      <point x="298" y="144" type="curve"/>
      <point x="298" y="308" type="line"/>
      <point x="221" y="308" type="line"/>
      <point x="221" y="200" type="line"/>
      <point x="133" y="183"/>
      <point x="37" y="123"/>
      <point x="37" y="-5" type="curve" smooth="yes"/>
      <point x="37" y="-120"/>
      <point x="115" y="-194"/>
    </contour>
    <contour>
      <point x="262" y="399" type="curve" smooth="yes"/>
      <point x="304" y="399"/>
      <point x="323" y="422"/>
      <point x="323" y="457" type="curve" smooth="yes" name="hr01"/>
      <point x="323" y="470" type="line" smooth="yes"/>
      <point x="323" y="505"/>
      <point x="304" y="528"/>
      <point x="262" y="528" type="curve" smooth="yes"/>
      <point x="220" y="528"/>
      <point x="201" y="505"/>
      <point x="201" y="470" type="curve" smooth="yes"/>
      <point x="201" y="457" type="line" smooth="yes"/>
      <point x="201" y="422"/>
      <point x="220" y="399"/>
    </contour>
  </outline>
</glyph>
<glyph name="thorn" format="1">
  <advance width="580"/>
  <unicode hex="00FE"/>
  <outline>
    <contour>
      <point x="85" y="-200" type="line" name="hr00"/>
      <point x="165" y="-200" type="line"/>
      <point x="165" y="84" type="line"/>
      <point x="169" y="84" type="line"/>
      <point x="200" y="20"/>
      <point x="249" y="-12"/>
      <point x="320" y="-12" type="curve" smooth="yes"/>
      <point x="449" y="-12"/>
      <point x="530" y="93"/>
      <point x="530" y="258" type="curve" smooth="yes"/>
      <point x="530" y="423"/>
      <point x="449" y="528"/>
      <point x="320" y="528" type="curve" smooth="yes"/>
      <point x="249" y="528"/>
      <point x="196" y="497"/>
      <point x="169" y="432" type="curve"/>
      <point x="165" y="432" type="line"/>
      <point x="165" y="740" type="line"/>
      <point x="85" y="740" type="line"/>
    </contour>
    <contour>
      <point x="298" y="60" type="curve" smooth="yes"/>
      <point x="225" y="60"/>
      <point x="165" y="98"/>
      <point x="165" y="165" type="curve" smooth="yes"/>
      <point x="165" y="357" type="line" smooth="yes"/>
      <point x="165" y="414"/>
      <point x="225" y="456"/>
      <point x="298" y="456" type="curve" smooth="yes"/>
      <point x="388" y="456"/>
      <point x="444" y="394"/>
      <point x="444" y="302" type="curve" smooth="yes"/>
      <point x="444" y="214" type="line" smooth="yes"/>
      <point x="444" y="122"/>
      <point x="388" y="60"/>
    </contour>
  </outline>
</glyph>
<glyph name="oe" format="1">
  <advance width="931"/>
  <unicode hex="0153"/>
  <outline>
    <contour>
      <point x="280" y="59" type="curve" smooth="yes" name="hr00"/>
      <point x="194" y="59"/>
      <point x="133" y="112"/>
      <point x="133" y="221" type="curve" smooth="yes"/>
      <point x="133" y="295" type="line" smooth="yes"/>
      <point x="133" y="404"/>
      <point x="194" y="457"/>
      <point x="280" y="457" type="curve" smooth="yes"/>
      <point x="366" y="457"/>
      <point x="427" y="404"/>
      <point x="427" y="295" type="curve" smooth="yes"/>
      <point x="427" y="221" type="line" smooth="yes"/>
      <point x="427" y="112"/>
      <point x="366" y="59"/>
    </contour>
    <contour>
      <point x="513" y="298" type="line"/>
      <point x="513" y="305" type="line" smooth="yes"/>
      <point x="513" y="395"/>
      <point x="574" y="461"/>
      <point x="661" y="461" type="curve" smooth="yes"/>
      <point x="743" y="461"/>
      <point x="798" y="400"/>
      <point x="798" y="309" type="curve" smooth="yes"/>
      <point x="798" y="298" type="line"/>
    </contour>
    <contour>
      <point x="667" y="-12" type="curve" smooth="yes"/>
      <point x="762" y="-12"/>
      <point x="832" y="36"/>
      <point x="865" y="106" type="curve"/>
      <point x="809" y="147" type="line"/>
      <point x="781" y="90"/>
      <point x="732" y="58"/>
      <point x="666" y="58" type="curve" smooth="yes"/>
      <point x="570" y="58"/>
      <point x="513" y="125"/>
      <point x="513" y="214" type="curve" smooth="yes"/>
      <point x="513" y="238" type="line"/>
      <point x="884" y="238" type="line"/>
      <point x="884" y="276" type="line" smooth="yes"/>
      <point x="884" y="423"/>
      <point x="797" y="528"/>
      <point x="661" y="528" type="curve" smooth="yes"/>
      <point x="570" y="528"/>
      <point x="503" y="483"/>
      <point x="474" y="413" type="curve"/>
      <point x="468" y="413" type="line"/>
      <point x="436" y="487"/>
      <point x="368" y="528"/>
      <point x="280" y="528" type="curve" smooth="yes"/>
      <point x="142" y="528"/>
      <point x="47" y="422"/>
      <point x="47" y="258" type="curve" smooth="yes"/>
      <point x="47" y="94"/>
      <point x="142" y="-12"/>
      <point x="280" y="-12" type="curve" smooth="yes"/>
      <point x="366" y="-12"/>
      <point x="438" y="37"/>
      <point x="468" y="103" type="curve"/>
      <point x="473" y="103" type="line"/>
      <point x="503" y="41"/>
      <point x="567" y="-12"/>
    </contour>
  </outline>
</glyph>
<glyph name="dvAnusvara" format="1">
  <advance width="0"/>
  <unicode hex="0902"/>
  <outline>
    <contour>
      <point x="-156" y="831" type="curve" name="hr00"/>
      <point x="-119" y="831"/>
      <point x="-104" y="849"/>
      <point x="-104" y="878" type="curve" smooth="yes"/>
      <point x="-104" y="892" type="line" smooth="yes"/>
      <point x="-104" y="921"/>
      <point x="-119" y="939"/>
      <point x="-156" y="939" type="curve" smooth="yes"/>
      <point x="-193" y="939"/>
      <point x="-208" y="921"/>
      <point x="-208" y="892" type="curve" smooth="yes"/>
      <point x="-208" y="878" type="line" smooth="yes"/>
      <point x="-208" y="849"/>
      <point x="-193" y="831"/>
    </contour>
    <contour>
      <point x="-119.0" y="688.0" type="move" name="_top_deva"/>
    </contour>
  </outline>
</glyph>
<glyph name="dvAshort" format="1">
  <advance width="833"/>
  <unicode hex="0904"/>
  <outline>
    <contour>
      <point x="264" y="42" type="curve" smooth="yes"/>
      <point x="397" y="42"/>
      <point x="468" y="117"/>
      <point x="468" y="230" type="curve" smooth="yes"/>
      <point x="468" y="236"/>
      <point x="468" y="242"/>
      <point x="467" y="247" type="curve"/>
      <point x="641" y="247" type="line"/>
      <point x="641" y="0" type="line"/>
      <point x="715" y="0" type="line"/>
      <point x="715" y="637" type="line"/>
      <point x="853" y="637" type="line"/>
      <point x="853" y="698" type="line"/>
      <point x="711" y="698" type="line"/>
      <point x="711" y="794" type="line" smooth="yes"/>
      <point x="711" y="847"/>
      <point x="689" y="874"/>
      <point x="632" y="874" type="curve" smooth="yes"/>
      <point x="508" y="874" type="line" smooth="yes"/>
      <point x="448" y="874"/>
      <point x="422" y="887"/>
      <point x="382" y="934" type="curve"/>
      <point x="339" y="896" type="line"/>
      <point x="385" y="834"/>
      <point x="431" y="809"/>
      <point x="522" y="809" type="curve" smooth="yes"/>
      <point x="641" y="809" type="line"/>
      <point x="641" y="698" type="line"/>
      <point x="527" y="698" type="line"/>
      <point x="527" y="637" type="line"/>
      <point x="641" y="637" type="line"/>
      <point x="641" y="309" type="line"/>
      <point x="449" y="309" type="line" name="hr01"/>
      <point x="425" y="353"/>
      <point x="381" y="380"/>
      <point x="331" y="391" type="curve"/>
      <point x="331" y="394" type="line"/>
      <point x="407" y="412"/>
      <point x="449" y="467"/>
      <point x="449" y="542" type="curve" smooth="yes"/>
      <point x="449" y="623"/>
      <point x="389" y="696"/>
      <point x="267" y="696" type="curve" smooth="yes"/>
      <point x="185" y="696"/>
      <point x="132" y="664"/>
      <point x="95" y="618" type="curve"/>
      <point x="144" y="574" type="line"/>
      <point x="174" y="612"/>
      <point x="212" y="634"/>
      <point x="268" y="634" type="curve" smooth="yes"/>
      <point x="338" y="634"/>
      <point x="377" y="597"/>
      <point x="377" y="541" type="curve" smooth="yes"/>
      <point x="377" y="529" type="line" smooth="yes"/>
      <point x="377" y="467"/>
      <point x="329" y="423"/>
      <point x="230" y="423" type="curve" smooth="yes"/>
      <point x="161" y="423" type="line"/>
      <point x="161" y="357" type="line"/>
      <point x="234" y="357" type="line" smooth="yes"/>
      <point x="344" y="357"/>
      <point x="395" y="307"/>
      <point x="395" y="244" type="curve" smooth="yes" name="hr02"/>
      <point x="395" y="219" type="line" smooth="yes"/>
      <point x="395" y="155"/>
      <point x="356" y="105"/>
      <point x="262" y="105" type="curve" smooth="yes"/>
      <point x="188" y="105"/>
      <point x="144" y="140"/>
      <point x="105" y="203" type="curve"/>
      <point x="51" y="164" type="line"/>
      <point x="98" y="88"/>
      <point x="165" y="42"/>
    </contour>
    <contour>
      <point x="676.0" y="688.0" type="move" name="center_deva"/>
    </contour>
    <contour>
      <point x="841.0" y="688.0" type="move" name="top_deva"/>
    </contour>
  </outline>
</glyph>
<glyph name="dvvL" format="1">
  <advance width="820"/>
  <unicode hex="090C"/>
  <outline>
    <contour>
      <point x="668" y="-65" type="curve" smooth="yes"/>
      <point x="718" y="-65" type="line"/>
      <point x="718" y="-10" type="line"/>
      <point x="670" y="-10" type="line" smooth="yes"/>
      <point x="607" y="-10"/>
      <point x="581" y="15"/>
      <point x="581" y="54" type="curve" smooth="yes"/>
      <point x="581" y="84"/>
      <point x="593" y="107"/>
      <point x="632" y="140" type="curve" smooth="yes"/>
      <point x="691" y="190"/>
      <point x="735" y="240"/>
      <point x="735" y="328" type="curve" smooth="yes"/>
      <point x="735" y="418"/>
      <point x="683" y="480"/>
      <point x="610" y="497" type="curve" name="hr01"/>
      <point x="610" y="637" type="line"/>
      <point x="840" y="637" type="line"/>
      <point x="840" y="698" type="line"/>
      <point x="-20" y="698" type="line"/>
      <point x="-20" y="637" type="line"/>
      <point x="536" y="637" type="line"/>
      <point x="536" y="498" type="line"/>
      <point x="465" y="485"/>
      <point x="426" y="430"/>
      <point x="414" y="373" type="curve"/>
      <point x="409" y="373" type="line"/>
      <point x="394" y="437"/>
      <point x="345" y="501"/>
      <point x="254" y="501" type="curve" smooth="yes"/>
      <point x="149" y="501"/>
      <point x="81" y="423"/>
      <point x="81" y="288" type="curve" smooth="yes"/>
      <point x="81" y="132"/>
      <point x="177" y="52"/>
      <point x="311" y="25" type="curve"/>
      <point x="327" y="85" type="line"/>
      <point x="222" y="109"/>
      <point x="155" y="165"/>
      <point x="155" y="266" type="curve" smooth="yes"/>
      <point x="155" y="289" type="line" smooth="yes"/>
      <point x="155" y="383"/>
      <point x="194" y="432"/>
      <point x="265" y="432" type="curve" smooth="yes"/>
      <point x="333" y="432"/>
      <point x="375" y="381"/>
      <point x="375" y="292" type="curve" smooth="yes"/>
      <point x="375" y="203" type="line"/>
      <point x="448" y="203" type="line"/>
      <point x="448" y="293" type="line" smooth="yes"/>
      <point x="448" y="381"/>
      <point x="497" y="436"/>
      <point x="566" y="436" type="curve" smooth="yes"/>
      <point x="634" y="436"/>
      <point x="665" y="395"/>
      <point x="665" y="329" type="curve" smooth="yes"/>
      <point x="665" y="263"/>
      <point x="637" y="221"/>
      <point x="588" y="181" type="curve" smooth="yes"/>
      <point x="547" y="147"/>
      <point x="514" y="106"/>
      <point x="514" y="54" type="curve" smooth="yes" name="hr02"/>
      <point x="514" y="-16"/>
      <point x="566" y="-65"/>
    </contour>
    <contour>
      <point x="412.0" y="688.0" type="move" name="center_deva"/>
    </contour>
    <contour>
      <point x="610.0" y="688.0" type="move" name="top_deva"/>
    </contour>
  </outline>
</glyph>
<glyph name="dvE" format="1">
  <advance width="622"/>
  <unicode hex="090F"/>
  <outline>
    <contour>
      <point x="401" y="-82" type="line"/>
      <point x="473" y="-82" type="line"/>
      <point x="473" y="6" type="line" smooth="yes"/>
      <point x="473" y="40"/>
      <point x="465" y="54"/>
      <point x="437" y="81" type="curve" smooth="yes"/>
      <point x="188" y="315" type="line"/>
      <point x="188" y="637" type="line"/>
      <point x="434" y="637" type="line" name="hr01"/>
      <point x="434" y="353" type="line"/>
      <point x="388" y="296" type="line"/>
      <point x="444" y="248" type="line"/>
      <point x="476" y="285" type="line" smooth="yes"/>
      <point x="503" y="315"/>
      <point x="508" y="330"/>
      <point x="508" y="373" type="curve" smooth="yes"/>
      <point x="508" y="637" type="line"/>
      <point x="642" y="637" type="line"/>
      <point x="642" y="698" type="line"/>
      <point x="-20" y="698" type="line"/>
      <point x="-20" y="637" type="line"/>
      <point x="114" y="637" type="line"/>
      <point x="114" y="341" type="line" smooth="yes"/>
      <point x="114" y="299"/>
      <point x="121" y="280"/>
      <point x="153" y="250" type="curve" smooth="yes"/>
      <point x="401" y="20" type="line" name="hr02"/>
    </contour>
    <contour>
      <point x="315.0" y="688.0" type="move" name="center_deva"/>
    </contour>
    <contour>
      <point x="508.0" y="688.0" type="move" name="top_deva"/>
    </contour>
  </outline>
</glyph>
<glyph name="dvOcandra" format="1">
  <advance width="1148"/>
  <unicode hex="0911"/>
  <outline>
    <component base="dvAA"/>
    <component base="dvmEcandra" xOffset="1136"/>
    <contour>
      <point x="840.0" y="688.0" type="move" name="_center_deva"/>
    </contour>
    <contour>
      <point x="866.0" y="688.0" type="move" name="center_deva"/>
    </contour>
    <contour>
      <point x="879.0" y="767.0" type="move" name="top_deva"/>
    </contour>
  </outline>
</glyph>
<glyph name="dvTTA" format="1">
  <advance width="552"/>
  <unicode hex="091F"/>
  <outline>
    <contour>
      <point x="305" y="14" type="curve" smooth="yes" name="hr00"/>
      <point x="410" y="14"/>
      <point x="475" y="53"/>
      <point x="515" y="108" type="curve"/>
      <point x="469" y="158" type="line"/>
      <point x="428" y="105"/>
      <point x="379" y="79"/>
      <point x="305" y="79" type="curve" smooth="yes"/>
      <point x="200" y="79"/>
      <point x="143" y="141"/>
      <point x="143" y="230" type="curve" smooth="yes"/>
      <point x="143" y="265" type="line" smooth="yes"/>
      <point x="143" y="356"/>
      <point x="196" y="415"/>
      <point x="317" y="415" type="curve" smooth="yes"/>
      <point x="445" y="415" type="line"/>
      <point x="445" y="637" type="line"/>
      <point x="572" y="637" type="line"/>
      <point x="572" y="698" type="line"/>
      <point x="-20" y="698" type="line"/>
      <point x="-20" y="637" type="line"/>
      <point x="372" y="637" type="line"/>
      <point x="372" y="478" type="line"/>
      <point x="316" y="478" type="line" smooth="yes"/>
      <point x="156" y="478"/>
      <point x="61" y="391"/>
      <point x="61" y="247" type="curve" smooth="yes"/>
      <point x="61" y="104"/>
      <point x="162" y="14"/>
    </contour>
    <contour>
      <point x="350.0" y="14.0" type="move" name="bottom_deva"/>
    </contour>
    <contour>
      <point x="353.0" y="688.0" type="move" name="center_deva"/>
    </contour>
    <contour>
      <point x="445.0" y="688.0" type="move" name="top_deva"/>
    </contour>
  </outline>
</glyph>
<glyph name="dvDA" format="1">
  <advance width="577"/>
  <unicode hex="0926"/>
  <outline>
    <contour>
      <point x="452" y="-62" type="line" name="hr00"/>
      <point x="511" y="-44" type="line"/>
      <point x="476" y="53" type="line"/>
      <point x="460" y="92" type="line"/>
      <point x="491" y="108"/>
      <point x="503" y="128"/>
      <point x="503" y="156" type="curve" smooth="yes"/>
      <point x="503" y="200"/>
      <point x="478" y="231"/>
      <point x="428" y="231" type="curve" smooth="yes"/>
      <point x="400" y="231"/>
      <point x="375" y="221"/>
      <point x="357" y="209" type="curve"/>
      <point x="381" y="134" type="line"/>
      <point x="366" y="131"/>
      <point x="347" y="128"/>
      <point x="323" y="128" type="curve" smooth="yes"/>
      <point x="205" y="128"/>
      <point x="147" y="186"/>
      <point x="147" y="271" type="curve" smooth="yes"/>
      <point x="147" y="296" type="line" smooth="yes"/>
      <point x="147" y="374"/>
      <point x="194" y="434"/>
      <point x="311" y="434" type="curve" smooth="yes"/>
      <point x="466" y="434" type="line"/>
      <point x="466" y="637" type="line"/>
      <point x="597" y="637" type="line"/>
      <point x="597" y="698" type="line"/>
      <point x="-20" y="698" type="line"/>
      <point x="-20" y="637" type="line"/>
      <point x="392" y="637" type="line"/>
      <point x="392" y="497" type="line"/>
      <point x="316" y="497" type="line" smooth="yes"/>
      <point x="156" y="497"/>
      <point x="68" y="416"/>
      <point x="68" y="286" type="curve" smooth="yes"/>
      <point x="68" y="150"/>
      <point x="170" y="66"/>
      <point x="319" y="66" type="curve" smooth="yes"/>
      <point x="350" y="66"/>
      <point x="379" y="69"/>
      <point x="404" y="75" type="curve"/>
      <point x="417" y="36" type="line"/>
    </contour>
    <contour>
      <point x="511.0" y="-49.0" type="move" name="bottom_deva"/>
    </contour>
    <contour>
      <point x="313.0" y="688.0" type="move" name="center_deva"/>
    </contour>
    <contour>
      <point x="466.0" y="688.0" type="move" name="top_deva"/>
    </contour>
  </outline>
</glyph>
<glyph name="dvRxA" format="1">
  <advance width="437"/>
  <unicode hex="0931"/>
  <outline>
    <component base="dvRA"/>
    <component base="dvNukta" xOffset="-61" yOffset="18"/>
    <contour>
      <point x="223.0" y="0.0" type="move" name="bottom_deva"/>
    </contour>
    <contour>
      <point x="250.0" y="688.0" type="move" name="center_deva"/>
    </contour>
    <contour>
      <point x="340.0" y="688.0" type="move" name="top_deva"/>
    </contour>
  </outline>
</glyph>
<glyph name="dvLLxA" format="1">
  <advance width="839"/>
  <unicode hex="0934"/>
  <outline>
    <component base="dvLLA"/>
    <component base="dvNukta" xOffset="304" yOffset="-65"/>
    <contour>
      <point x="647.0" y="44.0" type="move" name="bottom_deva"/>
    </contour>
    <contour>
      <point x="429.0" y="688.0" type="move" name="center_deva"/>
    </contour>
    <contour>
      <point x="630.0" y="688.0" type="move" name="top_deva"/>
    </contour>
  </outline>
</glyph>
<glyph name="dvSHA" format="1">
  <advance width="773"/>
  <unicode hex="0936"/>
  <outline>
    <contour>
      <point x="581" y="0" type="line"/>
      <point x="655" y="0" type="line"/>
      <point x="655" y="637" type="line"/>
      <point x="793" y="637" type="line"/>
      <point x="793" y="698" type="line"/>
      <point x="581" y="698" type="line"/>
    </contour>
    <contour>
      <point x="368" y="0" type="line"/>
      <point x="416" y="47" type="line"/>
      <point x="239" y="224" type="line"/>
      <point x="174" y="291" type="line"/>
      <point x="176" y="293" type="line"/>
      <point x="222" y="293" type="line" smooth="yes"/>
      <point x="357" y="293"/>
      <point x="453" y="350"/>
      <point x="453" y="502" type="curve" smooth="yes"/>
      <point x="453" y="618"/>
      <point x="385" y="694"/>
      <point x="270" y="694" type="curve" smooth="yes" name="hr01"/>
      <point x="177" y="694"/>
      <point x="111" y="639"/>
      <point x="85" y="551" type="curve"/>
      <point x="150" y="527" type="line"/>
      <point x="173" y="600"/>
      <point x="214" y="630"/>
      <point x="272" y="630" type="curve" smooth="yes"/>
      <point x="335" y="630"/>
      <point x="379" y="590"/>
      <point x="379" y="518" type="curve" smooth="yes"/>
      <point x="379" y="490" type="line" smooth="yes"/>
      <point x="379" y="397"/>
      <point x="326" y="354"/>
      <point x="207" y="354" type="curve" smooth="yes"/>
      <point x="81" y="354" type="line"/>
      <point x="81" y="295" type="line"/>
    </contour>
    <contour>
      <point x="655.0" y="0.0" type="move" name="bottom_deva"/>
    </contour>
    <contour>
      <point x="464.0" y="688.0" type="move" name="center_deva"/>
    </contour>
    <contour>
      <point x="655.0" y="688.0" type="move" name="top_deva"/>
    </contour>
  </outline>
</glyph>
<glyph name="dvHA" format="1">
  <advance width="562"/>
  <unicode hex="0939"/>
  <outline>
    <contour>
      <point x="345" y="-103" type="curve" smooth="yes"/>
      <point x="450" y="-103" type="line"/>
      <point x="450" y="-43" type="line"/>
      <point x="358" y="-43" type="line" smooth="yes"/>
      <point x="227" y="-43"/>
      <point x="161" y="15"/>
      <point x="161" y="96" type="curve" smooth="yes"/>
      <point x="161" y="134" type="line" smooth="yes"/>
      <point x="161" y="200"/>
      <point x="209" y="258"/>
      <point x="298" y="258" type="curve" smooth="yes"/>
      <point x="388" y="258"/>
      <point x="430" y="209"/>
      <point x="430" y="140" type="curve" smooth="yes"/>
      <point x="430" y="94" type="line"/>
      <point x="501" y="94" type="line"/>
      <point x="501" y="137" type="line" smooth="yes"/>
      <point x="501" y="236"/>
      <point x="429" y="322"/>
      <point x="297" y="322" type="curve" smooth="yes"/>
      <point x="256" y="322"/>
      <point x="220" y="314"/>
      <point x="191" y="299" type="curve"/>
      <point x="158" y="328"/>
      <point x="147" y="355"/>
      <point x="147" y="388" type="curve" smooth="yes" name="hr01"/>
      <point x="147" y="428"/>
      <point x="166" y="454"/>
      <point x="218" y="454" type="curve" smooth="yes"/>
      <point x="455" y="454" type="line"/>
      <point x="455" y="637" type="line"/>
      <point x="582" y="637" type="line"/>
      <point x="582" y="698" type="line"/>
      <point x="-20" y="698" type="line"/>
      <point x="-20" y="637" type="line"/>
      <point x="381" y="637" type="line"/>
      <point x="381" y="518" type="line"/>
      <point x="218" y="518" type="line" smooth="yes"/>
      <point x="128" y="518"/>
      <point x="78" y="470"/>
      <point x="78" y="396" type="curve" smooth="yes"/>
      <point x="78" y="346"/>
      <point x="104" y="305"/>
      <point x="147" y="271" type="curve"/>
      <point x="147" y="269" type="line"/>
      <point x="107" y="231"/>
      <point x="87" y="176"/>
      <point x="87" y="111" type="curve" smooth="yes" name="hr02"/>
      <point x="87" y="-14"/>
      <point x="177" y="-103"/>
    </contour>
    <contour>
      <point x="386.0" y="-104.0" type="move" name="bottom_deva"/>
    </contour>
    <contour>
      <point x="285.0" y="688.0" type="move" name="center_deva"/>
    </contour>
    <contour>
      <point x="455.0" y="688.0" type="move" name="top_deva"/>
    </contour>
  </outline>
</glyph>
<glyph name="dvAvagraha" format="1">
  <advance width="581"/>
  <unicode hex="093D"/>
  <outline>
    <contour>
      <point x="302" y="29" type="curve" smooth="yes" name="hr00"/>
      <point x="443" y="29"/>
      <point x="516" y="100"/>
      <point x="516" y="211" type="curve" smooth="yes"/>
      <point x="516" y="314"/>
      <point x="453" y="372"/>
      <point x="365" y="415" type="curve" smooth="yes"/>
      <point x="282" y="456" type="line" smooth="yes"/>
      <point x="214" y="489"/>
      <point x="193" y="522"/>
      <point x="193" y="562" type="curve" smooth="yes"/>
      <point x="193" y="577" type="line" smooth="yes"/>
      <point x="193" y="609"/>
      <point x="214" y="637"/>
      <point x="263" y="637" type="curve" smooth="yes"/>
      <point x="473" y="637" type="line"/>
      <point x="473" y="698" type="line"/>
      <point x="252" y="698" type="line" smooth="yes"/>
      <point x="166" y="698"/>
      <point x="119" y="645"/>
      <point x="119" y="573" type="curve" smooth="yes"/>
      <point x="119" y="495"/>
      <point x="163" y="444"/>
      <point x="251" y="399" type="curve" smooth="yes"/>
      <point x="344" y="352" type="line" smooth="yes"/>
      <point x="407" y="320"/>
      <point x="442" y="276"/>
      <point x="442" y="222" type="curve" smooth="yes"/>
      <point x="442" y="197" type="line" smooth="yes"/>
      <point x="442" y="144"/>
      <point x="399" y="97"/>
      <point x="303" y="97" type="curve" smooth="yes"/>
      <point x="237" y="97"/>
      <point x="169" y="118"/>
      <point x="104" y="156" type="curve"/>
      <point x="78" y="89" type="line"/>
      <point x="152" y="52"/>
      <point x="218" y="29"/>
    </contour>
  </outline>
</glyph>
<glyph name="dvmII" format="1">
  <advance width="310"/>
  <unicode hex="0940"/>
  <outline>
    <contour>
      <point x="118" y="0" type="line" name="hr00"/>
      <point x="192" y="0" type="line"/>
      <point x="192" y="637" type="line"/>
      <point x="330" y="637" type="line"/>
      <point x="330" y="698" type="line"/>
      <point x="192" y="698" type="line"/>
      <point x="192" y="748" type="line" smooth="yes"/>
      <point x="192" y="856"/>
      <point x="124" y="928"/>
      <point x="13" y="928" type="curve" smooth="yes"/>
      <point x="-77" y="928"/>
      <point x="-145" y="873"/>
      <point x="-186" y="800" type="curve"/>
      <point x="-129" y="763" type="line"/>
      <point x="-90" y="825"/>
      <point x="-49" y="862"/>
      <point x="13" y="862" type="curve" smooth="yes"/>
      <point x="80" y="862"/>
      <point x="119" y="821"/>
      <point x="119" y="747" type="curve" smooth="yes"/>
      <point x="119" y="698" type="line"/>
      <point x="-20" y="698" type="line"/>
      <point x="-20" y="637" type="line"/>
      <point x="118" y="637" type="line"/>
    </contour>
    <contour>
      <point x="192.0" y="688.0" type="move" name="mvII_deva"/>
    </contour>
    <contour>
      <point x="318.0" y="688.0" type="move" name="top_deva"/>
    </contour>
  </outline>
</glyph>
<glyph name="dvmvR" format="1">
  <advance width="0"/>
  <unicode hex="0943"/>
  <outline>
    <contour>
      <point x="-165" y="-258" type="curve" smooth="yes" name="hr00"/>
      <point x="-79" y="-258" type="line"/>
      <point x="-79" y="-203" type="line"/>
      <point x="-165" y="-203" type="line" smooth="yes"/>
      <point x="-229" y="-203"/>
      <point x="-262" y="-177"/>
      <point x="-262" y="-134" type="curve" smooth="yes"/>
      <point x="-262" y="-119" type="line" smooth="yes"/>
      <point x="-262" y="-78"/>
      <point x="-236" y="-49"/>
      <point x="-177" y="-49" type="curve" smooth="yes"/>
      <point x="-118" y="-49" type="line"/>
      <point x="-118" y="6" type="line"/>
      <point x="-181" y="6" type="line" smooth="yes"/>
      <point x="-266" y="6"/>
      <point x="-330" y="-41"/>
      <point x="-330" y="-125" type="curve" smooth="yes"/>
      <point x="-330" y="-212"/>
      <point x="-267" y="-258"/>
    </contour>
    <contour>
      <point x="-118.0" y="0.0" type="move" name="_bottom_deva"/>
    </contour>
  </outline>
</glyph>
<glyph name="dvmvRR" format="1">
  <advance width="0"/>
  <unicode hex="0944"/>
  <outline>
    <contour>
      <point x="-174" y="-336" type="curve" smooth="yes"/>
      <point x="-110" y="-336" type="line"/>
      <point x="-110" y="-290" type="line"/>
      <point x="-174" y="-290" type="line" smooth="yes"/>
      <point x="-217" y="-290"/>
      <point x="-234" y="-271"/>
      <point x="-234" y="-244" type="curve" smooth="yes"/>
      <point x="-234" y="-217"/>
      <point x="-221" y="-197"/>
      <point x="-174" y="-197" type="curve" smooth="yes"/>
      <point x="-124" y="-197" type="line"/>
      <point x="-124" y="-143" type="line"/>
      <point x="-178" y="-143" type="line" smooth="yes"/>
      <point x="-222" y="-143"/>
      <point x="-243" y="-124"/>
      <point x="-243" y="-91" type="curve" smooth="yes" name="hr01"/>
      <point x="-243" y="-63"/>
      <point x="-226" y="-43"/>
      <point x="-179" y="-43" type="curve" smooth="yes"/>
      <point x="-118" y="-43" type="line"/>
      <point x="-118" y="5" type="line"/>
      <point x="-185" y="5" type="line" smooth="yes"/>
      <point x="-262" y="5"/>
      <point x="-303" y="-36"/>
      <point x="-303" y="-87" type="curve" smooth="yes"/>
      <point x="-303" y="-122"/>
      <point x="-285" y="-154"/>
      <point x="-242" y="-169" type="curve"/>
      <point x="-242" y="-173" type="line"/>
      <point x="-272" y="-184"/>
      <point x="-292" y="-209"/>
      <point x="-292" y="-246" type="curve" smooth="yes" name="hr02"/>
      <point x="-292" y="-295"/>
      <point x="-257" y="-336"/>
    </contour>
    <contour>
      <point x="-118.0" y="0.0" type="move" name="_bottom_deva"/>
    </contour>
  </outline>
</glyph>
<glyph name="dvmEcandra" format="1">
  <advance width="0"/>
  <unicode hex="0945"/>
  <outline>
    <contour>
      <point x="-297" y="774" type="curve" name="hr00"/>
      <point x="-192" y="774"/>
      <point x="-130" y="837"/>
      <point x="-103" y="928" type="curve"/>
      <point x="-162" y="947" type="line"/>
      <point x="-188" y="871"/>
      <point x="-222" y="836"/>
      <point x="-297" y="836" type="curve"/>
      <point x="-372" y="836"/>
      <point x="-406" y="871"/>
      <point x="-432" y="947" type="curve"/>
      <point x="-491" y="928" type="line"/>
      <point x="-464" y="837"/>
      <point x="-402" y="774"/>
    </contour>
    <contour>
      <point x="-297.0" y="688.0" type="move" name="_center_deva"/>
    </contour>
  </outline>
</glyph>
<glyph name="dvmAU" format="1">
  <advance width="310"/>
  <unicode hex="094C"/>
  <outline>
    <contour>
      <point x="118" y="0" type="line" name="hr00"/>
      <point x="192" y="0" type="line"/>
      <point x="192" y="637" type="line"/>
      <point x="330" y="637" type="line"/>
      <point x="330" y="698" type="line"/>
      <point x="187" y="698" type="line"/>
      <point x="135" y="935" type="line" smooth="yes"/>
      <point x="124" y="989"/>
      <point x="99" y="1005"/>
      <point x="45" y="1005" type="curve" smooth="yes"/>
      <point x="-24" y="1005" type="line"/>
      <point x="-24" y="944" type="line"/>
      <point x="70" y="944" type="line"/>
      <point x="108" y="790" type="line"/>
      <point x="120" y="745" type="line"/>
      <point x="117" y="743" type="line"/>
      <point x="86" y="770" type="line"/>
      <point x="-7" y="841" type="line" smooth="yes"/>
      <point x="-36" y="863"/>
      <point x="-50" y="870"/>
      <point x="-92" y="870" type="curve" smooth="yes"/>
      <point x="-184" y="870" type="line"/>
      <point x="-184" y="806" type="line"/>
      <point x="-60" y="806" type="line"/>
      <point x="71" y="713" type="line"/>
      <point x="96" y="698" type="line"/>
      <point x="-20" y="698" type="line"/>
      <point x="-20" y="637" type="line"/>
      <point x="118" y="637" type="line"/>
    </contour>
    <contour>
      <point x="153.0" y="688.0" type="move" name="center_deva"/>
    </contour>
    <contour>
      <point x="192.0" y="688.0" type="move" name="top_deva"/>
    </contour>
  </outline>
</glyph>
<glyph name="dvYxA" format="1">
  <advance width="683"/>
  <unicode hex="095F"/>
  <outline>
    <component base="dvYA"/>
    <component base="dvNukta" xOffset="8" yOffset="17"/>
    <contour>
      <point x="565.0" y="0.0" type="move" name="bottom_deva"/>
    </contour>
    <contour>
      <point x="422.0" y="688.0" type="move" name="center_deva"/>
    </contour>
    <contour>
      <point x="565.0" y="688.0" type="move" name="top_deva"/>
    </contour>
  </outline>
</glyph>
<glyph name="dvZero" format="1">
  <advance width="588"/>
  <unicode hex="0966"/>
  <outline>
    <contour>
      <point x="294" y="76" type="curve" smooth="yes" name="hr00"/>
      <point x="431" y="76"/>
      <point x="527" y="180"/>
      <point x="527" y="347" type="curve" smooth="yes"/>
      <point x="527" y="515"/>
      <point x="431" y="618"/>
      <point x="294" y="618" type="curve" smooth="yes"/>
      <point x="157" y="618"/>
      <point x="61" y="515"/>
      <point x="61" y="347" type="curve" smooth="yes"/>
      <point x="61" y="180"/>
      <point x="157" y="76"/>
    </contour>
    <contour>
      <point x="294" y="144" type="curve" smooth="yes"/>
      <point x="204" y="144"/>
      <point x="142" y="206"/>
      <point x="142" y="323" type="curve" smooth="yes"/>
      <point x="142" y="371" type="line" smooth="yes"/>
      <point x="142" y="488"/>
      <point x="204" y="550"/>
      <point x="294" y="550" type="curve" smooth="yes"/>
      <point x="384" y="550"/>
      <point x="446" y="488"/>
      <point x="446" y="371" type="curve" smooth="yes"/>
      <point x="446" y="323" type="line" smooth="yes"/>
      <point x="446" y="206"/>
      <point x="384" y="144"/>
    </contour>
  </outline>
</glyph>
<glyph name="dvThree" format="1">
  <advance width="513"/>
  <unicode hex="0969"/>
  <outline>
    <contour>
      <point x="192" y="-87" type="line"/>
      <point x="254" y="-65" type="line"/>
      <point x="226" y="8" type="line"/>
      <point x="210" y="46" type="line"/>
      <point x="211" y="47" type="line"/>
      <point x="222" y="44"/>
      <point x="235" y="43"/>
      <point x="242" y="43" type="curve" smooth="yes"/>
      <point x="384" y="43"/>
      <point x="447" y="121"/>
      <point x="447" y="219" type="curve" smooth="yes"/>
      <point x="447" y="317"/>
      <point x="381" y="373"/>
      <point x="303" y="388" type="curve"/>
      <point x="303" y="390" type="line"/>
      <point x="380" y="407"/>
      <point x="425" y="460"/>
      <point x="425" y="544" type="curve" smooth="yes" name="hr01"/>
      <point x="425" y="633"/>
      <point x="365" y="703"/>
      <point x="245" y="703" type="curve" smooth="yes"/>
      <point x="186" y="703"/>
      <point x="133" y="686"/>
      <point x="93" y="656" type="curve"/>
      <point x="129" y="599" type="line"/>
      <point x="165" y="625"/>
      <point x="201" y="639"/>
      <point x="245" y="639" type="curve" smooth="yes"/>
      <point x="314" y="639"/>
      <point x="351" y="601"/>
      <point x="351" y="544" type="curve" smooth="yes"/>
      <point x="351" y="532" type="line" smooth="yes"/>
      <point x="351" y="461"/>
      <point x="300" y="421"/>
      <point x="202" y="421" type="curve" smooth="yes"/>
      <point x="134" y="421" type="line"/>
      <point x="134" y="354" type="line"/>
      <point x="205" y="354" type="line" smooth="yes"/>
      <point x="311" y="354"/>
      <point x="367" y="295"/>
      <point x="367" y="227" type="curve" smooth="yes" name="hr02"/>
      <point x="367" y="206" type="line" smooth="yes"/>
      <point x="367" y="148"/>
      <point x="321" y="104"/>
      <point x="228" y="104" type="curve" smooth="yes"/>
      <point x="219" y="104"/>
      <point x="207" y="104"/>
      <point x="193" y="106" type="curve"/>
      <point x="166" y="179" type="line"/>
      <point x="159" y="180"/>
      <point x="142" y="181"/>
      <point x="135" y="181" type="curve" smooth="yes"/>
      <point x="91" y="181"/>
      <point x="66" y="160"/>
      <point x="66" y="122" type="curve" smooth="yes"/>
      <point x="66" y="78"/>
      <point x="97" y="53"/>
      <point x="145" y="45" type="curve"/>
      <point x="162" y="-3" type="line"/>
    </contour>
  </outline>
</glyph>
<glyph name="dvFive" format="1">
  <advance width="569"/>
  <unicode hex="096B"/>
  <outline>
    <contour>
      <point x="480" y="-45" type="line" name="hr00"/>
      <point x="548" y="-22" type="line"/>
      <point x="484" y="161" type="line"/>
      <point x="468" y="206" type="line"/>
      <point x="495" y="221"/>
      <point x="505" y="237"/>
      <point x="505" y="263" type="curve" smooth="yes"/>
      <point x="505" y="306"/>
      <point x="478" y="341"/>
      <point x="432" y="341" type="curve" smooth="yes"/>
      <point x="404" y="341"/>
      <point x="374" y="332"/>
      <point x="356" y="319" type="curve"/>
      <point x="381" y="244" type="line"/>
      <point x="362" y="238"/>
      <point x="339" y="235"/>
      <point x="311" y="235" type="curve" smooth="yes"/>
      <point x="216" y="235"/>
      <point x="156" y="297"/>
      <point x="156" y="391" type="curve" smooth="yes"/>
      <point x="156" y="410" type="line" smooth="yes"/>
      <point x="156" y="513"/>
      <point x="227" y="599"/>
      <point x="398" y="622" type="curve"/>
      <point x="386" y="688" type="line"/>
      <point x="181" y="662"/>
      <point x="76" y="540"/>
      <point x="76" y="398" type="curve" smooth="yes"/>
      <point x="76" y="256"/>
      <point x="171" y="171"/>
      <point x="308" y="171" type="curve" smooth="yes"/>
      <point x="345" y="171"/>
      <point x="376" y="175"/>
      <point x="405" y="182" type="curve"/>
      <point x="418" y="143" type="line"/>
    </contour>
  </outline>
</glyph>
<glyph name="dvSix" format="1">
  <advance width="520"/>
  <unicode hex="096C"/>
  <outline>
    <contour>
      <point x="412" y="-70" type="line"/>
      <point x="474" y="-49" type="line"/>
      <point x="448" y="20" type="line"/>
      <point x="431" y="65" type="line"/>
      <point x="453" y="78"/>
      <point x="463" y="94"/>
      <point x="463" y="117" type="curve" smooth="yes"/>
      <point x="463" y="154"/>
      <point x="436" y="180"/>
      <point x="401" y="180" type="curve" smooth="yes"/>
      <point x="370" y="180"/>
      <point x="350" y="171"/>
      <point x="333" y="158" type="curve"/>
      <point x="352" y="104" type="line"/>
      <point x="334" y="98"/>
      <point x="309" y="96"/>
      <point x="289" y="96" type="curve" smooth="yes"/>
      <point x="202" y="96"/>
      <point x="159" y="139"/>
      <point x="159" y="206" type="curve" smooth="yes"/>
      <point x="159" y="226" type="line" smooth="yes"/>
      <point x="159" y="288"/>
      <point x="211" y="353"/>
      <point x="322" y="353" type="curve" smooth="yes"/>
      <point x="389" y="353" type="line"/>
      <point x="389" y="419" type="line"/>
      <point x="326" y="419" type="line" smooth="yes"/>
      <point x="227" y="419"/>
      <point x="168" y="469"/>
      <point x="168" y="532" type="curve" smooth="yes" name="hr01"/>
      <point x="168" y="548" type="line" smooth="yes"/>
      <point x="168" y="599"/>
      <point x="211" y="638"/>
      <point x="276" y="638" type="curve" smooth="yes"/>
      <point x="322" y="638"/>
      <point x="354" y="627"/>
      <point x="396" y="603" type="curve"/>
      <point x="426" y="659" type="line"/>
      <point x="379" y="688"/>
      <point x="329" y="702"/>
      <point x="279" y="702" type="curve" smooth="yes"/>
      <point x="151" y="702"/>
      <point x="91" y="627"/>
      <point x="91" y="544" type="curve" smooth="yes"/>
      <point x="91" y="466"/>
      <point x="141" y="410"/>
      <point x="221" y="392" type="curve"/>
      <point x="221" y="388" type="line"/>
      <point x="139" y="371"/>
      <point x="76" y="304"/>
      <point x="76" y="212" type="curve" smooth="yes" name="hr02"/>
      <point x="76" y="110"/>
      <point x="147" y="35"/>
      <point x="287" y="35" type="curve" smooth="yes"/>
      <point x="316" y="35"/>
      <point x="348" y="39"/>
      <point x="374" y="45" type="curve"/>
      <point x="388" y="5" type="line"/>
    </contour>
  </outline>
</glyph>
<glyph name="dvNine" format="1">
  <advance width="489"/>
  <unicode hex="096F"/>
  <outline>
    <contour>
      <point x="367" y="0" type="line" name="hr00"/>
      <point x="438" y="0" type="line"/>
      <point x="438" y="118" type="line" smooth="yes"/>
      <point x="438" y="155"/>
      <point x="434" y="168"/>
      <point x="401" y="197" type="curve" smooth="yes"/>
      <point x="203" y="375" type="line"/>
      <point x="205" y="379" type="line"/>
      <point x="215" y="376"/>
      <point x="223" y="375"/>
      <point x="235" y="375" type="curve" smooth="yes"/>
      <point x="322" y="375"/>
      <point x="392" y="437"/>
      <point x="392" y="535" type="curve" smooth="yes"/>
      <point x="392" y="635"/>
      <point x="327" y="705"/>
      <point x="213" y="705" type="curve" smooth="yes"/>
      <point x="105" y="705"/>
      <point x="41" y="633"/>
      <point x="41" y="533" type="curve" smooth="yes"/>
      <point x="41" y="462"/>
      <point x="74" y="408"/>
      <point x="140" y="346" type="curve" smooth="yes"/>
      <point x="367" y="134" type="line"/>
    </contour>
    <contour>
      <point x="216" y="430" type="curve"/>
      <point x="151" y="430"/>
      <point x="113" y="468"/>
      <point x="113" y="526" type="curve" smooth="yes"/>
      <point x="113" y="547" type="line" smooth="yes"/>
      <point x="113" y="605"/>
      <point x="151" y="643"/>
      <point x="216" y="643" type="curve"/>
      <point x="281" y="643"/>
      <point x="319" y="605"/>
      <point x="319" y="547" type="curve" smooth="yes"/>
      <point x="319" y="526" type="line" smooth="yes"/>
      <point x="319" y="468"/>
      <point x="281" y="430"/>
    </contour>
  </outline>
</glyph>
<glyph name="dvAcandra" format="1">
  <advance width="833"/>
  <unicode hex="0972"/>
  <outline>
    <component base="dvA"/>
    <component base="dvmEcandra" xOffset="978"/>
    <contour>
      <point x="676.0" y="688.0" type="move" name="center_deva"/>
    </contour>
    <contour>
      <point x="720.0" y="767.0" type="move" name="top_deva"/>
    </contour>
  </outline>
</glyph>
<glyph name="foursuperior" format="1">
  <advance width="346"/>
  <unicode hex="2074"/>
  <outline>
    <contour>
      <point x="269" y="329" type="line" name="hr00"/>
      <point x="269" y="401" type="line"/>
      <point x="325" y="401" type="line"/>
      <point x="325" y="449" type="line"/>
      <point x="269" y="449" type="line"/>
      <point x="269" y="698" type="line"/>
      <point x="184" y="698" type="line"/>
      <point x="20" y="453" type="line"/>
      <point x="20" y="401" type="line"/>
      <point x="209" y="401" type="line"/>
      <point x="209" y="329" type="line"/>
    </contour>
    <contour>
      <point x="209" y="449" type="line"/>
      <point x="75" y="449" type="line"/>
      <point x="205" y="641" type="line"/>
      <point x="209" y="641" type="line"/>
    </contour>
  </outline>
</glyph>
<glyph name="oneinferior" format="1">
  <advance width="359"/>
  <unicode hex="2081"/>
  <outline>
    <contour>
      <point x="325" y="0" type="line" name="hr00"/>
      <point x="325" y="50" type="line"/>
      <point x="227" y="50" type="line"/>
      <point x="227" y="369" type="line"/>
      <point x="134" y="369" type="line"/>
      <point x="32" y="266" type="line"/>
      <point x="68" y="229" type="line"/>
      <point x="158" y="318" type="line"/>
      <point x="164" y="318" type="line"/>
      <point x="164" y="50" type="line"/>
      <point x="55" y="50" type="line"/>
      <point x="55" y="0" type="line"/>
    </contour>
  </outline>
</glyph>
<glyph name="rupee" format="1">
  <advance width="713"/>
  <unicode hex="20A8"/>
  <outline>
    <contour>
      <point x="173" y="0" type="line"/>
      <point x="173" y="322" type="line"/>
      <point x="260" y="322" type="line"/>
      <point x="362" y="94" type="line" smooth="yes"/>
      <point x="397" y="16"/>
      <point x="449" y="-12"/>
      <point x="525" y="-12" type="curve" smooth="yes" name="hr01"/>
      <point x="633" y="-12"/>
      <point x="683" y="41"/>
      <point x="683" y="120" type="curve" smooth="yes"/>
      <point x="683" y="174"/>
      <point x="666" y="197"/>
      <point x="605" y="258" type="curve" smooth="yes"/>
      <point x="590" y="273" type="line" smooth="yes"/>
      <point x="550" y="313"/>
      <point x="537" y="331"/>
      <point x="537" y="362" type="curve" smooth="yes"/>
      <point x="537" y="394"/>
      <point x="555" y="413"/>
      <point x="587" y="413" type="curve" smooth="yes"/>
      <point x="612" y="413"/>
      <point x="633" y="405"/>
      <point x="651" y="391" type="curve"/>
      <point x="683" y="448" type="line"/>
      <point x="652" y="471"/>
      <point x="618" y="477"/>
      <point x="583" y="477" type="curve" smooth="yes"/>
      <point x="506" y="477"/>
      <point x="462" y="427"/>
      <point x="462" y="361" type="curve" smooth="yes"/>
      <point x="462" y="316"/>
      <point x="479" y="280"/>
      <point x="535" y="224" type="curve" smooth="yes"/>
      <point x="554" y="205" type="line" smooth="yes"/>
      <point x="600" y="159"/>
      <point x="608" y="150"/>
      <point x="608" y="120" type="curve" smooth="yes"/>
      <point x="608" y="77"/>
      <point x="580" y="55"/>
      <point x="532" y="55" type="curve" smooth="yes"/>
      <point x="483" y="55"/>
      <point x="459" y="80"/>
      <point x="434" y="132" type="curve" smooth="yes"/>
      <point x="337" y="336" type="line"/>
      <point x="410" y="359"/>
      <point x="445" y="420"/>
      <point x="445" y="511" type="curve" smooth="yes"/>
      <point x="445" y="630"/>
      <point x="385" y="698"/>
      <point x="266" y="698" type="curve" smooth="yes"/>
      <point x="93" y="698" type="line"/>
      <point x="93" y="0" type="line" name="hr02"/>
    </contour>
    <contour>
      <point x="173" y="392" type="line"/>
      <point x="173" y="626" type="line"/>
      <point x="258" y="626" type="line" smooth="yes"/>
      <point x="324" y="626"/>
      <point x="363" y="593"/>
      <point x="363" y="532" type="curve" smooth="yes"/>
      <point x="363" y="486" type="line" smooth="yes"/>
      <point x="363" y="425"/>
      <point x="324" y="392"/>
      <point x="258" y="392" type="curve" smooth="yes"/>
    </contour>
  </outline>
</glyph>
<glyph name="rupeeindian" format="1">
  <advance width="613"/>
  <unicode hex="20B9"/>
  <outline>
    <contour>
      <point x="392" y="0" type="line" name="hr00"/>
      <point x="439" y="50" type="line"/>
      <point x="179" y="286" type="line"/>
      <point x="179" y="290" type="line"/>
      <point x="212" y="290" type="line" smooth="yes"/>
      <point x="366" y="290"/>
      <point x="447" y="350"/>
      <point x="454" y="463" type="curve"/>
      <point x="546" y="463" type="line"/>
      <point x="546" y="525" type="line"/>
      <point x="453" y="525" type="line"/>
      <point x="442" y="587"/>
      <point x="403" y="619"/>
      <point x="368" y="634" type="curve"/>
      <point x="368" y="638" type="line"/>
      <point x="546" y="638" type="line"/>
      <point x="546" y="698" type="line"/>
      <point x="67" y="698" type="line"/>
      <point x="67" y="638" type="line"/>
      <point x="221" y="638" type="line" smooth="yes"/>
      <point x="314" y="638"/>
      <point x="369" y="593"/>
      <point x="374" y="525" type="curve"/>
      <point x="67" y="525" type="line"/>
      <point x="67" y="463" type="line"/>
      <point x="375" y="463" type="line"/>
      <point x="372" y="393"/>
      <point x="335" y="350"/>
      <point x="207" y="350" type="curve" smooth="yes"/>
      <point x="81" y="350" type="line"/>
      <point x="81" y="283" type="line"/>
    </contour>
  </outline>
</glyph>
<glyph name="arrowupleft" format="1">
  <advance width="820"/>
  <unicode hex="2196"/>
  <outline>
    <contour>
      <point x="170" y="614" type="line" name="hr00"/>
      <point x="170" y="321" type="line"/>
      <point x="238" y="321" type="line"/>
      <point x="238" y="443" type="line"/>
      <point x="232" y="508" type="line"/>
      <point x="235" y="509" type="line"/>
      <point x="299" y="437" type="line"/>
      <point x="648" y="88" type="line"/>
      <point x="696" y="136" type="line"/>
      <point x="347" y="485" type="line"/>
      <point x="275" y="549" type="line"/>
      <point x="276" y="552" type="line"/>
      <point x="341" y="546" type="line"/>
      <point x="463" y="546" type="line"/>
      <point x="463" y="614" type="line"/>
    </contour>
  </outline>
</glyph>
<glyph name="greaterequal" format="1">
  <advance width="600"/>
  <unicode hex="2265"/>
  <outline>
    <contour>
      <point x="90" y="121" type="line" name="hr00"/>
      <point x="510" y="312" type="line"/>
      <point x="510" y="401" type="line"/>
      <point x="90" y="591" type="line"/>
      <point x="90" y="511" type="line"/>
      <point x="434" y="360" type="line"/>
      <point x="434" y="353" type="line"/>
      <point x="90" y="202" type="line"/>
    </contour>
    <contour>
      <point x="90" y="0" type="line"/>
      <point x="510" y="0" type="line"/>
      <point x="510" y="68" type="line"/>
      <point x="90" y="68" type="line"/>
    </contour>
  </outline>
</glyph>
<glyph name="dvBH_RA" format="1">
  <advance width="630"/>
  <outline>
    <contour>
      <point x="177" y="-52" type="line" name="hr00"/>
      <point x="370" y="136" type="line"/>
      <point x="434" y="206" type="line"/>
      <point x="438" y="206" type="line"/>
      <point x="438" y="0" type="line"/>
      <point x="512" y="0" type="line"/>
      <point x="512" y="637" type="line"/>
      <point x="650" y="637" type="line"/>
      <point x="650" y="698" type="line"/>
      <point x="438" y="698" type="line"/>
      <point x="438" y="375" type="line"/>
      <point x="203" y="375" type="line"/>
      <point x="203" y="621" type="line" smooth="yes"/>
      <point x="203" y="673"/>
      <point x="182" y="698"/>
      <point x="125" y="698" type="curve" smooth="yes"/>
      <point x="-20" y="698" type="line"/>
      <point x="-20" y="637" type="line"/>
      <point x="129" y="637" type="line"/>
      <point x="129" y="370" type="line"/>
      <point x="99" y="360"/>
      <point x="84" y="334"/>
      <point x="84" y="298" type="curve" smooth="yes"/>
      <point x="84" y="250"/>
      <point x="110" y="221"/>
      <point x="162" y="221" type="curve" smooth="yes"/>
      <point x="177" y="221"/>
      <point x="195" y="224"/>
      <point x="202" y="229" type="curve"/>
      <point x="202" y="312" type="line"/>
      <point x="438" y="312" type="line"/>
      <point x="438" y="296" type="line"/>
      <point x="125" y="-1" type="line"/>
    </contour>
    <contour>
      <point x="512.0" y="0.0" type="move" name="bottom_deva"/>
    </contour>
    <contour>
      <point x="312.0" y="688.0" type="move" name="center_deva"/>
    </contour>
    <contour>
      <point x="512.0" y="688.0" type="move" name="top_deva"/>
    </contour>
  </outline>
</glyph>
<glyph name="dvBH_R_YA" format="1">
  <advance width="1066"/>
  <outline>
    <contour>
      <point x="230" y="-46" type="line" name="hr00"/>
      <point x="396" y="165" type="line"/>
      <point x="470" y="262" type="line"/>
      <point x="474" y="262" type="line"/>
      <point x="506" y="179"/>
      <point x="582" y="134"/>
      <point x="684" y="134" type="curve" smooth="yes"/>
      <point x="776" y="134"/>
      <point x="835" y="166"/>
      <point x="870" y="219" type="curve"/>
      <point x="874" y="219" type="line"/>
      <point x="874" y="0" type="line"/>
      <point x="948" y="0" type="line"/>
      <point x="948" y="637" type="line"/>
      <point x="1086" y="637" type="line"/>
      <point x="1086" y="698" type="line"/>
      <point x="393" y="698" type="line"/>
      <point x="393" y="637" type="line"/>
      <point x="627" y="637" type="line"/>
      <point x="627" y="523" type="line" smooth="yes"/>
      <point x="627" y="463"/>
      <point x="606" y="436"/>
      <point x="554" y="436" type="curve" smooth="yes"/>
      <point x="457" y="436" type="line"/>
      <point x="457" y="375" type="line"/>
      <point x="203" y="375" type="line"/>
      <point x="203" y="621" type="line" smooth="yes"/>
      <point x="203" y="673"/>
      <point x="182" y="698"/>
      <point x="125" y="698" type="curve" smooth="yes"/>
      <point x="-20" y="698" type="line"/>
      <point x="-20" y="637" type="line"/>
      <point x="129" y="637" type="line"/>
      <point x="129" y="370" type="line"/>
      <point x="99" y="360"/>
      <point x="83" y="335"/>
      <point x="83" y="298" type="curve" smooth="yes"/>
      <point x="83" y="250"/>
      <point x="110" y="221"/>
      <point x="161" y="221" type="curve" smooth="yes"/>
      <point x="178" y="221"/>
      <point x="193" y="224"/>
      <point x="203" y="229" type="curve"/>
      <point x="203" y="312" type="line"/>
      <point x="429" y="312" type="line"/>
      <point x="429" y="308" type="line"/>
      <point x="392" y="266" type="line"/>
      <point x="173" y="-4" type="line"/>
    </contour>
    <contour>
      <point x="689" y="203" type="curve" smooth="yes"/>
      <point x="591" y="203"/>
      <point x="531" y="241"/>
      <point x="531" y="338" type="curve" smooth="yes"/>
      <point x="531" y="376" type="line"/>
      <point x="563" y="376" type="line" smooth="yes"/>
      <point x="653" y="376"/>
      <point x="701" y="433"/>
      <point x="701" y="523" type="curve" smooth="yes"/>
      <point x="701" y="637" type="line"/>
      <point x="874" y="637" type="line"/>
      <point x="874" y="339" type="line" smooth="yes"/>
      <point x="874" y="262"/>
      <point x="805" y="203"/>
    </contour>
    <contour>
      <point x="948.0" y="0.0" type="move" name="bottom_deva"/>
    </contour>
    <contour>
      <point x="805.0" y="688.0" type="move" name="center_deva"/>
    </contour>
    <contour>
      <point x="948.0" y="688.0" type="move" name="top_deva"/>
    </contour>
  </outline>
</glyph>
<glyph name="dvB_BH_RA" format="1">
  <advance width="988"/>
  <outline>
    <contour>
      <point x="270" y="113" type="curve" smooth="yes" name="hr00"/>
      <point x="372" y="113"/>
      <point x="445" y="161"/>
      <point x="474" y="236" type="curve"/>
      <point x="487" y="226"/>
      <point x="504" y="221"/>
      <point x="524" y="221" type="curve" smooth="yes"/>
      <point x="542" y="221"/>
      <point x="557" y="224"/>
      <point x="567" y="229" type="curve"/>
      <point x="567" y="312" type="line"/>
      <point x="797" y="312" type="line"/>
      <point x="797" y="296" type="line"/>
      <point x="483" y="-1" type="line"/>
      <point x="535" y="-52" type="line"/>
      <point x="728" y="136" type="line"/>
      <point x="793" y="206" type="line"/>
      <point x="797" y="206" type="line"/>
      <point x="797" y="0" type="line"/>
      <point x="871" y="0" type="line"/>
      <point x="871" y="637" type="line"/>
      <point x="1008" y="637" type="line"/>
      <point x="1008" y="698" type="line"/>
      <point x="797" y="698" type="line"/>
      <point x="797" y="375" type="line"/>
      <point x="567" y="375" type="line"/>
      <point x="567" y="621" type="line"/>
      <point x="567" y="673"/>
      <point x="546" y="698"/>
      <point x="488" y="698" type="curve" smooth="yes"/>
      <point x="-20" y="698" type="line"/>
      <point x="-20" y="637" type="line"/>
      <point x="496" y="637" type="line"/>
      <point x="496" y="372" type="line"/>
      <point x="490" y="370"/>
      <point x="485" y="368"/>
      <point x="480" y="366" type="curve"/>
      <point x="458" y="451"/>
      <point x="381" y="507"/>
      <point x="270" y="507" type="curve" smooth="yes"/>
      <point x="139" y="507"/>
      <point x="54" y="422"/>
      <point x="54" y="312" type="curve" smooth="yes"/>
      <point x="54" y="196"/>
      <point x="139" y="113"/>
    </contour>
    <contour>
      <point x="270" y="170" type="curve" smooth="yes"/>
      <point x="178" y="170"/>
      <point x="124" y="225"/>
      <point x="124" y="302" type="curve" smooth="yes"/>
      <point x="124" y="324" type="line" smooth="yes"/>
      <point x="124" y="353"/>
      <point x="134" y="379"/>
      <point x="151" y="399" type="curve"/>
      <point x="181" y="369" type="line"/>
      <point x="342" y="215" type="line"/>
      <point x="368" y="193" type="line"/>
      <point x="333" y="174"/>
      <point x="303" y="170"/>
    </contour>
    <contour>
      <point x="402" y="228" type="curve"/>
      <point x="379" y="252" type="line"/>
      <point x="215" y="408" type="line"/>
      <point x="187" y="431" type="line"/>
      <point x="214" y="446"/>
      <point x="240" y="450"/>
      <point x="270" y="450" type="curve" smooth="yes"/>
      <point x="368" y="450"/>
      <point x="421" y="394"/>
      <point x="421" y="324" type="curve" smooth="yes"/>
      <point x="421" y="304" type="line" smooth="yes"/>
      <point x="421" y="273"/>
      <point x="414" y="247"/>
    </contour>
    <contour>
      <point x="870.0" y="0.0" type="move" name="bottom_deva"/>
    </contour>
    <contour>
      <point x="675.0" y="688.0" type="move" name="center_deva"/>
    </contour>
    <contour>
      <point x="870.0" y="688.0" type="move" name="top_deva"/>
    </contour>
  </outline>
</glyph>
<glyph name="dvB_DHA" format="1">
  <advance width="1027"/>
  <outline>
    <contour>
      <point x="835" y="0" type="line"/>
      <point x="909" y="0" type="line"/>
      <point x="909" y="637" type="line"/>
      <point x="1047" y="637" type="line"/>
      <point x="1047" y="698" type="line"/>
      <point x="835" y="698" type="line"/>
      <point x="835" y="335" type="line" smooth="yes"/>
      <point x="835" y="244"/>
      <point x="756" y="175"/>
      <point x="636" y="175" type="curve" smooth="yes"/>
      <point x="548" y="175"/>
      <point x="507" y="218"/>
      <point x="507" y="278" type="curve" smooth="yes"/>
      <point x="507" y="341"/>
      <point x="547" y="386"/>
      <point x="630" y="386" type="curve" smooth="yes"/>
      <point x="699" y="386" type="line"/>
      <point x="699" y="450" type="line"/>
      <point x="627" y="450" type="line" smooth="yes"/>
      <point x="534" y="450"/>
      <point x="484" y="494"/>
      <point x="484" y="555" type="curve" smooth="yes" name="hr01"/>
      <point x="484" y="607"/>
      <point x="518" y="640"/>
      <point x="574" y="640" type="curve" smooth="yes"/>
      <point x="604" y="640"/>
      <point x="629" y="631"/>
      <point x="655" y="617" type="curve"/>
      <point x="678" y="668" type="line"/>
      <point x="656" y="684"/>
      <point x="615" y="701"/>
      <point x="568" y="701" type="curve" smooth="yes"/>
      <point x="459" y="701"/>
      <point x="410" y="635"/>
      <point x="410" y="562" type="curve" smooth="yes"/>
      <point x="410" y="484"/>
      <point x="463" y="433"/>
      <point x="537" y="419" type="curve"/>
      <point x="537" y="413" type="line"/>
      <point x="510" y="407"/>
      <point x="484" y="391"/>
      <point x="470" y="372" type="curve"/>
      <point x="465" y="372" type="line"/>
      <point x="431" y="437"/>
      <point x="361" y="478"/>
      <point x="268" y="478" type="curve" smooth="yes"/>
      <point x="143" y="478"/>
      <point x="54" y="397"/>
      <point x="54" y="285" type="curve" smooth="yes"/>
      <point x="54" y="164"/>
      <point x="140" y="84"/>
      <point x="270" y="84" type="curve" smooth="yes"/>
      <point x="363" y="84"/>
      <point x="426" y="122"/>
      <point x="460" y="179" type="curve"/>
      <point x="465" y="179" type="line"/>
      <point x="497" y="138"/>
      <point x="550" y="109"/>
      <point x="633" y="109" type="curve" smooth="yes" name="hr02"/>
      <point x="733" y="109"/>
      <point x="798" y="152"/>
      <point x="831" y="198" type="curve"/>
      <point x="835" y="198" type="line"/>
    </contour>
    <contour>
      <point x="-20" y="637" type="line"/>
      <point x="361" y="637" type="line"/>
      <point x="361" y="698" type="line"/>
      <point x="-20" y="698" type="line"/>
    </contour>
    <contour>
      <point x="270" y="141" type="curve" smooth="yes" name="hr03"/>
      <point x="178" y="141"/>
      <point x="124" y="196"/>
      <point x="124" y="273" type="curve" smooth="yes"/>
      <point x="124" y="295" type="line" smooth="yes"/>
      <point x="124" y="324"/>
      <point x="134" y="350"/>
      <point x="151" y="370" type="curve"/>
      <point x="181" y="340" type="line"/>
      <point x="342" y="186" type="line"/>
      <point x="368" y="164" type="line"/>
      <point x="333" y="145"/>
      <point x="303" y="141"/>
    </contour>
    <contour>
      <point x="402" y="199" type="curve"/>
      <point x="379" y="223" type="line"/>
      <point x="215" y="379" type="line"/>
      <point x="187" y="402" type="line"/>
      <point x="214" y="417"/>
      <point x="240" y="421"/>
      <point x="270" y="421" type="curve" smooth="yes"/>
      <point x="368" y="421"/>
      <point x="421" y="365"/>
      <point x="421" y="295" type="curve" smooth="yes"/>
      <point x="421" y="275" type="line" smooth="yes"/>
      <point x="421" y="244"/>
      <point x="414" y="218"/>
    </contour>
    <contour>
      <point x="909.0" y="0.0" type="move" name="bottom_deva"/>
    </contour>
    <contour>
      <point x="697.0" y="688.0" type="move" name="center_deva"/>
    </contour>
    <contour>
      <point x="909.0" y="688.0" type="move" name="top_deva"/>
    </contour>
  </outline>
</glyph>
<glyph name="dvB_DH_VA" format="1">
  <advance width="1391"/>
  <outline>
    <contour>
      <point x="803" y="637" type="line"/>
      <point x="1200" y="637" type="line"/>
      <point x="1200" y="446" type="line"/>
      <point x="1196" y="446" type="line"/>
      <point x="1158" y="481"/>
      <point x="1102" y="507"/>
      <point x="1029" y="507" type="curve" smooth="yes"/>
      <point x="909" y="507"/>
      <point x="824" y="434"/>
      <point x="824" y="312" type="curve" smooth="yes"/>
      <point x="824" y="300"/>
      <point x="825" y="289"/>
      <point x="826" y="280" type="curve"/>
      <point x="781" y="214"/>
      <point x="713" y="175"/>
      <point x="636" y="175" type="curve" smooth="yes"/>
      <point x="548" y="175"/>
      <point x="507" y="217"/>
      <point x="507" y="278" type="curve" smooth="yes"/>
      <point x="507" y="341"/>
      <point x="547" y="386"/>
      <point x="630" y="386" type="curve" smooth="yes" name="hr01"/>
      <point x="699" y="386" type="line"/>
      <point x="699" y="450" type="line"/>
      <point x="627" y="450" type="line" smooth="yes"/>
      <point x="534" y="450"/>
      <point x="484" y="494"/>
      <point x="484" y="555" type="curve" smooth="yes"/>
      <point x="484" y="607"/>
      <point x="518" y="640"/>
      <point x="574" y="640" type="curve" smooth="yes"/>
      <point x="604" y="640"/>
      <point x="629" y="631"/>
      <point x="655" y="616" type="curve"/>
      <point x="678" y="668" type="line"/>
      <point x="656" y="684"/>
      <point x="615" y="701"/>
      <point x="568" y="701" type="curve" smooth="yes"/>
      <point x="459" y="701"/>
      <point x="410" y="635"/>
      <point x="410" y="562" type="curve" smooth="yes"/>
      <point x="410" y="484"/>
      <point x="463" y="433"/>
      <point x="537" y="419" type="curve"/>
      <point x="537" y="413" type="line"/>
      <point x="510" y="407"/>
      <point x="484" y="391"/>
      <point x="470" y="372" type="curve"/>
      <point x="465" y="372" type="line"/>
      <point x="431" y="437"/>
      <point x="361" y="478"/>
      <point x="268" y="478" type="curve" smooth="yes" name="hr02"/>
      <point x="143" y="478"/>
      <point x="54" y="397"/>
      <point x="54" y="285" type="curve" smooth="yes"/>
      <point x="54" y="164"/>
      <point x="140" y="84"/>
      <point x="270" y="84" type="curve" smooth="yes"/>
      <point x="363" y="84"/>
      <point x="426" y="122"/>
      <point x="460" y="179" type="curve" name="hr03"/>
      <point x="465" y="179" type="line"/>
      <point x="497" y="137"/>
      <point x="549" y="109"/>
      <point x="634" y="109" type="curve" smooth="yes" name="hr04"/>
      <point x="730" y="109"/>
      <point x="806" y="151"/>
      <point x="849" y="203" type="curve"/>
      <point x="853" y="203" type="line"/>
      <point x="887" y="147"/>
      <point x="949" y="113"/>
      <point x="1033" y="113" type="curve" smooth="yes" name="hr05"/>
      <point x="1107" y="113"/>
      <point x="1164" y="143"/>
      <point x="1196" y="178" type="curve"/>
      <point x="1200" y="178" type="line"/>
      <point x="1200" y="0" type="line"/>
      <point x="1274" y="0" type="line"/>
      <point x="1274" y="637" type="line"/>
      <point x="1411" y="637" type="line"/>
      <point x="1411" y="698" type="line"/>
      <point x="803" y="698" type="line"/>
    </contour>
    <contour>
      <point x="-20" y="637" type="line"/>
      <point x="361" y="637" type="line"/>
      <point x="361" y="698" type="line"/>
      <point x="-20" y="698" type="line"/>
    </contour>
    <contour>
      <point x="1043" y="179" type="curve" smooth="yes"/>
      <point x="946" y="179"/>
      <point x="902" y="233"/>
      <point x="902" y="300" type="curve" smooth="yes"/>
      <point x="902" y="324" type="line" smooth="yes"/>
      <point x="902" y="388"/>
      <point x="949" y="443"/>
      <point x="1036" y="443" type="curve" smooth="yes"/>
      <point x="1125" y="443"/>
      <point x="1201" y="392"/>
      <point x="1201" y="342" type="curve" smooth="yes"/>
      <point x="1201" y="287" type="line" smooth="yes"/>
      <point x="1201" y="235"/>
      <point x="1133" y="179"/>
    </contour>
    <contour>
      <point x="270" y="141" type="curve" smooth="yes" name="hr06"/>
      <point x="178" y="141"/>
      <point x="124" y="196"/>
      <point x="124" y="273" type="curve" smooth="yes"/>
      <point x="124" y="295" type="line" smooth="yes"/>
      <point x="124" y="324"/>
      <point x="134" y="350"/>
      <point x="151" y="370" type="curve"/>
      <point x="181" y="340" type="line"/>
      <point x="342" y="186" type="line"/>
      <point x="368" y="164" type="line"/>
      <point x="333" y="145"/>
      <point x="303" y="141"/>
    </contour>
    <contour>
      <point x="402" y="199" type="curve"/>
      <point x="379" y="223" type="line"/>
      <point x="215" y="379" type="line"/>
      <point x="187" y="402" type="line"/>
      <point x="214" y="417"/>
      <point x="240" y="421"/>
      <point x="270" y="421" type="curve" smooth="yes"/>
      <point x="368" y="421"/>
      <point x="421" y="365"/>
      <point x="421" y="295" type="curve" smooth="yes"/>
      <point x="421" y="275" type="line" smooth="yes"/>
      <point x="421" y="244"/>
      <point x="414" y="218"/>
    </contour>
    <contour>
      <point x="1274.0" y="0.0" type="move" name="bottom_deva"/>
    </contour>
    <contour>
      <point x="1070.0" y="688.0" type="move" name="center_deva"/>
    </contour>
    <contour>
      <point x="1274.0" y="688.0" type="move" name="top_deva"/>
    </contour>
  </outline>
</glyph>
<glyph name="dvB_JHA" format="1">
  <advance width="1185"/>
  <outline>
    <contour>
      <point x="561" y="-119" type="line"/>
      <point x="619" y="-101" type="line"/>
      <point x="583" y="1" type="line"/>
      <point x="573" y="24" type="line"/>
      <point x="575" y="27" type="line"/>
      <point x="590" y="25"/>
      <point x="601" y="24"/>
      <point x="613" y="24" type="curve" smooth="yes"/>
      <point x="744" y="24"/>
      <point x="806" y="83"/>
      <point x="806" y="178" type="curve" smooth="yes"/>
      <point x="806" y="194"/>
      <point x="804" y="208"/>
      <point x="800" y="221" type="curve"/>
      <point x="801" y="223" type="line"/>
      <point x="993" y="223" type="line"/>
      <point x="993" y="0" type="line"/>
      <point x="1067" y="0" type="line"/>
      <point x="1067" y="637" type="line"/>
      <point x="1205" y="637" type="line"/>
      <point x="1205" y="698" type="line"/>
      <point x="-20" y="698" type="line"/>
      <point x="-20" y="637" type="line"/>
      <point x="680" y="637" type="line"/>
      <point x="680" y="522" type="line"/>
      <point x="571" y="522" type="line" smooth="yes"/>
      <point x="505" y="522"/>
      <point x="465" y="501"/>
      <point x="444" y="466" type="curve"/>
      <point x="440" y="466" type="line"/>
      <point x="402" y="512"/>
      <point x="345" y="537"/>
      <point x="270" y="537" type="curve" smooth="yes" name="hr01"/>
      <point x="139" y="537"/>
      <point x="54" y="452"/>
      <point x="54" y="342" type="curve" smooth="yes"/>
      <point x="54" y="226"/>
      <point x="139" y="143"/>
      <point x="270" y="143" type="curve" smooth="yes"/>
      <point x="384" y="143"/>
      <point x="459" y="200"/>
      <point x="480" y="288" type="curve"/>
      <point x="483" y="289" type="line"/>
      <point x="510" y="272"/>
      <point x="540" y="263"/>
      <point x="588" y="263" type="curve" smooth="yes"/>
      <point x="634" y="263" type="line" smooth="yes"/>
      <point x="704" y="263"/>
      <point x="735" y="234"/>
      <point x="735" y="185" type="curve" smooth="yes"/>
      <point x="735" y="169" type="line" smooth="yes"/>
      <point x="735" y="116"/>
      <point x="698" y="82"/>
      <point x="612" y="82" type="curve" smooth="yes"/>
      <point x="597" y="82"/>
      <point x="577" y="82"/>
      <point x="556" y="84" type="curve"/>
      <point x="523" y="168" type="line"/>
      <point x="516" y="169"/>
      <point x="507" y="170"/>
      <point x="498" y="170" type="curve" smooth="yes"/>
      <point x="452" y="170"/>
      <point x="427" y="145"/>
      <point x="427" y="106" type="curve" smooth="yes"/>
      <point x="427" y="66"/>
      <point x="450" y="40"/>
      <point x="509" y="30" type="curve"/>
      <point x="522" y="-10" type="line"/>
    </contour>
    <contour>
      <point x="754" y="637" type="line"/>
      <point x="993" y="637" type="line"/>
      <point x="993" y="284" type="line" name="hr02"/>
      <point x="765" y="284" type="line"/>
      <point x="737" y="311"/>
      <point x="695" y="326"/>
      <point x="637" y="326" type="curve" smooth="yes" name="hr03"/>
      <point x="576" y="326" type="line" smooth="yes"/>
      <point x="516" y="326"/>
      <point x="492" y="351"/>
      <point x="492" y="389" type="curve" smooth="yes"/>
      <point x="492" y="400" type="line" smooth="yes"/>
      <point x="492" y="435"/>
      <point x="513" y="460"/>
      <point x="564" y="460" type="curve" smooth="yes"/>
      <point x="754" y="460" type="line"/>
    </contour>
    <contour>
      <point x="270" y="200" type="curve" smooth="yes"/>
      <point x="178" y="200"/>
      <point x="124" y="255"/>
      <point x="124" y="332" type="curve" smooth="yes"/>
      <point x="124" y="354" type="line" smooth="yes"/>
      <point x="124" y="383"/>
      <point x="134" y="409"/>
      <point x="151" y="429" type="curve"/>
      <point x="181" y="399" type="line"/>
      <point x="342" y="245" type="line"/>
      <point x="368" y="223" type="line" name="hr04"/>
      <point x="333" y="204"/>
      <point x="303" y="200"/>
    </contour>
    <contour>
      <point x="402" y="258" type="curve"/>
      <point x="379" y="282" type="line"/>
      <point x="215" y="438" type="line"/>
      <point x="187" y="461" type="line"/>
      <point x="214" y="476"/>
      <point x="240" y="480"/>
      <point x="270" y="480" type="curve" smooth="yes"/>
      <point x="368" y="480"/>
      <point x="421" y="424"/>
      <point x="421" y="354" type="curve" smooth="yes"/>
      <point x="421" y="334" type="line" smooth="yes"/>
      <point x="421" y="303"/>
      <point x="414" y="277"/>
    </contour>
    <contour>
      <point x="1067.0" y="0.0" type="move" name="bottom_deva"/>
    </contour>
    <contour>
      <point x="893.0" y="688.0" type="move" name="center_deva"/>
    </contour>
    <contour>
      <point x="1067.0" y="688.0" type="move" name="top_deva"/>
    </contour>
  </outline>
</glyph>
<glyph name="dvB_NA" format="1">
  <advance width="627"/>
  <outline>
    <contour>
      <point x="162" y="-103" type="curve" smooth="yes" name="hr00"/>
      <point x="188" y="-103"/>
      <point x="208" y="-88"/>
      <point x="215" y="-70" type="curve"/>
      <point x="171" y="-3" type="line"/>
      <point x="386" y="138" type="line" smooth="yes"/>
      <point x="407" y="152"/>
      <point x="420" y="164"/>
      <point x="431" y="177" type="curve"/>
      <point x="435" y="177" type="line"/>
      <point x="435" y="0" type="line"/>
      <point x="509" y="0" type="line"/>
      <point x="509" y="637" type="line"/>
      <point x="647" y="637" type="line"/>
      <point x="647" y="698" type="line"/>
      <point x="-20" y="698" type="line"/>
      <point x="-20" y="637" type="line"/>
      <point x="435" y="637" type="line"/>
      <point x="435" y="447" type="line"/>
      <point x="431" y="447" type="line"/>
      <point x="401" y="478"/>
      <point x="347" y="509"/>
      <point x="266" y="509" type="curve" smooth="yes"/>
      <point x="139" y="509"/>
      <point x="54" y="429"/>
      <point x="54" y="314" type="curve" smooth="yes"/>
      <point x="54" y="198"/>
      <point x="133" y="118"/>
      <point x="242" y="118" type="curve" smooth="yes"/>
      <point x="246" y="118" type="line"/>
      <point x="246" y="114" type="line"/>
      <point x="179" y="79" type="line"/>
      <point x="125" y="46" type="line" smooth="yes"/>
      <point x="94" y="27"/>
      <point x="82" y="8"/>
      <point x="82" y="-19" type="curve" smooth="yes"/>
      <point x="82" y="-57"/>
      <point x="111" y="-103"/>
    </contour>
    <contour>
      <point x="410" y="227" type="line"/>
      <point x="383" y="254" type="line"/>
      <point x="219" y="410" type="line"/>
      <point x="195" y="429" type="line"/>
      <point x="195" y="432" type="line"/>
      <point x="219" y="445"/>
      <point x="245" y="448"/>
      <point x="274" y="448" type="curve" smooth="yes"/>
      <point x="368" y="448"/>
      <point x="436" y="395"/>
      <point x="436" y="348" type="curve" smooth="yes"/>
      <point x="436" y="282" type="line" smooth="yes"/>
      <point x="436" y="262"/>
      <point x="428" y="243"/>
      <point x="413" y="227" type="curve"/>
    </contour>
    <contour>
      <point x="277" y="173" type="curve" smooth="yes"/>
      <point x="179" y="173"/>
      <point x="128" y="227"/>
      <point x="128" y="302" type="curve" smooth="yes"/>
      <point x="128" y="323" type="line" smooth="yes"/>
      <point x="128" y="353"/>
      <point x="137" y="379"/>
      <point x="155" y="400" type="curve"/>
      <point x="159" y="400" type="line"/>
      <point x="185" y="371" type="line"/>
      <point x="346" y="217" type="line"/>
      <point x="370" y="197" type="line"/>
      <point x="370" y="194" type="line"/>
      <point x="343" y="179"/>
      <point x="314" y="173"/>
    </contour>
    <contour>
      <point x="509.0" y="0.0" type="move" name="bottom_deva"/>
    </contour>
    <contour>
      <point x="295.0" y="688.0" type="move" name="center_deva"/>
    </contour>
    <contour>
      <point x="509.0" y="688.0" type="move" name="top_deva"/>
    </contour>
  </outline>
</glyph>
<glyph name="dvB_SA" format="1">
  <advance width="1071"/>
  <outline>
    <contour>
      <point x="635" y="-6" type="line" name="hr00"/>
      <point x="693" y="35" type="line"/>
      <point x="563" y="244" type="line"/>
      <point x="526" y="299" type="line"/>
      <point x="526" y="301" type="line"/>
      <point x="879" y="301" type="line"/>
      <point x="879" y="0" type="line"/>
      <point x="953" y="0" type="line"/>
      <point x="953" y="637" type="line"/>
      <point x="1091" y="637" type="line"/>
      <point x="1091" y="698" type="line"/>
      <point x="-20" y="698" type="line"/>
      <point x="-20" y="637" type="line"/>
      <point x="582" y="637" type="line"/>
      <point x="582" y="500" type="line" smooth="yes"/>
      <point x="582" y="422"/>
      <point x="541" y="377"/>
      <point x="478" y="373" type="curve"/>
      <point x="453" y="454"/>
      <point x="378" y="507"/>
      <point x="270" y="507" type="curve" smooth="yes"/>
      <point x="139" y="507"/>
      <point x="54" y="422"/>
      <point x="54" y="312" type="curve" smooth="yes"/>
      <point x="54" y="196"/>
      <point x="139" y="113"/>
      <point x="270" y="113" type="curve" smooth="yes"/>
      <point x="374" y="113"/>
      <point x="448" y="166"/>
      <point x="476" y="246" type="curve"/>
      <point x="480" y="247" type="line"/>
    </contour>
    <contour>
      <point x="590" y="364" type="line"/>
      <point x="639" y="397"/>
      <point x="656" y="439"/>
      <point x="656" y="509" type="curve" smooth="yes"/>
      <point x="656" y="637" type="line"/>
      <point x="879" y="637" type="line"/>
      <point x="879" y="364" type="line"/>
      <point x="666" y="364" type="line"/>
      <point x="590" y="361" type="line"/>
    </contour>
    <contour>
      <point x="270" y="170" type="curve" smooth="yes"/>
      <point x="178" y="170"/>
      <point x="124" y="225"/>
      <point x="124" y="302" type="curve" smooth="yes"/>
      <point x="124" y="324" type="line" smooth="yes"/>
      <point x="124" y="353"/>
      <point x="134" y="379"/>
      <point x="151" y="399" type="curve"/>
      <point x="181" y="369" type="line"/>
      <point x="342" y="215" type="line"/>
      <point x="368" y="193" type="line"/>
      <point x="333" y="174"/>
      <point x="303" y="170"/>
    </contour>
    <contour>
      <point x="402" y="228" type="curve"/>
      <point x="379" y="252" type="line"/>
      <point x="215" y="408" type="line"/>
      <point x="187" y="431" type="line"/>
      <point x="214" y="446"/>
      <point x="240" y="450"/>
      <point x="270" y="450" type="curve" smooth="yes"/>
      <point x="368" y="450"/>
      <point x="421" y="394"/>
      <point x="421" y="324" type="curve" smooth="yes"/>
      <point x="421" y="304" type="line" smooth="yes"/>
      <point x="421" y="273"/>
      <point x="414" y="247"/>
    </contour>
    <contour>
      <point x="953.0" y="0.0" type="move" name="bottom_deva"/>
    </contour>
    <contour>
      <point x="780.0" y="688.0" type="move" name="center_deva"/>
    </contour>
    <contour>
      <point x="953.0" y="688.0" type="move" name="top_deva"/>
    </contour>
  </outline>
</glyph>
<glyph name="dvB_YA" format="1">
  <advance width="1025"/>
  <outline>
    <contour>
      <point x="-20" y="637" type="line"/>
      <point x="586" y="637" type="line"/>
      <point x="586" y="523" type="line" smooth="yes"/>
      <point x="586" y="463"/>
      <point x="565" y="436"/>
      <point x="513" y="436" type="curve" smooth="yes"/>
      <point x="452" y="436" type="line"/>
      <point x="415" y="482"/>
      <point x="352" y="512"/>
      <point x="270" y="512" type="curve" smooth="yes"/>
      <point x="139" y="512"/>
      <point x="54" y="427"/>
      <point x="54" y="317" type="curve" smooth="yes"/>
      <point x="54" y="201"/>
      <point x="139" y="118"/>
      <point x="270" y="118" type="curve" smooth="yes"/>
      <point x="366" y="118"/>
      <point x="429" y="160"/>
      <point x="459" y="211" type="curve"/>
      <point x="464" y="211" type="line"/>
      <point x="502" y="165"/>
      <point x="556" y="134"/>
      <point x="643" y="134" type="curve" smooth="yes" name="hr01"/>
      <point x="735" y="134"/>
      <point x="794" y="166"/>
      <point x="829" y="219" type="curve"/>
      <point x="833" y="219" type="line"/>
      <point x="833" y="0" type="line"/>
      <point x="907" y="0" type="line"/>
      <point x="907" y="637" type="line"/>
      <point x="1045" y="637" type="line"/>
      <point x="1045" y="698" type="line"/>
      <point x="-20" y="698" type="line"/>
    </contour>
    <contour>
      <point x="648" y="203" type="curve" smooth="yes"/>
      <point x="550" y="203"/>
      <point x="490" y="241"/>
      <point x="490" y="338" type="curve" smooth="yes"/>
      <point x="490" y="376" type="line"/>
      <point x="522" y="376" type="line" smooth="yes"/>
      <point x="612" y="376"/>
      <point x="660" y="433"/>
      <point x="660" y="523" type="curve" smooth="yes"/>
      <point x="660" y="637" type="line"/>
      <point x="833" y="637" type="line"/>
      <point x="833" y="339" type="line" smooth="yes"/>
      <point x="833" y="262"/>
      <point x="764" y="203"/>
    </contour>
    <contour>
      <point x="270" y="175" type="curve" smooth="yes" name="hr02"/>
      <point x="178" y="175"/>
      <point x="124" y="230"/>
      <point x="124" y="307" type="curve" smooth="yes"/>
      <point x="124" y="329" type="line" smooth="yes"/>
      <point x="124" y="358"/>
      <point x="134" y="384"/>
      <point x="151" y="404" type="curve"/>
      <point x="181" y="374" type="line"/>
      <point x="342" y="220" type="line"/>
      <point x="368" y="198" type="line"/>
      <point x="333" y="179"/>
      <point x="303" y="175"/>
    </contour>
    <contour>
      <point x="402" y="233" type="curve"/>
      <point x="379" y="257" type="line"/>
      <point x="215" y="413" type="line"/>
      <point x="187" y="436" type="line"/>
      <point x="214" y="451"/>
      <point x="240" y="455"/>
      <point x="270" y="455" type="curve" smooth="yes"/>
      <point x="368" y="455"/>
      <point x="421" y="399"/>
      <point x="421" y="329" type="curve" smooth="yes"/>
      <point x="421" y="309" type="line" smooth="yes"/>
      <point x="421" y="278"/>
      <point x="414" y="252"/>
    </contour>
    <contour>
      <point x="907.0" y="0.0" type="move" name="bottom_deva"/>
    </contour>
    <contour>
      <point x="764.0" y="688.0" type="move" name="center_deva"/>
    </contour>
    <contour>
      <point x="907.0" y="688.0" type="move" name="top_deva"/>
    </contour>
  </outline>
</glyph>
<glyph name="dvCH_VA" format="1">
  <advance width="783"/>
  <outline>
    <contour>
      <point x="488" y="-245" type="line"/>
      <point x="549" y="-245" type="line"/>
      <point x="549" y="99" type="line"/>
      <point x="667" y="145"/>
      <point x="741" y="247"/>
      <point x="741" y="383" type="curve" smooth="yes"/>
      <point x="741" y="477"/>
      <point x="705" y="528"/>
      <point x="637" y="541" type="curve"/>
      <point x="637" y="637" type="line"/>
      <point x="803" y="637" type="line"/>
      <point x="803" y="698" type="line"/>
      <point x="-20" y="698" type="line"/>
      <point x="-20" y="637" type="line"/>
      <point x="165" y="637" type="line"/>
      <point x="165" y="633" type="line"/>
      <point x="136" y="615"/>
      <point x="112" y="580"/>
      <point x="112" y="536" type="curve" smooth="yes"/>
      <point x="112" y="479"/>
      <point x="145" y="434"/>
      <point x="210" y="410" type="curve"/>
      <point x="210" y="406" type="line"/>
      <point x="143" y="386"/>
      <point x="99" y="335"/>
      <point x="99" y="260" type="curve" smooth="yes" name="hr01"/>
      <point x="99" y="186"/>
      <point x="142" y="111"/>
      <point x="264" y="84" type="curve"/>
      <point x="264" y="80" type="line"/>
      <point x="215" y="60"/>
      <point x="185" y="20"/>
      <point x="185" y="-40" type="curve" smooth="yes"/>
      <point x="185" y="-128"/>
      <point x="241" y="-190"/>
      <point x="346" y="-190" type="curve" smooth="yes"/>
      <point x="417" y="-190"/>
      <point x="460" y="-158"/>
      <point x="483" y="-115" type="curve"/>
      <point x="488" y="-115" type="line"/>
    </contour>
    <contour>
      <point x="356" y="132" type="line" smooth="yes"/>
      <point x="226" y="132"/>
      <point x="176" y="187"/>
      <point x="176" y="262" type="curve" smooth="yes"/>
      <point x="176" y="334"/>
      <point x="219" y="377"/>
      <point x="303" y="377" type="curve" smooth="yes"/>
      <point x="370" y="377" type="line"/>
      <point x="370" y="437" type="line"/>
      <point x="302" y="437" type="line" smooth="yes"/>
      <point x="228" y="437"/>
      <point x="183" y="478"/>
      <point x="183" y="537" type="curve" smooth="yes" name="hr02"/>
      <point x="183" y="593"/>
      <point x="222" y="637"/>
      <point x="296" y="637" type="curve" smooth="yes"/>
      <point x="567" y="637" type="line"/>
      <point x="566" y="542" type="line"/>
      <point x="502" y="531"/>
      <point x="459" y="481"/>
      <point x="459" y="396" type="curve" smooth="yes"/>
      <point x="459" y="286"/>
      <point x="510" y="235"/>
      <point x="620" y="235" type="curve" smooth="yes"/>
      <point x="640" y="235" type="line"/>
      <point x="641" y="233" type="line"/>
      <point x="600" y="171"/>
      <point x="518" y="132"/>
      <point x="409" y="132" type="curve" smooth="yes"/>
    </contour>
    <contour>
      <point x="611" y="287" type="line" smooth="yes"/>
      <point x="555" y="287"/>
      <point x="525" y="315"/>
      <point x="525" y="376" type="curve" smooth="yes"/>
      <point x="525" y="409" type="line" smooth="yes"/>
      <point x="525" y="464"/>
      <point x="550" y="495"/>
      <point x="598" y="495" type="curve" smooth="yes"/>
      <point x="646" y="495"/>
      <point x="677" y="466"/>
      <point x="677" y="410" type="curve" smooth="yes"/>
      <point x="677" y="370" type="line" smooth="yes"/>
      <point x="677" y="339"/>
      <point x="674" y="313"/>
      <point x="665" y="287" type="curve"/>
    </contour>
    <contour>
      <point x="357" y="-128" type="curve" smooth="yes"/>
      <point x="287" y="-128"/>
      <point x="259" y="-95"/>
      <point x="259" y="-44" type="curve" smooth="yes"/>
      <point x="259" y="-28" type="line" smooth="yes"/>
      <point x="259" y="28"/>
      <point x="311" y="74"/>
      <point x="403" y="74" type="curve" smooth="yes"/>
      <point x="435" y="74"/>
      <point x="464" y="77"/>
      <point x="485" y="81" type="curve"/>
      <point x="489" y="77" type="line"/>
      <point x="489" y="-19" type="line"/>
      <point x="489" y="-74"/>
      <point x="439" y="-128"/>
    </contour>
    <contour>
      <point x="549.0" y="-245.0" type="move" name="bottom_deva"/>
    </contour>
    <contour>
      <point x="443.0" y="688.0" type="move" name="center_deva"/>
    </contour>
    <contour>
      <point x="637.0" y="688.0" type="move" name="top_deva"/>
    </contour>
  </outline>
</glyph>
<glyph name="dvC_CHA" format="1">
  <advance width="1168"/>
  <outline>
    <contour>
      <point x="1126" y="352" type="curve" smooth="yes"/>
      <point x="1126" y="456"/>
      <point x="1090" y="512"/>
      <point x="1022" y="527" type="curve"/>
      <point x="1022" y="637" type="line"/>
      <point x="1188" y="637" type="line"/>
      <point x="1188" y="698" type="line"/>
      <point x="-20" y="698" type="line"/>
      <point x="-20" y="637" type="line"/>
      <point x="564" y="637" type="line"/>
      <point x="564" y="633" type="line"/>
      <point x="525" y="614"/>
      <point x="497" y="572"/>
      <point x="497" y="521" type="curve" smooth="yes"/>
      <point x="497" y="459"/>
      <point x="530" y="408"/>
      <point x="595" y="383" type="curve"/>
      <point x="595" y="378" type="line"/>
      <point x="541" y="360"/>
      <point x="500" y="315"/>
      <point x="488" y="254" type="curve"/>
      <point x="451" y="200"/>
      <point x="400" y="171"/>
      <point x="333" y="171" type="curve" smooth="yes"/>
      <point x="256" y="171"/>
      <point x="208" y="215"/>
      <point x="208" y="289" type="curve" smooth="yes"/>
      <point x="208" y="368"/>
      <point x="258" y="419"/>
      <point x="326" y="419" type="curve" smooth="yes"/>
      <point x="373" y="419" type="line"/>
      <point x="373" y="479" type="line" name="hr01"/>
      <point x="34" y="479" type="line"/>
      <point x="34" y="416" type="line"/>
      <point x="135" y="416" type="line"/>
      <point x="207" y="417" type="line"/>
      <point x="207" y="413" type="line"/>
      <point x="158" y="384"/>
      <point x="135" y="334"/>
      <point x="135" y="278" type="curve" smooth="yes"/>
      <point x="135" y="179"/>
      <point x="209" y="105"/>
      <point x="333" y="105" type="curve" smooth="yes"/>
      <point x="398" y="105"/>
      <point x="453" y="126"/>
      <point x="492" y="163" type="curve"/>
      <point x="496" y="162" type="line"/>
      <point x="518" y="87"/>
      <point x="587" y="12"/>
      <point x="751" y="12" type="curve" smooth="yes"/>
      <point x="786" y="12" type="line" smooth="yes"/>
      <point x="986" y="12"/>
      <point x="1126" y="149"/>
    </contour>
    <contour>
      <point x="741" y="77" type="line" smooth="yes"/>
      <point x="617" y="77"/>
      <point x="561" y="134"/>
      <point x="561" y="219" type="curve" smooth="yes"/>
      <point x="561" y="298"/>
      <point x="604" y="346"/>
      <point x="688" y="346" type="curve" smooth="yes"/>
      <point x="755" y="346" type="line"/>
      <point x="755" y="412" type="line"/>
      <point x="687" y="412" type="line" smooth="yes"/>
      <point x="613" y="412"/>
      <point x="568" y="457"/>
      <point x="568" y="522" type="curve" smooth="yes"/>
      <point x="568" y="584"/>
      <point x="606" y="637"/>
      <point x="681" y="637" type="curve" smooth="yes"/>
      <point x="948" y="637" type="line"/>
      <point x="948" y="527" type="line" name="hr02"/>
      <point x="886" y="513"/>
      <point x="844" y="458"/>
      <point x="844" y="367" type="curve" smooth="yes"/>
      <point x="844" y="246"/>
      <point x="904" y="190"/>
      <point x="1005" y="190" type="curve" smooth="yes"/>
      <point x="1021" y="190" type="line"/>
      <point x="1021" y="186" type="line"/>
      <point x="978" y="122"/>
      <point x="897" y="77"/>
      <point x="794" y="77" type="curve" smooth="yes"/>
    </contour>
    <contour>
      <point x="996" y="246" type="line" smooth="yes"/>
      <point x="940" y="246"/>
      <point x="910" y="276"/>
      <point x="910" y="346" type="curve" smooth="yes"/>
      <point x="910" y="382" type="line" smooth="yes"/>
      <point x="910" y="441"/>
      <point x="935" y="475"/>
      <point x="983" y="475" type="curve" smooth="yes"/>
      <point x="1031" y="475"/>
      <point x="1062" y="445"/>
      <point x="1062" y="382" type="curve" smooth="yes"/>
      <point x="1062" y="339" type="line" smooth="yes"/>
      <point x="1062" y="305"/>
      <point x="1057" y="274"/>
      <point x="1048" y="246" type="curve"/>
    </contour>
    <contour>
      <point x="838.0" y="14.0" type="move" name="bottom_deva"/>
    </contour>
    <contour>
      <point x="806.0" y="688.0" type="move" name="center_deva"/>
    </contour>
    <contour>
      <point x="1022.0" y="688.0" type="move" name="top_deva"/>
    </contour>
  </outline>
</glyph>
<glyph name="dvCandrabindu.small" format="1">
  <advance width="0"/>
  <outline>
    <contour>
      <point x="-156" y="908" type="curve" smooth="yes" name="hr00"/>
      <point x="-129" y="908"/>
      <point x="-116" y="922"/>
      <point x="-116" y="945" type="curve" smooth="yes"/>
      <point x="-116" y="957" type="line" smooth="yes"/>
      <point x="-116" y="980"/>
      <point x="-129" y="994"/>
      <point x="-156" y="994" type="curve" smooth="yes"/>
      <point x="-183" y="994"/>
      <point x="-196" y="980"/>
      <point x="-196" y="957" type="curve" smooth="yes"/>
      <point x="-196" y="945" type="line" smooth="yes"/>
      <point x="-196" y="922"/>
      <point x="-183" y="908"/>
    </contour>
    <contour>
      <point x="-156" y="780" type="curve"/>
      <point x="-79" y="780"/>
      <point x="-31" y="822"/>
      <point x="-1" y="900" type="curve"/>
      <point x="-53" y="919" type="line"/>
      <point x="-81" y="851"/>
      <point x="-113" y="837"/>
      <point x="-156" y="837" type="curve"/>
      <point x="-199" y="837"/>
      <point x="-231" y="851"/>
      <point x="-259" y="919" type="curve"/>
      <point x="-311" y="900" type="line"/>
      <point x="-281" y="822"/>
      <point x="-233" y="780"/>
    </contour>
    <contour>
      <point x="-195.0" y="688.0" type="move" name="_top_deva"/>
    </contour>
  </outline>
</glyph>
<glyph name="dvCandrabindu.smallalt" format="1">
  <advance width="0"/>
  <outline>
    <contour>
      <point x="-14" y="935" type="curve" smooth="yes" name="hr00"/>
      <point x="13" y="935"/>
      <point x="26" y="949"/>
      <point x="26" y="972" type="curve" smooth="yes"/>
      <point x="26" y="984" type="line" smooth="yes"/>
      <point x="26" y="1007"/>
      <point x="13" y="1021"/>
      <point x="-14" y="1021" type="curve" smooth="yes"/>
      <point x="-41" y="1021"/>
      <point x="-54" y="1007"/>
      <point x="-54" y="984" type="curve" smooth="yes"/>
      <point x="-54" y="972" type="line" smooth="yes"/>
      <point x="-54" y="949"/>
      <point x="-41" y="935"/>
    </contour>
    <contour>
      <point x="-14" y="807" type="curve"/>
      <point x="63" y="807"/>
      <point x="111" y="849"/>
      <point x="141" y="927" type="curve"/>
      <point x="89" y="946" type="line"/>
      <point x="61" y="878"/>
      <point x="29" y="864"/>
      <point x="-14" y="864" type="curve"/>
      <point x="-57" y="864"/>
      <point x="-89" y="878"/>
      <point x="-117" y="946" type="curve"/>
      <point x="-169" y="927" type="line"/>
      <point x="-139" y="849"/>
      <point x="-91" y="807"/>
    </contour>
    <contour>
      <point x="-195.0" y="688.0" type="move" name="_top_deva"/>
    </contour>
  </outline>
</glyph>
<glyph name="dvDDHxA.mU" format="1">
  <advance width="572"/>
  <outline>
    <component base="dvDDHA"/>
    <component base="dvNukta" xOffset="-30" yOffset="-56"/>
    <contour>
      <point x="384.0" y="19.0" type="move" name="bottom_deva"/>
    </contour>
    <contour>
      <point x="336.0" y="688.0" type="move" name="center_deva"/>
    </contour>
    <contour>
      <point x="463.0" y="688.0" type="move" name="top_deva"/>
    </contour>
  </outline>
</glyph>
<glyph name="dvDD_SA" format="1">
  <advance width="584"/>
  <outline>
    <contour>
      <point x="213" y="-291" type="line"/>
      <point x="270" y="-256" type="line"/>
      <point x="194" y="-145" type="line"/>
      <point x="159" y="-95" type="line"/>
      <point x="159" y="-92" type="line"/>
      <point x="408" y="-92" type="line"/>
      <point x="408" y="-271" type="line"/>
      <point x="475" y="-271" type="line"/>
      <point x="475" y="141" type="line"/>
      <point x="507" y="166"/>
      <point x="520" y="202"/>
      <point x="520" y="241" type="curve" smooth="yes" name="hr01"/>
      <point x="520" y="314"/>
      <point x="467" y="365"/>
      <point x="360" y="365" type="curve" smooth="yes"/>
      <point x="286" y="365" type="line" smooth="yes"/>
      <point x="240" y="365"/>
      <point x="217" y="383"/>
      <point x="217" y="415" type="curve" smooth="yes"/>
      <point x="217" y="443"/>
      <point x="236" y="463"/>
      <point x="285" y="463" type="curve" smooth="yes"/>
      <point x="472" y="463" type="line" name="hr02"/>
      <point x="472" y="637" type="line"/>
      <point x="604" y="637" type="line"/>
      <point x="604" y="698" type="line"/>
      <point x="-20" y="698" type="line"/>
      <point x="-20" y="637" type="line"/>
      <point x="398" y="637" type="line"/>
      <point x="398" y="524" type="line"/>
      <point x="283" y="524" type="line" smooth="yes"/>
      <point x="190" y="524"/>
      <point x="146" y="478"/>
      <point x="146" y="413" type="curve" smooth="yes"/>
      <point x="146" y="351"/>
      <point x="194" y="302"/>
      <point x="293" y="302" type="curve" smooth="yes"/>
      <point x="362" y="302" type="line" smooth="yes"/>
      <point x="417" y="302"/>
      <point x="449" y="283"/>
      <point x="449" y="241" type="curve" smooth="yes" name="hr03"/>
      <point x="449" y="196"/>
      <point x="416" y="171"/>
      <point x="332" y="171" type="curve" smooth="yes"/>
      <point x="240" y="171"/>
      <point x="184" y="199"/>
      <point x="119" y="253" type="curve"/>
      <point x="87" y="193" type="line"/>
      <point x="112" y="172"/>
      <point x="140" y="154"/>
      <point x="170" y="139" type="curve"/>
      <point x="170" y="47" type="line" smooth="yes"/>
      <point x="170" y="-4"/>
      <point x="143" y="-33"/>
      <point x="93" y="-33" type="curve" smooth="yes"/>
      <point x="79" y="-33" type="line"/>
      <point x="79" y="-93" type="line"/>
    </contour>
    <contour>
      <point x="206" y="-30" type="line"/>
      <point x="228" y="-14"/>
      <point x="242" y="7"/>
      <point x="242" y="45" type="curve" smooth="yes"/>
      <point x="242" y="112" type="line"/>
      <point x="244" y="115" type="line"/>
      <point x="273" y="108"/>
      <point x="302" y="104"/>
      <point x="336" y="104" type="curve" smooth="yes"/>
      <point x="364" y="104"/>
      <point x="385" y="107"/>
      <point x="406" y="112" type="curve"/>
      <point x="408" y="109" type="line" name="hr04"/>
      <point x="408" y="-31" type="line"/>
      <point x="252" y="-31" type="line"/>
      <point x="206" y="-32" type="line"/>
    </contour>
    <contour>
      <point x="478.0" y="-271.0" type="move" name="bottom_deva"/>
    </contour>
    <contour>
      <point x="348.0" y="688.0" type="move" name="center_deva"/>
    </contour>
    <contour>
      <point x="472.0" y="688.0" type="move" name="top_deva"/>
    </contour>
  </outline>
</glyph>
<glyph name="dvDH_MA" format="1">
  <advance width="1039"/>
  <outline>
    <contour>
      <point x="299" y="110" type="curve" smooth="yes"/>
      <point x="396" y="110"/>
      <point x="477" y="153"/>
      <point x="533" y="226" type="curve"/>
      <point x="542" y="223"/>
      <point x="552" y="221"/>
      <point x="565" y="221" type="curve" smooth="yes"/>
      <point x="582" y="221"/>
      <point x="597" y="224"/>
      <point x="607" y="229" type="curve"/>
      <point x="607" y="312" type="line"/>
      <point x="847" y="312" type="line"/>
      <point x="847" y="0" type="line"/>
      <point x="921" y="0" type="line"/>
      <point x="921" y="637" type="line"/>
      <point x="1059" y="637" type="line"/>
      <point x="1059" y="698" type="line"/>
      <point x="433" y="698" type="line"/>
      <point x="433" y="637" type="line"/>
      <point x="533" y="637" type="line"/>
      <point x="533" y="370" type="line"/>
      <point x="503" y="360"/>
      <point x="487" y="335"/>
      <point x="487" y="298" type="curve" smooth="yes"/>
      <point x="487" y="290"/>
      <point x="488" y="281"/>
      <point x="490" y="274" type="curve"/>
      <point x="442" y="212"/>
      <point x="381" y="176"/>
      <point x="301" y="176" type="curve" smooth="yes"/>
      <point x="213" y="176"/>
      <point x="174" y="218"/>
      <point x="174" y="278" type="curve" smooth="yes"/>
      <point x="174" y="341"/>
      <point x="214" y="386"/>
      <point x="297" y="386" type="curve" smooth="yes"/>
      <point x="366" y="386" type="line"/>
      <point x="366" y="450" type="line"/>
      <point x="294" y="450" type="line" smooth="yes"/>
      <point x="201" y="450"/>
      <point x="151" y="494"/>
      <point x="151" y="555" type="curve" smooth="yes" name="hr01"/>
      <point x="151" y="607"/>
      <point x="185" y="640"/>
      <point x="241" y="640" type="curve" smooth="yes"/>
      <point x="271" y="640"/>
      <point x="296" y="631"/>
      <point x="322" y="616" type="curve"/>
      <point x="345" y="668" type="line"/>
      <point x="323" y="684"/>
      <point x="282" y="701"/>
      <point x="235" y="701" type="curve" smooth="yes"/>
      <point x="126" y="701"/>
      <point x="77" y="635"/>
      <point x="77" y="562" type="curve" smooth="yes"/>
      <point x="77" y="484"/>
      <point x="130" y="433"/>
      <point x="204" y="419" type="curve"/>
      <point x="204" y="413" type="line"/>
      <point x="139" y="397"/>
      <point x="96" y="345"/>
      <point x="96" y="273" type="curve" smooth="yes" name="hr02"/>
      <point x="96" y="184"/>
      <point x="164" y="110"/>
    </contour>
    <contour>
      <point x="847" y="637" type="line"/>
      <point x="847" y="375" type="line"/>
      <point x="607" y="375" type="line"/>
      <point x="607" y="637" type="line"/>
    </contour>
    <contour>
      <point x="921.0" y="0.0" type="move" name="bottom_deva"/>
    </contour>
    <contour>
      <point x="735.0" y="688.0" type="move" name="center_deva"/>
    </contour>
    <contour>
      <point x="921.0" y="688.0" type="move" name="top_deva"/>
    </contour>
  </outline>
</glyph>
<glyph name="dvD_G_RA" format="1">
  <advance width="577"/>
  <outline>
    <contour>
      <point x="356" y="-225" type="line" name="hr00"/>
      <point x="437" y="-109" type="line"/>
      <point x="455" y="-81" type="line"/>
      <point x="458" y="-81" type="line"/>
      <point x="495" y="-184" type="line"/>
      <point x="554" y="-163" type="line"/>
      <point x="476" y="53" type="line"/>
      <point x="460" y="92" type="line"/>
      <point x="491" y="108"/>
      <point x="503" y="128"/>
      <point x="503" y="156" type="curve" smooth="yes"/>
      <point x="503" y="200"/>
      <point x="478" y="231"/>
      <point x="428" y="231" type="curve" smooth="yes"/>
      <point x="400" y="231"/>
      <point x="375" y="221"/>
      <point x="357" y="209" type="curve"/>
      <point x="381" y="134" type="line"/>
      <point x="366" y="131"/>
      <point x="347" y="128"/>
      <point x="323" y="128" type="curve" smooth="yes"/>
      <point x="205" y="128"/>
      <point x="147" y="186"/>
      <point x="147" y="271" type="curve" smooth="yes"/>
      <point x="147" y="296" type="line" smooth="yes"/>
      <point x="147" y="374"/>
      <point x="194" y="434"/>
      <point x="311" y="434" type="curve" smooth="yes"/>
      <point x="466" y="434" type="line"/>
      <point x="466" y="637" type="line"/>
      <point x="597" y="637" type="line"/>
      <point x="597" y="698" type="line"/>
      <point x="-20" y="698" type="line"/>
      <point x="-20" y="637" type="line"/>
      <point x="392" y="637" type="line"/>
      <point x="392" y="497" type="line"/>
      <point x="316" y="497" type="line" smooth="yes"/>
      <point x="156" y="497"/>
      <point x="68" y="416"/>
      <point x="68" y="286" type="curve" smooth="yes"/>
      <point x="68" y="203"/>
      <point x="106" y="140"/>
      <point x="169" y="103" type="curve"/>
      <point x="203" y="-11" type="line"/>
      <point x="174" y="-20"/>
      <point x="162" y="-38"/>
      <point x="162" y="-64" type="curve" smooth="yes"/>
      <point x="162" y="-96"/>
      <point x="186" y="-123"/>
      <point x="223" y="-123" type="curve" smooth="yes"/>
      <point x="252" y="-123"/>
      <point x="281" y="-111"/>
      <point x="293" y="-100" type="curve"/>
      <point x="243" y="71" type="line"/>
      <point x="245" y="75" type="line"/>
      <point x="268" y="70"/>
      <point x="292" y="67"/>
      <point x="319" y="67" type="curve" smooth="yes"/>
      <point x="350" y="67"/>
      <point x="378" y="70"/>
      <point x="404" y="76" type="curve"/>
      <point x="417" y="36" type="line"/>
      <point x="435" y="-15" type="line"/>
      <point x="301" y="-187" type="line"/>
    </contour>
    <contour>
      <point x="554.0" y="-168.0" type="move" name="bottom_deva"/>
    </contour>
    <contour>
      <point x="313.0" y="688.0" type="move" name="center_deva"/>
    </contour>
    <contour>
      <point x="466.0" y="688.0" type="move" name="top_deva"/>
    </contour>
  </outline>
</glyph>
<glyph name="dvD_MA" format="1">
  <advance width="779"/>
  <outline>
    <contour>
      <point x="365" y="49" type="curve" smooth="yes"/>
      <point x="378" y="49"/>
      <point x="391" y="51"/>
      <point x="402" y="56" type="curve"/>
      <point x="402" y="139" type="line"/>
      <point x="587" y="139" type="line"/>
      <point x="587" y="0" type="line"/>
      <point x="661" y="0" type="line"/>
      <point x="661" y="637" type="line"/>
      <point x="799" y="637" type="line"/>
      <point x="799" y="698" type="line"/>
      <point x="-20" y="698" type="line"/>
      <point x="-20" y="637" type="line"/>
      <point x="307" y="637" type="line" name="hr01"/>
      <point x="307" y="520" type="line"/>
      <point x="195" y="520" type="line" smooth="yes"/>
      <point x="110" y="520"/>
      <point x="58" y="471"/>
      <point x="58" y="397" type="curve" smooth="yes"/>
      <point x="58" y="312"/>
      <point x="119" y="265"/>
      <point x="208" y="265" type="curve" smooth="yes"/>
      <point x="248" y="265" type="line" smooth="yes"/>
      <point x="296" y="265"/>
      <point x="328" y="244"/>
      <point x="330" y="195" type="curve" name="hr02"/>
      <point x="302" y="183"/>
      <point x="288" y="160"/>
      <point x="288" y="124" type="curve" smooth="yes"/>
      <point x="288" y="77"/>
      <point x="311" y="49"/>
    </contour>
    <contour>
      <point x="381" y="637" type="line" name="hr03"/>
      <point x="587" y="637" type="line"/>
      <point x="587" y="203" type="line"/>
      <point x="400" y="203" type="line"/>
      <point x="392" y="283"/>
      <point x="339" y="328"/>
      <point x="249" y="328" type="curve" smooth="yes"/>
      <point x="199" y="328" type="line" smooth="yes"/>
      <point x="158" y="328"/>
      <point x="128" y="352"/>
      <point x="128" y="388" type="curve" smooth="yes"/>
      <point x="128" y="403" type="line" smooth="yes"/>
      <point x="128" y="436"/>
      <point x="153" y="459"/>
      <point x="196" y="459" type="curve" smooth="yes"/>
      <point x="381" y="459" type="line"/>
    </contour>
    <contour>
      <point x="661.0" y="0.0" type="move" name="bottom_deva"/>
    </contour>
    <contour>
      <point x="474.0" y="688.0" type="move" name="center_deva"/>
    </contour>
    <contour>
      <point x="661.0" y="688.0" type="move" name="top_deva"/>
    </contour>
  </outline>
</glyph>
<glyph name="dvD_R_YA" format="1">
  <advance width="803"/>
  <outline>
    <contour>
      <point x="611" y="0" type="line"/>
      <point x="685" y="0" type="line"/>
      <point x="685" y="637" type="line"/>
      <point x="823" y="637" type="line"/>
      <point x="823" y="698" type="line"/>
      <point x="-20" y="698" type="line"/>
      <point x="-20" y="637" type="line"/>
      <point x="377" y="637" type="line"/>
      <point x="377" y="558" type="line"/>
      <point x="328" y="558" type="line" smooth="yes"/>
      <point x="210" y="558"/>
      <point x="153" y="514"/>
      <point x="153" y="432" type="curve" smooth="yes"/>
      <point x="153" y="380"/>
      <point x="184" y="344"/>
      <point x="234" y="321" type="curve"/>
      <point x="234" y="318" type="line"/>
      <point x="0" y="186" type="line"/>
      <point x="37" y="126" type="line"/>
      <point x="116" y="174" type="line"/>
      <point x="158" y="204" type="line"/>
      <point x="161" y="202" type="line"/>
      <point x="160" y="195"/>
      <point x="160" y="193"/>
      <point x="160" y="190" type="curve" smooth="yes" name="hr01"/>
      <point x="160" y="100"/>
      <point x="224" y="37"/>
      <point x="364" y="37" type="curve" smooth="yes"/>
      <point x="474" y="37"/>
      <point x="555" y="75"/>
      <point x="607" y="155" type="curve"/>
      <point x="611" y="155" type="line"/>
    </contour>
    <contour>
      <point x="366" y="102" type="curve" smooth="yes"/>
      <point x="266" y="102"/>
      <point x="231" y="144"/>
      <point x="231" y="187" type="curve" smooth="yes"/>
      <point x="231" y="206" type="line" smooth="yes"/>
      <point x="231" y="249"/>
      <point x="266" y="291"/>
      <point x="366" y="291" type="curve" smooth="yes"/>
      <point x="447" y="291" type="line"/>
      <point x="447" y="354" type="line"/>
      <point x="332" y="354" type="line" smooth="yes"/>
      <point x="262" y="354"/>
      <point x="229" y="384"/>
      <point x="229" y="424" type="curve" smooth="yes" name="hr02"/>
      <point x="229" y="433" type="line" smooth="yes"/>
      <point x="229" y="471"/>
      <point x="255" y="497"/>
      <point x="329" y="497" type="curve" smooth="yes"/>
      <point x="451" y="497" type="line"/>
      <point x="451" y="637" type="line"/>
      <point x="611" y="637" type="line"/>
      <point x="611" y="315" type="line" smooth="yes"/>
      <point x="611" y="181"/>
      <point x="492" y="102"/>
    </contour>
    <contour>
      <point x="685.0" y="0.0" type="move" name="bottom_deva"/>
    </contour>
    <contour>
      <point x="542.0" y="688.0" type="move" name="center_deva"/>
    </contour>
    <contour>
      <point x="685.0" y="688.0" type="move" name="top_deva"/>
    </contour>
  </outline>
</glyph>
<glyph name="dvD_YA" format="1">
  <advance width="738"/>
  <outline>
    <contour>
      <point x="546" y="0" type="line"/>
      <point x="620" y="0" type="line"/>
      <point x="620" y="637" type="line"/>
      <point x="758" y="637" type="line"/>
      <point x="758" y="698" type="line"/>
      <point x="-20" y="698" type="line"/>
      <point x="-20" y="637" type="line"/>
      <point x="312" y="637" type="line"/>
      <point x="312" y="558" type="line"/>
      <point x="263" y="558" type="line" smooth="yes"/>
      <point x="145" y="558"/>
      <point x="88" y="514"/>
      <point x="88" y="432" type="curve" smooth="yes"/>
      <point x="88" y="380"/>
      <point x="119" y="344"/>
      <point x="167" y="322" type="curve"/>
      <point x="167" y="318" type="line"/>
      <point x="121" y="295"/>
      <point x="87" y="254"/>
      <point x="87" y="198" type="curve" smooth="yes" name="hr01"/>
      <point x="87" y="106"/>
      <point x="155" y="37"/>
      <point x="299" y="37" type="curve" smooth="yes"/>
      <point x="409" y="37"/>
      <point x="490" y="75"/>
      <point x="542" y="155" type="curve"/>
      <point x="546" y="155" type="line"/>
    </contour>
    <contour>
      <point x="386" y="637" type="line"/>
      <point x="546" y="637" type="line"/>
      <point x="546" y="315" type="line" smooth="yes"/>
      <point x="546" y="181"/>
      <point x="427" y="102"/>
      <point x="301" y="102" type="curve" smooth="yes"/>
      <point x="201" y="102"/>
      <point x="166" y="144"/>
      <point x="166" y="187" type="curve" smooth="yes"/>
      <point x="166" y="206" type="line" smooth="yes"/>
      <point x="166" y="249"/>
      <point x="201" y="291"/>
      <point x="301" y="291" type="curve" smooth="yes"/>
      <point x="382" y="291" type="line"/>
      <point x="382" y="354" type="line"/>
      <point x="267" y="354" type="line" smooth="yes"/>
      <point x="197" y="354"/>
      <point x="164" y="384"/>
      <point x="164" y="424" type="curve" smooth="yes" name="hr02"/>
      <point x="164" y="433" type="line" smooth="yes"/>
      <point x="164" y="471"/>
      <point x="190" y="497"/>
      <point x="264" y="497" type="curve" smooth="yes"/>
      <point x="386" y="497" type="line"/>
    </contour>
    <contour>
      <point x="620.0" y="0.0" type="move" name="bottom_deva"/>
    </contour>
    <contour>
      <point x="477.0" y="688.0" type="move" name="center_deva"/>
    </contour>
    <contour>
      <point x="620.0" y="688.0" type="move" name="top_deva"/>
    </contour>
  </outline>
</glyph>
<glyph name="dvEyelash" format="1">
  <advance width="234"/>
  <outline>
    <contour>
      <point x="-20" y="637" type="line"/>
      <point x="256" y="637" type="line"/>
      <point x="256" y="698" type="line"/>
      <point x="-20" y="698" type="line"/>
    </contour>
    <contour>
      <point x="192" y="266" type="curve" smooth="yes"/>
      <point x="265" y="266"/>
      <point x="317" y="282"/>
      <point x="357" y="308" type="curve" name="hr01"/>
      <point x="336" y="369" type="line"/>
      <point x="294" y="343"/>
      <point x="246" y="330"/>
      <point x="192" y="330" type="curve" smooth="yes"/>
      <point x="132" y="330"/>
      <point x="85" y="346"/>
      <point x="32" y="376" type="curve"/>
      <point x="12" y="320" type="line"/>
      <point x="62" y="288"/>
      <point x="122" y="266"/>
    </contour>
  </outline>
</glyph>
<glyph name="dvGH_MA" format="1">
  <advance width="1037"/>
  <outline>
    <contour>
      <point x="313" y="115" type="curve" smooth="yes" name="hr00"/>
      <point x="412" y="115"/>
      <point x="486" y="152"/>
      <point x="542" y="223" type="curve"/>
      <point x="549" y="222"/>
      <point x="557" y="221"/>
      <point x="563" y="221" type="curve" smooth="yes"/>
      <point x="580" y="221"/>
      <point x="595" y="224"/>
      <point x="605" y="229" type="curve"/>
      <point x="605" y="312" type="line"/>
      <point x="845" y="312" type="line"/>
      <point x="845" y="0" type="line"/>
      <point x="919" y="0" type="line"/>
      <point x="919" y="637" type="line"/>
      <point x="1057" y="637" type="line"/>
      <point x="1057" y="698" type="line"/>
      <point x="-20" y="698" type="line"/>
      <point x="-20" y="637" type="line"/>
      <point x="130" y="637" type="line"/>
      <point x="130" y="633" type="line"/>
      <point x="106" y="619"/>
      <point x="90" y="585"/>
      <point x="90" y="550" type="curve" smooth="yes"/>
      <point x="90" y="489"/>
      <point x="138" y="439"/>
      <point x="214" y="425" type="curve"/>
      <point x="214" y="419" type="line"/>
      <point x="150" y="402"/>
      <point x="106" y="349"/>
      <point x="106" y="279" type="curve" smooth="yes"/>
      <point x="106" y="188"/>
      <point x="177" y="115"/>
    </contour>
    <contour>
      <point x="485" y="298" type="curve" smooth="yes"/>
      <point x="485" y="287"/>
      <point x="487" y="275"/>
      <point x="491" y="265" type="curve"/>
      <point x="445" y="211"/>
      <point x="389" y="181"/>
      <point x="316" y="181" type="curve" smooth="yes"/>
      <point x="229" y="181"/>
      <point x="184" y="224"/>
      <point x="184" y="283" type="curve" smooth="yes"/>
      <point x="184" y="347"/>
      <point x="225" y="391"/>
      <point x="308" y="391" type="curve" smooth="yes"/>
      <point x="383" y="391" type="line"/>
      <point x="383" y="455" type="line"/>
      <point x="305" y="455" type="line" smooth="yes"/>
      <point x="211" y="455"/>
      <point x="165" y="497"/>
      <point x="165" y="550" type="curve" smooth="yes"/>
      <point x="165" y="601"/>
      <point x="195" y="637"/>
      <point x="252" y="637" type="curve" smooth="yes"/>
      <point x="531" y="637" type="line"/>
      <point x="531" y="370" type="line"/>
      <point x="501" y="360"/>
      <point x="485" y="335"/>
    </contour>
    <contour>
      <point x="845" y="637" type="line"/>
      <point x="845" y="375" type="line"/>
      <point x="605" y="375" type="line"/>
      <point x="605" y="637" type="line"/>
    </contour>
    <contour>
      <point x="919.0" y="0.0" type="move" name="bottom_deva"/>
    </contour>
    <contour>
      <point x="733.0" y="688.0" type="move" name="center_deva"/>
    </contour>
    <contour>
      <point x="919.0" y="688.0" type="move" name="top_deva"/>
    </contour>
  </outline>
</glyph>
<glyph name="dvGH_RA" format="1">
  <advance width="704"/>
  <outline>
    <contour>
      <point x="130" y="-52" type="line"/>
      <point x="446" y="148" type="line" smooth="yes"/>
      <point x="474" y="166"/>
      <point x="493" y="183"/>
      <point x="508" y="203" type="curve"/>
      <point x="512" y="203" type="line"/>
      <point x="512" y="0" type="line"/>
      <point x="586" y="0" type="line"/>
      <point x="586" y="637" type="line"/>
      <point x="724" y="637" type="line"/>
      <point x="724" y="698" type="line"/>
      <point x="-20" y="698" type="line"/>
      <point x="-20" y="637" type="line"/>
      <point x="130" y="637" type="line"/>
      <point x="130" y="633" type="line"/>
      <point x="106" y="619"/>
      <point x="90" y="585"/>
      <point x="90" y="550" type="curve" smooth="yes"/>
      <point x="90" y="489"/>
      <point x="138" y="439"/>
      <point x="214" y="425" type="curve"/>
      <point x="214" y="419" type="line"/>
      <point x="150" y="402"/>
      <point x="106" y="347"/>
      <point x="106" y="274" type="curve" smooth="yes" name="hr01"/>
      <point x="106" y="186"/>
      <point x="173" y="123"/>
      <point x="276" y="123" type="curve" smooth="yes"/>
      <point x="285" y="123" type="line"/>
      <point x="285" y="118" type="line"/>
      <point x="188" y="70" type="line"/>
      <point x="88" y="9" type="line"/>
    </contour>
    <contour>
      <point x="316" y="181" type="curve" smooth="yes"/>
      <point x="229" y="181"/>
      <point x="184" y="224"/>
      <point x="184" y="283" type="curve" smooth="yes"/>
      <point x="184" y="347"/>
      <point x="225" y="391"/>
      <point x="308" y="391" type="curve" smooth="yes"/>
      <point x="383" y="391" type="line"/>
      <point x="383" y="455" type="line"/>
      <point x="305" y="455" type="line" smooth="yes"/>
      <point x="211" y="455"/>
      <point x="165" y="497"/>
      <point x="165" y="550" type="curve" smooth="yes" name="hr02"/>
      <point x="165" y="601"/>
      <point x="195" y="637"/>
      <point x="252" y="637" type="curve" smooth="yes"/>
      <point x="512" y="637" type="line"/>
      <point x="512" y="340" type="line" smooth="yes"/>
      <point x="512" y="249"/>
      <point x="435" y="181"/>
    </contour>
    <contour>
      <point x="586.0" y="0.0" type="move" name="bottom_deva"/>
    </contour>
    <contour>
      <point x="367.0" y="688.0" type="move" name="center_deva"/>
    </contour>
    <contour>
      <point x="586.0" y="688.0" type="move" name="top_deva"/>
    </contour>
  </outline>
</glyph>
<glyph name="dvGH_R" format="1">
  <advance width="438"/>
  <outline>
    <contour>
      <point x="140" y="-52" type="line"/>
      <point x="457" y="148" type="line" smooth="yes"/>
      <point x="514" y="184"/>
      <point x="553" y="228"/>
      <point x="588" y="295" type="curve"/>
      <point x="548" y="351" type="line"/>
      <point x="493" y="241"/>
      <point x="423" y="181"/>
      <point x="316" y="181" type="curve" smooth="yes"/>
      <point x="229" y="181"/>
      <point x="184" y="224"/>
      <point x="184" y="283" type="curve" smooth="yes"/>
      <point x="184" y="347"/>
      <point x="225" y="391"/>
      <point x="308" y="391" type="curve" smooth="yes"/>
      <point x="383" y="391" type="line"/>
      <point x="383" y="455" type="line"/>
      <point x="305" y="455" type="line" smooth="yes"/>
      <point x="211" y="455"/>
      <point x="165" y="497"/>
      <point x="165" y="550" type="curve" smooth="yes" name="hr01"/>
      <point x="165" y="601"/>
      <point x="195" y="637"/>
      <point x="252" y="637" type="curve" smooth="yes"/>
      <point x="471" y="637" type="line"/>
      <point x="471" y="698" type="line"/>
      <point x="-20" y="698" type="line"/>
      <point x="-20" y="637" type="line"/>
      <point x="130" y="637" type="line"/>
      <point x="130" y="633" type="line"/>
      <point x="106" y="619"/>
      <point x="90" y="585"/>
      <point x="90" y="550" type="curve" smooth="yes"/>
      <point x="90" y="489"/>
      <point x="138" y="439"/>
      <point x="214" y="425" type="curve"/>
      <point x="214" y="419" type="line"/>
      <point x="150" y="402"/>
      <point x="106" y="349"/>
      <point x="106" y="279" type="curve" smooth="yes" name="hr02"/>
      <point x="106" y="196"/>
      <point x="165" y="124"/>
      <point x="274" y="124" type="curve" smooth="yes"/>
      <point x="288" y="124" type="line"/>
      <point x="288" y="117" type="line"/>
      <point x="199" y="71" type="line"/>
      <point x="98" y="9" type="line"/>
    </contour>
  </outline>
</glyph>
<glyph name="dvGH_YA" format="1">
  <advance width="1114"/>
  <outline>
    <contour>
      <point x="922" y="0" type="line"/>
      <point x="996" y="0" type="line"/>
      <point x="996" y="637" type="line"/>
      <point x="1134" y="637" type="line"/>
      <point x="1134" y="698" type="line"/>
      <point x="-20" y="698" type="line"/>
      <point x="-20" y="637" type="line"/>
      <point x="130" y="637" type="line"/>
      <point x="130" y="633" type="line"/>
      <point x="106" y="619"/>
      <point x="90" y="585"/>
      <point x="90" y="550" type="curve" smooth="yes"/>
      <point x="90" y="489"/>
      <point x="138" y="439"/>
      <point x="214" y="425" type="curve"/>
      <point x="214" y="419" type="line"/>
      <point x="150" y="402"/>
      <point x="106" y="349"/>
      <point x="106" y="279" type="curve" smooth="yes" name="hr01"/>
      <point x="106" y="188"/>
      <point x="177" y="115"/>
      <point x="313" y="115" type="curve" smooth="yes"/>
      <point x="417" y="115"/>
      <point x="486" y="154"/>
      <point x="539" y="223" type="curve"/>
      <point x="543" y="223" type="line"/>
      <point x="582" y="166"/>
      <point x="646" y="134"/>
      <point x="732" y="134" type="curve" smooth="yes" name="hr02"/>
      <point x="824" y="134"/>
      <point x="883" y="166"/>
      <point x="918" y="219" type="curve"/>
      <point x="922" y="219" type="line"/>
    </contour>
    <contour>
      <point x="316" y="181" type="curve" smooth="yes" name="hr03"/>
      <point x="229" y="181"/>
      <point x="184" y="224"/>
      <point x="184" y="283" type="curve" smooth="yes"/>
      <point x="184" y="347"/>
      <point x="225" y="391"/>
      <point x="308" y="391" type="curve" smooth="yes"/>
      <point x="383" y="391" type="line"/>
      <point x="383" y="455" type="line"/>
      <point x="305" y="455" type="line" smooth="yes"/>
      <point x="211" y="455"/>
      <point x="165" y="497"/>
      <point x="165" y="550" type="curve" smooth="yes" name="hr04"/>
      <point x="165" y="601"/>
      <point x="195" y="637"/>
      <point x="252" y="637" type="curve" smooth="yes"/>
      <point x="675" y="637" type="line"/>
      <point x="675" y="523" type="line" smooth="yes"/>
      <point x="675" y="463"/>
      <point x="654" y="436"/>
      <point x="602" y="436" type="curve" smooth="yes"/>
      <point x="505" y="436" type="line"/>
      <point x="505" y="359" type="line" smooth="yes"/>
      <point x="505" y="335"/>
      <point x="508" y="312"/>
      <point x="513" y="291" type="curve"/>
      <point x="464" y="221"/>
      <point x="405" y="181"/>
    </contour>
    <contour>
      <point x="737" y="203" type="curve" smooth="yes" name="hr05"/>
      <point x="639" y="203"/>
      <point x="579" y="241"/>
      <point x="579" y="338" type="curve" smooth="yes"/>
      <point x="579" y="376" type="line"/>
      <point x="611" y="376" type="line" smooth="yes"/>
      <point x="701" y="376"/>
      <point x="749" y="433"/>
      <point x="749" y="523" type="curve" smooth="yes"/>
      <point x="749" y="637" type="line"/>
      <point x="922" y="637" type="line"/>
      <point x="922" y="339" type="line" smooth="yes"/>
      <point x="922" y="262"/>
      <point x="853" y="203"/>
    </contour>
    <contour>
      <point x="996.0" y="0.0" type="move" name="bottom_deva"/>
    </contour>
    <contour>
      <point x="853.0" y="688.0" type="move" name="center_deva"/>
    </contour>
    <contour>
      <point x="996.0" y="688.0" type="move" name="top_deva"/>
    </contour>
  </outline>
</glyph>
<glyph name="dvG_BA" format="1">
  <advance width="939"/>
  <outline>
    <contour>
      <point x="162" y="245" type="curve" smooth="yes" name="hr00"/>
      <point x="181" y="245"/>
      <point x="199" y="248"/>
      <point x="209" y="253" type="curve"/>
      <point x="209" y="637" type="line"/>
      <point x="747" y="637" type="line"/>
      <point x="747" y="447" type="line"/>
      <point x="743" y="447" type="line"/>
      <point x="713" y="478"/>
      <point x="659" y="509"/>
      <point x="578" y="509" type="curve" smooth="yes"/>
      <point x="451" y="509"/>
      <point x="366" y="429"/>
      <point x="366" y="314" type="curve" smooth="yes"/>
      <point x="366" y="193"/>
      <point x="456" y="110"/>
      <point x="576" y="110" type="curve" smooth="yes"/>
      <point x="660" y="110"/>
      <point x="715" y="143"/>
      <point x="743" y="177" type="curve"/>
      <point x="747" y="177" type="line"/>
      <point x="747" y="0" type="line"/>
      <point x="821" y="0" type="line"/>
      <point x="821" y="637" type="line"/>
      <point x="959" y="637" type="line"/>
      <point x="959" y="698" type="line"/>
      <point x="-20" y="698" type="line"/>
      <point x="-20" y="637" type="line"/>
      <point x="135" y="637" type="line"/>
      <point x="135" y="393" type="line"/>
      <point x="94" y="385"/>
      <point x="73" y="359"/>
      <point x="73" y="320" type="curve" smooth="yes"/>
      <point x="73" y="273"/>
      <point x="103" y="245"/>
    </contour>
    <contour>
      <point x="722" y="227" type="line"/>
      <point x="695" y="254" type="line"/>
      <point x="531" y="410" type="line"/>
      <point x="507" y="429" type="line"/>
      <point x="507" y="432" type="line"/>
      <point x="531" y="445"/>
      <point x="557" y="448"/>
      <point x="586" y="448" type="curve" smooth="yes"/>
      <point x="680" y="448"/>
      <point x="748" y="395"/>
      <point x="748" y="348" type="curve" smooth="yes"/>
      <point x="748" y="282" type="line" smooth="yes"/>
      <point x="748" y="262"/>
      <point x="740" y="243"/>
      <point x="725" y="227" type="curve"/>
    </contour>
    <contour>
      <point x="589" y="173" type="curve" smooth="yes"/>
      <point x="491" y="173"/>
      <point x="440" y="227"/>
      <point x="440" y="302" type="curve" smooth="yes"/>
      <point x="440" y="323" type="line" smooth="yes"/>
      <point x="440" y="353"/>
      <point x="449" y="379"/>
      <point x="467" y="400" type="curve"/>
      <point x="471" y="400" type="line"/>
      <point x="497" y="371" type="line"/>
      <point x="658" y="217" type="line"/>
      <point x="682" y="197" type="line"/>
      <point x="682" y="194" type="line"/>
      <point x="655" y="179"/>
      <point x="626" y="173"/>
    </contour>
    <contour>
      <point x="821.0" y="0.0" type="move" name="bottom_deva"/>
    </contour>
    <contour>
      <point x="607.0" y="688.0" type="move" name="center_deva"/>
    </contour>
    <contour>
      <point x="821.0" y="688.0" type="move" name="top_deva"/>
    </contour>
  </outline>
</glyph>
<glyph name="dvG_DA" format="1">
  <advance width="904"/>
  <outline>
    <contour>
      <point x="162" y="245" type="curve" smooth="yes" name="hr00"/>
      <point x="181" y="245"/>
      <point x="199" y="248"/>
      <point x="209" y="253" type="curve"/>
      <point x="209" y="637" type="line"/>
      <point x="719" y="637" type="line"/>
      <point x="719" y="497" type="line"/>
      <point x="643" y="497" type="line" smooth="yes"/>
      <point x="483" y="497"/>
      <point x="395" y="416"/>
      <point x="395" y="286" type="curve" smooth="yes"/>
      <point x="395" y="150"/>
      <point x="497" y="66"/>
      <point x="646" y="66" type="curve" smooth="yes"/>
      <point x="677" y="66"/>
      <point x="706" y="69"/>
      <point x="731" y="75" type="curve"/>
      <point x="744" y="36" type="line"/>
      <point x="779" y="-62" type="line"/>
      <point x="838" y="-44" type="line"/>
      <point x="803" y="53" type="line"/>
      <point x="787" y="92" type="line"/>
      <point x="818" y="108"/>
      <point x="830" y="128"/>
      <point x="830" y="156" type="curve" smooth="yes"/>
      <point x="830" y="200"/>
      <point x="805" y="231"/>
      <point x="755" y="231" type="curve" smooth="yes"/>
      <point x="727" y="231"/>
      <point x="702" y="221"/>
      <point x="684" y="209" type="curve"/>
      <point x="708" y="134" type="line"/>
      <point x="693" y="131"/>
      <point x="674" y="128"/>
      <point x="650" y="128" type="curve" smooth="yes"/>
      <point x="532" y="128"/>
      <point x="474" y="186"/>
      <point x="474" y="271" type="curve" smooth="yes"/>
      <point x="474" y="296" type="line" smooth="yes"/>
      <point x="474" y="374"/>
      <point x="521" y="434"/>
      <point x="638" y="434" type="curve" smooth="yes"/>
      <point x="793" y="434" type="line"/>
      <point x="793" y="637" type="line"/>
      <point x="924" y="637" type="line"/>
      <point x="924" y="698" type="line"/>
      <point x="-20" y="698" type="line"/>
      <point x="-20" y="637" type="line"/>
      <point x="135" y="637" type="line"/>
      <point x="135" y="393" type="line"/>
      <point x="94" y="385"/>
      <point x="73" y="359"/>
      <point x="73" y="320" type="curve" smooth="yes"/>
      <point x="73" y="273"/>
      <point x="103" y="245"/>
    </contour>
    <contour>
      <point x="838.0" y="-49.0" type="move" name="bottom_deva"/>
    </contour>
    <contour>
      <point x="640.0" y="688.0" type="move" name="center_deva"/>
    </contour>
    <contour>
      <point x="793.0" y="688.0" type="move" name="top_deva"/>
    </contour>
  </outline>
</glyph>
<glyph name="dvG_DH_VA" format="1">
  <advance width="1373"/>
  <outline>
    <contour>
      <point x="785" y="637" type="line"/>
      <point x="1182" y="637" type="line"/>
      <point x="1182" y="446" type="line"/>
      <point x="1178" y="446" type="line"/>
      <point x="1140" y="481"/>
      <point x="1084" y="507"/>
      <point x="1011" y="507" type="curve" smooth="yes"/>
      <point x="891" y="507"/>
      <point x="806" y="434"/>
      <point x="806" y="312" type="curve" smooth="yes"/>
      <point x="806" y="300"/>
      <point x="807" y="289"/>
      <point x="808" y="280" type="curve"/>
      <point x="763" y="215"/>
      <point x="695" y="176"/>
      <point x="617" y="176" type="curve" smooth="yes"/>
      <point x="529" y="176"/>
      <point x="490" y="218"/>
      <point x="490" y="278" type="curve" smooth="yes"/>
      <point x="490" y="341"/>
      <point x="530" y="386"/>
      <point x="613" y="386" type="curve" smooth="yes" name="hr01"/>
      <point x="682" y="386" type="line"/>
      <point x="682" y="450" type="line"/>
      <point x="610" y="450" type="line" smooth="yes"/>
      <point x="517" y="450"/>
      <point x="467" y="494"/>
      <point x="467" y="555" type="curve" smooth="yes"/>
      <point x="467" y="607"/>
      <point x="501" y="640"/>
      <point x="557" y="640" type="curve" smooth="yes"/>
      <point x="587" y="640"/>
      <point x="612" y="631"/>
      <point x="638" y="616" type="curve"/>
      <point x="661" y="668" type="line"/>
      <point x="639" y="684"/>
      <point x="598" y="701"/>
      <point x="551" y="701" type="curve" smooth="yes"/>
      <point x="442" y="701"/>
      <point x="393" y="635"/>
      <point x="393" y="562" type="curve" smooth="yes"/>
      <point x="393" y="484"/>
      <point x="446" y="433"/>
      <point x="520" y="419" type="curve"/>
      <point x="520" y="413" type="line"/>
      <point x="455" y="397"/>
      <point x="412" y="345"/>
      <point x="412" y="273" type="curve" smooth="yes" name="hr02"/>
      <point x="412" y="184"/>
      <point x="480" y="110"/>
      <point x="615" y="110" type="curve" smooth="yes"/>
      <point x="712" y="110"/>
      <point x="788" y="152"/>
      <point x="831" y="203" type="curve"/>
      <point x="835" y="203" type="line"/>
      <point x="869" y="147"/>
      <point x="931" y="113"/>
      <point x="1015" y="113" type="curve" smooth="yes" name="hr03"/>
      <point x="1089" y="113"/>
      <point x="1146" y="145"/>
      <point x="1178" y="180" type="curve"/>
      <point x="1182" y="180" type="line"/>
      <point x="1182" y="0" type="line"/>
      <point x="1256" y="0" type="line"/>
      <point x="1256" y="637" type="line"/>
      <point x="1393" y="637" type="line"/>
      <point x="1393" y="698" type="line"/>
      <point x="785" y="698" type="line"/>
    </contour>
    <contour>
      <point x="162" y="245" type="curve" smooth="yes"/>
      <point x="181" y="245"/>
      <point x="199" y="248"/>
      <point x="209" y="253" type="curve"/>
      <point x="209" y="637" type="line"/>
      <point x="354" y="637" type="line"/>
      <point x="354" y="698" type="line"/>
      <point x="-20" y="698" type="line"/>
      <point x="-20" y="637" type="line"/>
      <point x="135" y="637" type="line"/>
      <point x="135" y="393" type="line"/>
      <point x="94" y="385"/>
      <point x="73" y="359"/>
      <point x="73" y="320" type="curve" smooth="yes"/>
      <point x="73" y="273"/>
      <point x="103" y="245"/>
    </contour>
    <contour>
      <point x="1019" y="179" type="curve" smooth="yes"/>
      <point x="931" y="179"/>
      <point x="884" y="234"/>
      <point x="884" y="298" type="curve" smooth="yes"/>
      <point x="884" y="324" type="line" smooth="yes"/>
      <point x="884" y="388"/>
      <point x="931" y="443"/>
      <point x="1019" y="443" type="curve" smooth="yes"/>
      <point x="1112" y="443"/>
      <point x="1183" y="392"/>
      <point x="1183" y="342" type="curve" smooth="yes"/>
      <point x="1183" y="280" type="line" smooth="yes"/>
      <point x="1183" y="230"/>
      <point x="1112" y="179"/>
    </contour>
    <contour>
      <point x="1256.0" y="0.0" type="move" name="bottom_deva"/>
    </contour>
    <contour>
      <point x="1052.0" y="688.0" type="move" name="center_deva"/>
    </contour>
    <contour>
      <point x="1256.0" y="688.0" type="move" name="top_deva"/>
    </contour>
  </outline>
</glyph>
<glyph name="dvG_DH_YA" format="1">
  <advance width="1424"/>
  <outline>
    <contour>
      <point x="1233" y="0" type="line"/>
      <point x="1307" y="0" type="line"/>
      <point x="1307" y="637" type="line"/>
      <point x="1444" y="637" type="line"/>
      <point x="1444" y="698" type="line"/>
      <point x="777" y="698" type="line"/>
      <point x="777" y="637" type="line"/>
      <point x="985" y="637" type="line"/>
      <point x="985" y="523" type="line" smooth="yes"/>
      <point x="985" y="463"/>
      <point x="964" y="436"/>
      <point x="912" y="436" type="curve" smooth="yes"/>
      <point x="815" y="436" type="line"/>
      <point x="815" y="359" type="line" smooth="yes"/>
      <point x="815" y="336"/>
      <point x="817" y="314"/>
      <point x="822" y="294" type="curve"/>
      <point x="782" y="226"/>
      <point x="716" y="176"/>
      <point x="618" y="176" type="curve" smooth="yes"/>
      <point x="530" y="176"/>
      <point x="491" y="218"/>
      <point x="491" y="278" type="curve" smooth="yes"/>
      <point x="491" y="341"/>
      <point x="531" y="386"/>
      <point x="614" y="386" type="curve" smooth="yes" name="hr01"/>
      <point x="683" y="386" type="line"/>
      <point x="683" y="450" type="line"/>
      <point x="611" y="450" type="line" smooth="yes"/>
      <point x="518" y="450"/>
      <point x="468" y="494"/>
      <point x="468" y="555" type="curve" smooth="yes"/>
      <point x="468" y="607"/>
      <point x="502" y="640"/>
      <point x="558" y="640" type="curve" smooth="yes"/>
      <point x="588" y="640"/>
      <point x="613" y="631"/>
      <point x="639" y="616" type="curve"/>
      <point x="662" y="668" type="line"/>
      <point x="640" y="684"/>
      <point x="599" y="701"/>
      <point x="552" y="701" type="curve" smooth="yes"/>
      <point x="443" y="701"/>
      <point x="394" y="635"/>
      <point x="394" y="562" type="curve" smooth="yes"/>
      <point x="394" y="484"/>
      <point x="447" y="433"/>
      <point x="521" y="419" type="curve"/>
      <point x="521" y="413" type="line"/>
      <point x="456" y="397"/>
      <point x="413" y="345"/>
      <point x="413" y="273" type="curve" smooth="yes" name="hr02"/>
      <point x="413" y="184"/>
      <point x="481" y="110"/>
      <point x="616" y="110" type="curve" smooth="yes"/>
      <point x="727" y="110"/>
      <point x="804" y="161"/>
      <point x="849" y="223" type="curve"/>
      <point x="854" y="223" type="line"/>
      <point x="890" y="165"/>
      <point x="957" y="134"/>
      <point x="1042" y="134" type="curve" smooth="yes" name="hr03"/>
      <point x="1134" y="134"/>
      <point x="1193" y="166"/>
      <point x="1229" y="219" type="curve"/>
      <point x="1233" y="219" type="line"/>
    </contour>
    <contour>
      <point x="162" y="245" type="curve" smooth="yes"/>
      <point x="181" y="245"/>
      <point x="199" y="248"/>
      <point x="209" y="253" type="curve"/>
      <point x="209" y="637" type="line"/>
      <point x="354" y="637" type="line"/>
      <point x="354" y="698" type="line"/>
      <point x="-20" y="698" type="line"/>
      <point x="-20" y="637" type="line"/>
      <point x="135" y="637" type="line"/>
      <point x="135" y="393" type="line"/>
      <point x="94" y="385"/>
      <point x="73" y="359"/>
      <point x="73" y="320" type="curve" smooth="yes"/>
      <point x="73" y="273"/>
      <point x="103" y="245"/>
    </contour>
    <contour>
      <point x="1047" y="203" type="curve" smooth="yes"/>
      <point x="949" y="203"/>
      <point x="889" y="241"/>
      <point x="889" y="338" type="curve" smooth="yes"/>
      <point x="889" y="376" type="line"/>
      <point x="921" y="376" type="line" smooth="yes"/>
      <point x="1011" y="376"/>
      <point x="1059" y="433"/>
      <point x="1059" y="523" type="curve" smooth="yes"/>
      <point x="1059" y="637" type="line"/>
      <point x="1233" y="637" type="line"/>
      <point x="1233" y="339" type="line" smooth="yes"/>
      <point x="1233" y="262"/>
      <point x="1163" y="203"/>
    </contour>
    <contour>
      <point x="1307.0" y="0.0" type="move" name="bottom_deva"/>
    </contour>
    <contour>
      <point x="1163.0" y="688.0" type="move" name="center_deva"/>
    </contour>
    <contour>
      <point x="1307.0" y="688.0" type="move" name="top_deva"/>
    </contour>
  </outline>
</glyph>
<glyph name="dvG_GA" format="1">
  <advance width="933"/>
  <outline>
    <contour>
      <point x="162" y="245" type="curve" smooth="yes" name="hr00"/>
      <point x="181" y="245"/>
      <point x="199" y="248"/>
      <point x="209" y="253" type="curve"/>
      <point x="209" y="637" type="line"/>
      <point x="447" y="637" type="line"/>
      <point x="447" y="393" type="line"/>
      <point x="406" y="385"/>
      <point x="385" y="359"/>
      <point x="385" y="320" type="curve" smooth="yes"/>
      <point x="385" y="273"/>
      <point x="415" y="245"/>
      <point x="474" y="245" type="curve" smooth="yes"/>
      <point x="493" y="245"/>
      <point x="511" y="248"/>
      <point x="521" y="253" type="curve"/>
      <point x="521" y="637" type="line"/>
      <point x="741" y="637" type="line"/>
      <point x="741" y="0" type="line"/>
      <point x="815" y="0" type="line"/>
      <point x="815" y="637" type="line"/>
      <point x="953" y="637" type="line"/>
      <point x="953" y="698" type="line"/>
      <point x="-20" y="698" type="line"/>
      <point x="-20" y="637" type="line"/>
      <point x="135" y="637" type="line"/>
      <point x="135" y="393" type="line"/>
      <point x="94" y="385"/>
      <point x="73" y="359"/>
      <point x="73" y="320" type="curve" smooth="yes"/>
      <point x="73" y="273"/>
      <point x="103" y="245"/>
    </contour>
    <contour>
      <point x="815.0" y="0.0" type="move" name="bottom_deva"/>
    </contour>
    <contour>
      <point x="630.0" y="688.0" type="move" name="center_deva"/>
    </contour>
    <contour>
      <point x="815.0" y="688.0" type="move" name="top_deva"/>
    </contour>
  </outline>
</glyph>
<glyph name="dvG_GHA" format="1">
  <advance width="1011"/>
  <outline>
    <contour>
      <point x="162" y="245" type="curve" smooth="yes"/>
      <point x="181" y="245"/>
      <point x="199" y="248"/>
      <point x="209" y="253" type="curve"/>
      <point x="209" y="637" type="line"/>
      <point x="437" y="637" type="line"/>
      <point x="437" y="633" type="line"/>
      <point x="413" y="619"/>
      <point x="397" y="585"/>
      <point x="397" y="550" type="curve" smooth="yes"/>
      <point x="397" y="489"/>
      <point x="445" y="439"/>
      <point x="521" y="425" type="curve"/>
      <point x="521" y="419" type="line"/>
      <point x="457" y="402"/>
      <point x="413" y="349"/>
      <point x="413" y="279" type="curve" smooth="yes" name="hr01"/>
      <point x="413" y="188"/>
      <point x="484" y="115"/>
      <point x="620" y="115" type="curve" smooth="yes"/>
      <point x="717" y="115"/>
      <point x="782" y="157"/>
      <point x="815" y="203" type="curve"/>
      <point x="819" y="203" type="line"/>
      <point x="819" y="0" type="line"/>
      <point x="893" y="0" type="line"/>
      <point x="893" y="637" type="line"/>
      <point x="1031" y="637" type="line"/>
      <point x="1031" y="698" type="line"/>
      <point x="-20" y="698" type="line"/>
      <point x="-20" y="637" type="line"/>
      <point x="135" y="637" type="line"/>
      <point x="135" y="393" type="line"/>
      <point x="94" y="385"/>
      <point x="73" y="359"/>
      <point x="73" y="320" type="curve" smooth="yes"/>
      <point x="73" y="273"/>
      <point x="103" y="245"/>
    </contour>
    <contour>
      <point x="623" y="181" type="curve" smooth="yes"/>
      <point x="536" y="181"/>
      <point x="491" y="224"/>
      <point x="491" y="283" type="curve" smooth="yes"/>
      <point x="491" y="347"/>
      <point x="532" y="391"/>
      <point x="615" y="391" type="curve" smooth="yes"/>
      <point x="690" y="391" type="line"/>
      <point x="690" y="455" type="line"/>
      <point x="612" y="455" type="line" smooth="yes"/>
      <point x="518" y="455"/>
      <point x="472" y="497"/>
      <point x="472" y="550" type="curve" smooth="yes" name="hr02"/>
      <point x="472" y="601"/>
      <point x="502" y="637"/>
      <point x="559" y="637" type="curve" smooth="yes"/>
      <point x="819" y="637" type="line"/>
      <point x="819" y="340" type="line" smooth="yes"/>
      <point x="819" y="249"/>
      <point x="742" y="181"/>
    </contour>
    <contour>
      <point x="893.0" y="0.0" type="move" name="bottom_deva"/>
    </contour>
    <contour>
      <point x="674.0" y="688.0" type="move" name="center_deva"/>
    </contour>
    <contour>
      <point x="893.0" y="688.0" type="move" name="top_deva"/>
    </contour>
  </outline>
</glyph>
<glyph name="dvG_MA" format="1">
  <advance width="964"/>
  <outline>
    <contour>
      <point x="162" y="245" type="curve" smooth="yes" name="hr00"/>
      <point x="181" y="245"/>
      <point x="199" y="248"/>
      <point x="209" y="253" type="curve"/>
      <point x="209" y="637" type="line"/>
      <point x="458" y="637" type="line"/>
      <point x="458" y="370" type="line"/>
      <point x="428" y="360"/>
      <point x="413" y="334"/>
      <point x="413" y="298" type="curve" smooth="yes"/>
      <point x="413" y="250"/>
      <point x="440" y="221"/>
      <point x="491" y="221" type="curve" smooth="yes"/>
      <point x="508" y="221"/>
      <point x="522" y="224"/>
      <point x="532" y="229" type="curve"/>
      <point x="532" y="312" type="line"/>
      <point x="772" y="312" type="line"/>
      <point x="772" y="0" type="line"/>
      <point x="846" y="0" type="line"/>
      <point x="846" y="637" type="line"/>
      <point x="984" y="637" type="line"/>
      <point x="984" y="698" type="line"/>
      <point x="-20" y="698" type="line"/>
      <point x="-20" y="637" type="line"/>
      <point x="135" y="637" type="line"/>
      <point x="135" y="393" type="line"/>
      <point x="94" y="385"/>
      <point x="73" y="359"/>
      <point x="73" y="320" type="curve" smooth="yes"/>
      <point x="73" y="273"/>
      <point x="103" y="245"/>
    </contour>
    <contour>
      <point x="772" y="637" type="line"/>
      <point x="772" y="375" type="line"/>
      <point x="532" y="375" type="line"/>
      <point x="532" y="637" type="line"/>
    </contour>
    <contour>
      <point x="846.0" y="0.0" type="move" name="bottom_deva"/>
    </contour>
    <contour>
      <point x="660.0" y="688.0" type="move" name="center_deva"/>
    </contour>
    <contour>
      <point x="846.0" y="688.0" type="move" name="top_deva"/>
    </contour>
  </outline>
</glyph>
<glyph name="dvG_N_YA" format="1">
  <advance width="987"/>
  <outline>
    <contour>
      <point x="162" y="245" type="curve" smooth="yes" name="hr00"/>
      <point x="181" y="245"/>
      <point x="199" y="248"/>
      <point x="209" y="253" type="curve"/>
      <point x="209" y="637" type="line"/>
      <point x="548" y="637" type="line"/>
      <point x="548" y="523" type="line" smooth="yes"/>
      <point x="548" y="463"/>
      <point x="527" y="436"/>
      <point x="475" y="436" type="curve" smooth="yes"/>
      <point x="378" y="436" type="line"/>
      <point x="378" y="359" type="line" smooth="yes"/>
      <point x="378" y="305"/>
      <point x="391" y="260"/>
      <point x="414" y="225" type="curve"/>
      <point x="252" y="89" type="line" smooth="yes"/>
      <point x="226" y="67"/>
      <point x="221" y="55"/>
      <point x="221" y="32" type="curve" smooth="yes"/>
      <point x="221" y="-3"/>
      <point x="255" y="-48"/>
      <point x="302" y="-48" type="curve" smooth="yes"/>
      <point x="334" y="-48"/>
      <point x="354" y="-30"/>
      <point x="361" y="-6" type="curve"/>
      <point x="308" y="54" type="line"/>
      <point x="457" y="179" type="line"/>
      <point x="495" y="149"/>
      <point x="545" y="134"/>
      <point x="605" y="134" type="curve" smooth="yes"/>
      <point x="697" y="134"/>
      <point x="756" y="166"/>
      <point x="791" y="219" type="curve"/>
      <point x="795" y="219" type="line"/>
      <point x="795" y="0" type="line"/>
      <point x="869" y="0" type="line"/>
      <point x="869" y="637" type="line"/>
      <point x="1007" y="637" type="line"/>
      <point x="1007" y="698" type="line"/>
      <point x="-20" y="698" type="line"/>
      <point x="-20" y="637" type="line"/>
      <point x="135" y="637" type="line"/>
      <point x="135" y="393" type="line"/>
      <point x="94" y="385"/>
      <point x="73" y="359"/>
      <point x="73" y="320" type="curve" smooth="yes"/>
      <point x="73" y="273"/>
      <point x="103" y="245"/>
    </contour>
    <contour>
      <point x="610" y="203" type="curve" smooth="yes"/>
      <point x="512" y="203"/>
      <point x="452" y="241"/>
      <point x="452" y="338" type="curve" smooth="yes"/>
      <point x="452" y="376" type="line"/>
      <point x="484" y="376" type="line" smooth="yes"/>
      <point x="574" y="376"/>
      <point x="622" y="433"/>
      <point x="622" y="523" type="curve" smooth="yes"/>
      <point x="622" y="637" type="line"/>
      <point x="795" y="637" type="line"/>
      <point x="795" y="339" type="line" smooth="yes"/>
      <point x="795" y="262"/>
      <point x="726" y="203"/>
    </contour>
    <contour>
      <point x="869.0" y="0.0" type="move" name="bottom_deva"/>
    </contour>
    <contour>
      <point x="726.0" y="688.0" type="move" name="center_deva"/>
    </contour>
    <contour>
      <point x="869.0" y="688.0" type="move" name="top_deva"/>
    </contour>
  </outline>
</glyph>
<glyph name="dvG_R_YA" format="1">
  <advance width="997"/>
  <outline>
    <contour>
      <point x="218" y="-52" type="line" name="hr00"/>
      <point x="411" y="136" type="line"/>
      <point x="458" y="186" type="line"/>
      <point x="497" y="152"/>
      <point x="550" y="134"/>
      <point x="615" y="134" type="curve" smooth="yes"/>
      <point x="707" y="134"/>
      <point x="766" y="166"/>
      <point x="801" y="219" type="curve"/>
      <point x="805" y="219" type="line"/>
      <point x="805" y="0" type="line"/>
      <point x="879" y="0" type="line"/>
      <point x="879" y="637" type="line"/>
      <point x="1017" y="637" type="line"/>
      <point x="1017" y="698" type="line"/>
      <point x="-20" y="698" type="line"/>
      <point x="-20" y="637" type="line"/>
      <point x="135" y="637" type="line"/>
      <point x="135" y="393" type="line"/>
      <point x="94" y="385"/>
      <point x="73" y="359"/>
      <point x="73" y="320" type="curve" smooth="yes"/>
      <point x="73" y="273"/>
      <point x="103" y="245"/>
      <point x="162" y="245" type="curve" smooth="yes"/>
      <point x="181" y="245"/>
      <point x="199" y="248"/>
      <point x="209" y="253" type="curve"/>
      <point x="209" y="637" type="line"/>
      <point x="558" y="637" type="line"/>
      <point x="558" y="523" type="line" smooth="yes"/>
      <point x="558" y="463"/>
      <point x="537" y="436"/>
      <point x="485" y="436" type="curve" smooth="yes"/>
      <point x="388" y="436" type="line"/>
      <point x="388" y="359" type="line" smooth="yes"/>
      <point x="388" y="311"/>
      <point x="398" y="269"/>
      <point x="417" y="236" type="curve"/>
      <point x="170" y="-2" type="line"/>
    </contour>
    <contour>
      <point x="620" y="203" type="curve" smooth="yes"/>
      <point x="522" y="203"/>
      <point x="462" y="241"/>
      <point x="462" y="338" type="curve" smooth="yes"/>
      <point x="462" y="376" type="line"/>
      <point x="494" y="376" type="line" smooth="yes"/>
      <point x="584" y="376"/>
      <point x="632" y="433"/>
      <point x="632" y="523" type="curve" smooth="yes"/>
      <point x="632" y="637" type="line"/>
      <point x="805" y="637" type="line"/>
      <point x="805" y="339" type="line" smooth="yes"/>
      <point x="805" y="262"/>
      <point x="736" y="203"/>
    </contour>
    <contour>
      <point x="879.0" y="0.0" type="move" name="bottom_deva"/>
    </contour>
    <contour>
      <point x="736.0" y="688.0" type="move" name="center_deva"/>
    </contour>
    <contour>
      <point x="879.0" y="688.0" type="move" name="top_deva"/>
    </contour>
  </outline>
</glyph>
<glyph name="dvG_YA" format="1">
  <advance width="987"/>
  <outline>
    <contour>
      <point x="162" y="245" type="curve" smooth="yes" name="hr00"/>
      <point x="181" y="245"/>
      <point x="199" y="248"/>
      <point x="209" y="253" type="curve"/>
      <point x="209" y="637" type="line"/>
      <point x="548" y="637" type="line"/>
      <point x="548" y="523" type="line" smooth="yes"/>
      <point x="548" y="463"/>
      <point x="527" y="436"/>
      <point x="475" y="436" type="curve" smooth="yes"/>
      <point x="378" y="436" type="line"/>
      <point x="378" y="359" type="line" smooth="yes"/>
      <point x="378" y="217"/>
      <point x="467" y="134"/>
      <point x="605" y="134" type="curve" smooth="yes"/>
      <point x="697" y="134"/>
      <point x="756" y="166"/>
      <point x="791" y="219" type="curve"/>
      <point x="795" y="219" type="line"/>
      <point x="795" y="0" type="line"/>
      <point x="869" y="0" type="line"/>
      <point x="869" y="637" type="line"/>
      <point x="1007" y="637" type="line"/>
      <point x="1007" y="698" type="line"/>
      <point x="-20" y="698" type="line"/>
      <point x="-20" y="637" type="line"/>
      <point x="135" y="637" type="line"/>
      <point x="135" y="393" type="line"/>
      <point x="94" y="385"/>
      <point x="73" y="359"/>
      <point x="73" y="320" type="curve" smooth="yes"/>
      <point x="73" y="273"/>
      <point x="103" y="245"/>
    </contour>
    <contour>
      <point x="610" y="203" type="curve" smooth="yes"/>
      <point x="512" y="203"/>
      <point x="452" y="241"/>
      <point x="452" y="338" type="curve" smooth="yes"/>
      <point x="452" y="376" type="line"/>
      <point x="484" y="376" type="line" smooth="yes"/>
      <point x="574" y="376"/>
      <point x="622" y="433"/>
      <point x="622" y="523" type="curve" smooth="yes"/>
      <point x="622" y="637" type="line"/>
      <point x="795" y="637" type="line"/>
      <point x="795" y="339" type="line" smooth="yes"/>
      <point x="795" y="262"/>
      <point x="726" y="203"/>
    </contour>
    <contour>
      <point x="869.0" y="0.0" type="move" name="bottom_deva"/>
    </contour>
    <contour>
      <point x="726.0" y="688.0" type="move" name="center_deva"/>
    </contour>
    <contour>
      <point x="869.0" y="688.0" type="move" name="top_deva"/>
    </contour>
  </outline>
</glyph>
<glyph name="dvH_MA" format="1">
  <advance width="884"/>
  <outline>
    <contour>
      <point x="368" y="-114" type="curve" smooth="yes" name="hr00"/>
      <point x="442" y="-114" type="line"/>
      <point x="442" y="-54" type="line"/>
      <point x="380" y="-54" type="line" smooth="yes"/>
      <point x="231" y="-54"/>
      <point x="163" y="6"/>
      <point x="163" y="98" type="curve" smooth="yes"/>
      <point x="163" y="128" type="line" smooth="yes"/>
      <point x="163" y="216"/>
      <point x="218" y="259"/>
      <point x="306" y="259" type="curve" smooth="yes"/>
      <point x="373" y="259"/>
      <point x="407" y="240"/>
      <point x="423" y="200" type="curve"/>
      <point x="423" y="197" type="line"/>
      <point x="398" y="187"/>
      <point x="383" y="165"/>
      <point x="383" y="130" type="curve" smooth="yes"/>
      <point x="383" y="83"/>
      <point x="411" y="56"/>
      <point x="455" y="56" type="curve" smooth="yes"/>
      <point x="474" y="56"/>
      <point x="488" y="59"/>
      <point x="500" y="64" type="curve"/>
      <point x="500" y="141" type="line"/>
      <point x="692" y="141" type="line"/>
      <point x="692" y="-51" type="line"/>
      <point x="766" y="-51" type="line"/>
      <point x="766" y="637" type="line"/>
      <point x="904" y="637" type="line"/>
      <point x="904" y="698" type="line"/>
      <point x="-20" y="698" type="line"/>
      <point x="-20" y="637" type="line"/>
      <point x="393" y="637" type="line"/>
      <point x="393" y="518" type="line"/>
      <point x="220" y="518" type="line" smooth="yes"/>
      <point x="129" y="518"/>
      <point x="81" y="467"/>
      <point x="81" y="398" type="curve" smooth="yes"/>
      <point x="81" y="346"/>
      <point x="106" y="306"/>
      <point x="147" y="275" type="curve"/>
      <point x="147" y="268" type="line"/>
      <point x="110" y="233"/>
      <point x="90" y="181"/>
      <point x="90" y="114" type="curve" smooth="yes"/>
      <point x="90" y="-39"/>
      <point x="208" y="-114"/>
    </contour>
    <contour>
      <point x="692" y="637" type="line"/>
      <point x="692" y="204" type="line"/>
      <point x="491" y="204" type="line"/>
      <point x="470" y="278"/>
      <point x="405" y="322"/>
      <point x="305" y="322" type="curve" smooth="yes"/>
      <point x="262" y="322"/>
      <point x="225" y="314"/>
      <point x="193" y="300" type="curve"/>
      <point x="161" y="327"/>
      <point x="150" y="356"/>
      <point x="150" y="390" type="curve" smooth="yes"/>
      <point x="150" y="425"/>
      <point x="168" y="454"/>
      <point x="221" y="454" type="curve" smooth="yes"/>
      <point x="467" y="454" type="line"/>
      <point x="467" y="637" type="line"/>
    </contour>
    <contour>
      <point x="766.0" y="-51.0" type="move" name="bottom_deva"/>
    </contour>
    <contour>
      <point x="556.0" y="688.0" type="move" name="center_deva"/>
    </contour>
    <contour>
      <point x="766.0" y="688.0" type="move" name="top_deva"/>
    </contour>
  </outline>
</glyph>
<glyph name="dvH_NNA" format="1">
  <advance width="655"/>
  <outline>
    <contour>
      <point x="376" y="-126" type="curve" smooth="yes"/>
      <point x="455" y="-126" type="line"/>
      <point x="455" y="-69" type="line"/>
      <point x="377" y="-69" type="line" smooth="yes"/>
      <point x="218" y="-69"/>
      <point x="158" y="9"/>
      <point x="158" y="111" type="curve" smooth="yes"/>
      <point x="158" y="139" type="line" smooth="yes"/>
      <point x="158" y="215"/>
      <point x="186" y="267"/>
      <point x="251" y="291" type="curve"/>
      <point x="255" y="287" type="line"/>
      <point x="255" y="156" type="line" smooth="yes"/>
      <point x="255" y="90"/>
      <point x="286" y="50"/>
      <point x="358" y="50" type="curve" smooth="yes"/>
      <point x="428" y="50"/>
      <point x="462" y="90"/>
      <point x="462" y="156" type="curve" smooth="yes"/>
      <point x="462" y="286" type="line"/>
      <point x="465" y="290" type="line"/>
      <point x="531" y="266"/>
      <point x="548" y="216"/>
      <point x="548" y="149" type="curve" smooth="yes"/>
      <point x="548" y="54" type="line"/>
      <point x="614" y="54" type="line"/>
      <point x="614" y="147" type="line" smooth="yes"/>
      <point x="614" y="264"/>
      <point x="550" y="365"/>
      <point x="348" y="365" type="curve" smooth="yes"/>
      <point x="279" y="365"/>
      <point x="224" y="350"/>
      <point x="182" y="323" type="curve"/>
      <point x="160" y="349"/>
      <point x="152" y="373"/>
      <point x="152" y="397" type="curve" smooth="yes" name="hr01"/>
      <point x="152" y="437"/>
      <point x="176" y="464"/>
      <point x="247" y="464" type="curve" smooth="yes"/>
      <point x="517" y="464" type="line"/>
      <point x="517" y="637" type="line"/>
      <point x="675" y="637" type="line"/>
      <point x="675" y="698" type="line"/>
      <point x="-20" y="698" type="line"/>
      <point x="-20" y="637" type="line"/>
      <point x="443" y="637" type="line"/>
      <point x="443" y="528" type="line"/>
      <point x="247" y="528" type="line" smooth="yes"/>
      <point x="137" y="528"/>
      <point x="83" y="479"/>
      <point x="83" y="405" type="curve" smooth="yes"/>
      <point x="83" y="364"/>
      <point x="100" y="327"/>
      <point x="140" y="290" type="curve"/>
      <point x="140" y="286" type="line"/>
      <point x="105" y="246"/>
      <point x="88" y="191"/>
      <point x="88" y="127" type="curve" smooth="yes" name="hr02"/>
      <point x="88" y="-21"/>
      <point x="176" y="-126"/>
    </contour>
    <contour>
      <point x="359" y="101" type="curve" smooth="yes"/>
      <point x="327" y="101"/>
      <point x="316" y="118"/>
      <point x="316" y="145" type="curve" smooth="yes"/>
      <point x="316" y="304" type="line"/>
      <point x="327" y="305"/>
      <point x="338" y="305"/>
      <point x="350" y="305" type="curve" smooth="yes"/>
      <point x="369" y="305"/>
      <point x="386" y="304"/>
      <point x="402" y="303" type="curve"/>
      <point x="402" y="145" type="line" smooth="yes"/>
      <point x="402" y="118"/>
      <point x="391" y="101"/>
    </contour>
    <contour>
      <point x="411.0" y="-116.0" type="move" name="bottom_deva"/>
    </contour>
    <contour>
      <point x="383.0" y="688.0" type="move" name="center_deva"/>
    </contour>
    <contour>
      <point x="517.0" y="688.0" type="move" name="top_deva"/>
    </contour>
  </outline>
</glyph>
<glyph name="dvH_YA" format="1">
  <advance width="849"/>
  <outline>
    <contour>
      <point x="386" y="-141" type="curve" smooth="yes"/>
      <point x="449" y="-141" type="line"/>
      <point x="449" y="-80" type="line"/>
      <point x="399" y="-80" type="line" smooth="yes"/>
      <point x="215" y="-80"/>
      <point x="160" y="4"/>
      <point x="160" y="113" type="curve" smooth="yes"/>
      <point x="160" y="144" type="line" smooth="yes"/>
      <point x="160" y="240"/>
      <point x="222" y="311"/>
      <point x="346" y="311" type="curve" smooth="yes"/>
      <point x="415" y="311"/>
      <point x="451" y="288"/>
      <point x="451" y="254" type="curve" smooth="yes"/>
      <point x="451" y="223"/>
      <point x="429" y="204"/>
      <point x="365" y="191" type="curve" smooth="yes"/>
      <point x="324" y="183" type="line"/>
      <point x="324" y="143" type="line" smooth="yes"/>
      <point x="324" y="62"/>
      <point x="375" y="1"/>
      <point x="477" y="1" type="curve" smooth="yes"/>
      <point x="556" y="1"/>
      <point x="614" y="34"/>
      <point x="653" y="91" type="curve"/>
      <point x="657" y="91" type="line"/>
      <point x="657" y="-64" type="line"/>
      <point x="731" y="-64" type="line"/>
      <point x="731" y="637" type="line"/>
      <point x="869" y="637" type="line"/>
      <point x="869" y="698" type="line"/>
      <point x="-20" y="698" type="line"/>
      <point x="-20" y="637" type="line"/>
      <point x="387" y="637" type="line" name="hr01"/>
      <point x="387" y="532" type="line"/>
      <point x="227" y="532" type="line" smooth="yes"/>
      <point x="137" y="532"/>
      <point x="83" y="482"/>
      <point x="83" y="411" type="curve" smooth="yes"/>
      <point x="83" y="362"/>
      <point x="105" y="329"/>
      <point x="143" y="300" type="curve"/>
      <point x="143" y="297" type="line"/>
      <point x="105" y="256"/>
      <point x="84" y="200"/>
      <point x="84" y="131" type="curve" smooth="yes"/>
      <point x="84" y="-26"/>
      <point x="177" y="-141"/>
    </contour>
    <contour>
      <point x="657" y="637" type="line"/>
      <point x="657" y="219" type="line" smooth="yes"/>
      <point x="657" y="142"/>
      <point x="575" y="62"/>
      <point x="485" y="62" type="curve" smooth="yes"/>
      <point x="417" y="62"/>
      <point x="397" y="90"/>
      <point x="397" y="128" type="curve" smooth="yes" name="hr02"/>
      <point x="397" y="136" type="line"/>
      <point x="421" y="143" type="line" smooth="yes"/>
      <point x="476" y="159"/>
      <point x="520" y="190"/>
      <point x="520" y="254" type="curve" smooth="yes"/>
      <point x="520" y="323"/>
      <point x="455" y="374"/>
      <point x="345" y="374" type="curve" smooth="yes"/>
      <point x="281" y="374"/>
      <point x="226" y="359"/>
      <point x="184" y="331" type="curve"/>
      <point x="160" y="353"/>
      <point x="153" y="375"/>
      <point x="153" y="403" type="curve" smooth="yes"/>
      <point x="153" y="440"/>
      <point x="176" y="469"/>
      <point x="227" y="469" type="curve" smooth="yes"/>
      <point x="461" y="469" type="line" name="hr03"/>
      <point x="461" y="637" type="line"/>
    </contour>
    <contour>
      <point x="731.0" y="-64.0" type="move" name="bottom_deva"/>
    </contour>
    <contour>
      <point x="545.0" y="688.0" type="move" name="center_deva"/>
    </contour>
    <contour>
      <point x="731.0" y="688.0" type="move" name="top_deva"/>
    </contour>
  </outline>
</glyph>
<glyph name="dvJH_RA" format="1">
  <advance width="860"/>
  <outline>
    <contour>
      <point x="207" y="-119" type="line"/>
      <point x="265" y="-101" type="line"/>
      <point x="229" y="1" type="line"/>
      <point x="219" y="24" type="line"/>
      <point x="221" y="27" type="line"/>
      <point x="236" y="25"/>
      <point x="247" y="24"/>
      <point x="259" y="24" type="curve" smooth="yes"/>
      <point x="390" y="24"/>
      <point x="452" y="83"/>
      <point x="452" y="178" type="curve" smooth="yes"/>
      <point x="452" y="194"/>
      <point x="450" y="208"/>
      <point x="446" y="221" type="curve"/>
      <point x="447" y="223" type="line"/>
      <point x="668" y="223" type="line"/>
      <point x="668" y="207" type="line"/>
      <point x="415" y="-8" type="line"/>
      <point x="460" y="-58" type="line"/>
      <point x="625" y="88" type="line"/>
      <point x="667" y="131" type="line"/>
      <point x="670" y="131" type="line"/>
      <point x="668" y="86" type="line"/>
      <point x="668" y="0" type="line"/>
      <point x="742" y="0" type="line"/>
      <point x="742" y="637" type="line"/>
      <point x="880" y="637" type="line"/>
      <point x="880" y="698" type="line"/>
      <point x="-20" y="698" type="line"/>
      <point x="-20" y="637" type="line"/>
      <point x="326" y="637" type="line"/>
      <point x="326" y="522" type="line"/>
      <point x="217" y="522" type="line" smooth="yes"/>
      <point x="118" y="522"/>
      <point x="68" y="472"/>
      <point x="68" y="395" type="curve" smooth="yes"/>
      <point x="68" y="312"/>
      <point x="123" y="263"/>
      <point x="234" y="263" type="curve" smooth="yes" name="hr01"/>
      <point x="280" y="263" type="line" smooth="yes"/>
      <point x="350" y="263"/>
      <point x="381" y="234"/>
      <point x="381" y="185" type="curve" smooth="yes"/>
      <point x="381" y="169" type="line" smooth="yes"/>
      <point x="381" y="116"/>
      <point x="344" y="82"/>
      <point x="258" y="82" type="curve" smooth="yes"/>
      <point x="243" y="82"/>
      <point x="223" y="82"/>
      <point x="202" y="84" type="curve"/>
      <point x="169" y="168" type="line"/>
      <point x="162" y="169"/>
      <point x="153" y="170"/>
      <point x="144" y="170" type="curve" smooth="yes"/>
      <point x="98" y="170"/>
      <point x="73" y="145"/>
      <point x="73" y="106" type="curve" smooth="yes"/>
      <point x="73" y="66"/>
      <point x="96" y="40"/>
      <point x="155" y="30" type="curve"/>
      <point x="168" y="-10" type="line"/>
    </contour>
    <contour>
      <point x="400" y="637" type="line"/>
      <point x="668" y="637" type="line"/>
      <point x="668" y="284" type="line" name="hr02"/>
      <point x="411" y="284" type="line"/>
      <point x="383" y="311"/>
      <point x="341" y="326"/>
      <point x="283" y="326" type="curve" smooth="yes" name="hr03"/>
      <point x="222" y="326" type="line" smooth="yes"/>
      <point x="162" y="326"/>
      <point x="138" y="351"/>
      <point x="138" y="389" type="curve" smooth="yes"/>
      <point x="138" y="400" type="line" smooth="yes"/>
      <point x="138" y="435"/>
      <point x="159" y="460"/>
      <point x="210" y="460" type="curve" smooth="yes"/>
      <point x="400" y="460" type="line"/>
    </contour>
    <contour>
      <point x="742.0" y="0.0" type="move" name="bottom_deva"/>
    </contour>
    <contour>
      <point x="567.0" y="688.0" type="move" name="center_deva"/>
    </contour>
    <contour>
      <point x="742.0" y="688.0" type="move" name="top_deva"/>
    </contour>
  </outline>
</glyph>
<glyph name="dvJ" format="1">
  <advance width="563"/>
  <outline>
    <contour>
      <point x="-20" y="637" type="line" name="hr00"/>
      <point x="610" y="637" type="line"/>
      <point x="610" y="698" type="line"/>
      <point x="-20" y="698" type="line"/>
    </contour>
    <contour>
      <point x="313" y="59" type="curve" smooth="yes"/>
      <point x="416" y="59"/>
      <point x="496" y="127"/>
      <point x="496" y="242" type="curve" smooth="yes"/>
      <point x="496" y="313"/>
      <point x="464" y="363"/>
      <point x="427" y="387" type="curve"/>
      <point x="427" y="392" type="line"/>
      <point x="683" y="392" type="line"/>
      <point x="683" y="455" type="line"/>
      <point x="282" y="455" type="line"/>
      <point x="282" y="392" type="line"/>
      <point x="296" y="392" type="line" smooth="yes"/>
      <point x="368" y="392"/>
      <point x="424" y="330"/>
      <point x="424" y="257" type="curve" smooth="yes"/>
      <point x="424" y="230" type="line" smooth="yes"/>
      <point x="424" y="172"/>
      <point x="386" y="124"/>
      <point x="311" y="124" type="curve" smooth="yes"/>
      <point x="225" y="124"/>
      <point x="142" y="184"/>
      <point x="128" y="397" type="curve"/>
      <point x="62" y="380" type="line"/>
      <point x="75" y="159"/>
      <point x="182" y="59"/>
    </contour>
  </outline>
</glyph>
<glyph name="dvJ_DA" format="1">
  <advance width="1136"/>
  <outline>
    <contour>
      <point x="-20" y="637" type="line"/>
      <point x="951" y="637" type="line"/>
      <point x="951" y="497" type="line"/>
      <point x="875" y="497" type="line" smooth="yes"/>
      <point x="784" y="497"/>
      <point x="719" y="471"/>
      <point x="677" y="425" type="curve"/>
      <point x="282" y="425" type="line"/>
      <point x="282" y="362" type="line"/>
      <point x="296" y="362" type="line" smooth="yes"/>
      <point x="368" y="362"/>
      <point x="424" y="300"/>
      <point x="424" y="227" type="curve" smooth="yes"/>
      <point x="424" y="200" type="line" smooth="yes"/>
      <point x="424" y="142"/>
      <point x="386" y="94"/>
      <point x="311" y="94" type="curve" smooth="yes"/>
      <point x="225" y="94"/>
      <point x="142" y="154"/>
      <point x="128" y="367" type="curve"/>
      <point x="62" y="350" type="line"/>
      <point x="75" y="129"/>
      <point x="182" y="29"/>
      <point x="313" y="29" type="curve" smooth="yes"/>
      <point x="416" y="29"/>
      <point x="494" y="97"/>
      <point x="496" y="212" type="curve" smooth="yes"/>
      <point x="497" y="283"/>
      <point x="464" y="333"/>
      <point x="427" y="357" type="curve"/>
      <point x="427" y="362" type="line"/>
      <point x="638" y="362" type="line"/>
      <point x="640" y="360" type="line"/>
      <point x="632" y="338"/>
      <point x="627" y="313"/>
      <point x="627" y="286" type="curve" smooth="yes"/>
      <point x="627" y="150"/>
      <point x="729" y="66"/>
      <point x="878" y="66" type="curve" smooth="yes" name="hr01"/>
      <point x="909" y="66"/>
      <point x="938" y="69"/>
      <point x="963" y="75" type="curve"/>
      <point x="976" y="36" type="line"/>
      <point x="1011" y="-62" type="line"/>
      <point x="1070" y="-44" type="line"/>
      <point x="1035" y="53" type="line"/>
      <point x="1019" y="92" type="line"/>
      <point x="1050" y="108"/>
      <point x="1062" y="128"/>
      <point x="1062" y="156" type="curve" smooth="yes"/>
      <point x="1062" y="200"/>
      <point x="1037" y="231"/>
      <point x="987" y="231" type="curve" smooth="yes"/>
      <point x="959" y="231"/>
      <point x="934" y="221"/>
      <point x="916" y="209" type="curve"/>
      <point x="940" y="134" type="line"/>
      <point x="925" y="131"/>
      <point x="906" y="128"/>
      <point x="882" y="128" type="curve" smooth="yes"/>
      <point x="764" y="128"/>
      <point x="706" y="186"/>
      <point x="706" y="271" type="curve" smooth="yes"/>
      <point x="706" y="296" type="line" smooth="yes"/>
      <point x="706" y="374"/>
      <point x="753" y="434"/>
      <point x="870" y="434" type="curve" smooth="yes"/>
      <point x="1025" y="434" type="line"/>
      <point x="1025" y="637" type="line"/>
      <point x="1156" y="637" type="line"/>
      <point x="1156" y="698" type="line"/>
      <point x="-20" y="698" type="line"/>
    </contour>
    <contour>
      <point x="1070.0" y="-49.0" type="move" name="bottom_deva"/>
    </contour>
    <contour>
      <point x="872.0" y="688.0" type="move" name="center_deva"/>
    </contour>
    <contour>
      <point x="1025.0" y="688.0" type="move" name="top_deva"/>
    </contour>
  </outline>
</glyph>
<glyph name="dvJ_KA" format="1">
  <advance width="1429"/>
  <outline>
    <contour>
      <point x="-20" y="637" type="line"/>
      <point x="968" y="637" type="line"/>
      <point x="968" y="430" type="line"/>
      <point x="964" y="430" type="line"/>
      <point x="934" y="466"/>
      <point x="887" y="497"/>
      <point x="811" y="497" type="curve" smooth="yes"/>
      <point x="764" y="497"/>
      <point x="722" y="482"/>
      <point x="690" y="455" type="curve" name="hr01"/>
      <point x="282" y="455" type="line"/>
      <point x="282" y="392" type="line"/>
      <point x="296" y="392" type="line" smooth="yes"/>
      <point x="368" y="392"/>
      <point x="424" y="330"/>
      <point x="424" y="257" type="curve" smooth="yes"/>
      <point x="424" y="230" type="line" smooth="yes"/>
      <point x="424" y="172"/>
      <point x="386" y="124"/>
      <point x="311" y="124" type="curve" smooth="yes"/>
      <point x="225" y="124"/>
      <point x="142" y="184"/>
      <point x="128" y="397" type="curve"/>
      <point x="62" y="380" type="line"/>
      <point x="75" y="159"/>
      <point x="182" y="59"/>
      <point x="313" y="59" type="curve" smooth="yes"/>
      <point x="416" y="59"/>
      <point x="496" y="127"/>
      <point x="496" y="242" type="curve" smooth="yes"/>
      <point x="496" y="313"/>
      <point x="464" y="363"/>
      <point x="427" y="387" type="curve"/>
      <point x="427" y="392" type="line"/>
      <point x="641" y="392" type="line"/>
      <point x="643" y="389" type="line"/>
      <point x="632" y="366"/>
      <point x="625" y="339"/>
      <point x="625" y="308" type="curve" smooth="yes"/>
      <point x="625" y="195"/>
      <point x="705" y="117"/>
      <point x="813" y="117" type="curve" smooth="yes" name="hr02"/>
      <point x="881" y="117"/>
      <point x="931" y="143"/>
      <point x="964" y="185" type="curve"/>
      <point x="968" y="185" type="line"/>
      <point x="968" y="0" type="line"/>
      <point x="1042" y="0" type="line"/>
      <point x="1042" y="250" type="line" smooth="yes"/>
      <point x="1042" y="352"/>
      <point x="1115" y="421"/>
      <point x="1202" y="421" type="curve" smooth="yes"/>
      <point x="1283" y="421"/>
      <point x="1315" y="374"/>
      <point x="1315" y="317" type="curve" smooth="yes"/>
      <point x="1315" y="303" type="line" smooth="yes"/>
      <point x="1315" y="238"/>
      <point x="1275" y="194"/>
      <point x="1185" y="174" type="curve"/>
      <point x="1211" y="107" type="line"/>
      <point x="1333" y="133"/>
      <point x="1386" y="212"/>
      <point x="1386" y="313" type="curve" smooth="yes"/>
      <point x="1386" y="411"/>
      <point x="1313" y="487"/>
      <point x="1213" y="487" type="curve" smooth="yes"/>
      <point x="1130" y="487"/>
      <point x="1077" y="444"/>
      <point x="1046" y="395" type="curve"/>
      <point x="1042" y="395" type="line"/>
      <point x="1042" y="637" type="line"/>
      <point x="1449" y="637" type="line"/>
      <point x="1449" y="698" type="line"/>
      <point x="-20" y="698" type="line"/>
    </contour>
    <contour>
      <point x="832" y="179" type="curve" smooth="yes"/>
      <point x="750" y="179"/>
      <point x="702" y="233"/>
      <point x="702" y="297" type="curve" smooth="yes"/>
      <point x="702" y="319" type="line" smooth="yes"/>
      <point x="702" y="383"/>
      <point x="750" y="437"/>
      <point x="832" y="437" type="curve" smooth="yes" name="hr03"/>
      <point x="921" y="437"/>
      <point x="970" y="377"/>
      <point x="970" y="321" type="curve" smooth="yes"/>
      <point x="970" y="295" type="line" smooth="yes"/>
      <point x="970" y="239"/>
      <point x="921" y="179"/>
    </contour>
    <contour>
      <point x="1042.0" y="0.0" type="move" name="bottom_deva"/>
    </contour>
    <contour>
      <point x="1006.0" y="688.0" type="move" name="center_deva"/>
    </contour>
    <contour>
      <point x="1042.0" y="688.0" type="move" name="top_deva"/>
    </contour>
  </outline>
</glyph>
<glyph name="dvJ_NY_YA" format="1">
  <advance width="1192"/>
  <outline>
    <contour>
      <point x="187" y="-92" type="line" name="hr00"/>
      <point x="245" y="-73" type="line"/>
      <point x="206" y="36" type="line"/>
      <point x="198" y="54" type="line"/>
      <point x="199" y="55" type="line"/>
      <point x="213" y="53"/>
      <point x="224" y="53"/>
      <point x="237" y="53" type="curve" smooth="yes"/>
      <point x="351" y="53"/>
      <point x="430" y="118"/>
      <point x="430" y="229" type="curve" smooth="yes"/>
      <point x="430" y="297"/>
      <point x="394" y="346"/>
      <point x="357" y="368" type="curve"/>
      <point x="357" y="373" type="line"/>
      <point x="583" y="373" type="line"/>
      <point x="583" y="359" type="line" smooth="yes"/>
      <point x="583" y="217"/>
      <point x="672" y="134"/>
      <point x="810" y="134" type="curve" smooth="yes"/>
      <point x="902" y="134"/>
      <point x="961" y="166"/>
      <point x="996" y="219" type="curve"/>
      <point x="1000" y="219" type="line"/>
      <point x="1000" y="0" type="line"/>
      <point x="1074" y="0" type="line"/>
      <point x="1074" y="637" type="line"/>
      <point x="1212" y="637" type="line"/>
      <point x="1212" y="698" type="line"/>
      <point x="-20" y="698" type="line"/>
      <point x="-20" y="637" type="line"/>
      <point x="753" y="637" type="line"/>
      <point x="753" y="523" type="line" smooth="yes"/>
      <point x="753" y="463"/>
      <point x="732" y="436"/>
      <point x="680" y="436" type="curve" smooth="yes"/>
      <point x="163" y="436" type="line"/>
      <point x="163" y="373" type="line"/>
      <point x="222" y="373" type="line" smooth="yes"/>
      <point x="298" y="373"/>
      <point x="356" y="316"/>
      <point x="356" y="246" type="curve" smooth="yes"/>
      <point x="356" y="220" type="line" smooth="yes"/>
      <point x="356" y="157"/>
      <point x="319" y="109"/>
      <point x="228" y="109" type="curve" smooth="yes"/>
      <point x="211" y="109"/>
      <point x="196" y="111"/>
      <point x="181" y="115" type="curve"/>
      <point x="142" y="215" type="line"/>
      <point x="136" y="216"/>
      <point x="126" y="217"/>
      <point x="117" y="217" type="curve" smooth="yes"/>
      <point x="76" y="217"/>
      <point x="50" y="192"/>
      <point x="50" y="153" type="curve" smooth="yes"/>
      <point x="50" y="112"/>
      <point x="78" y="83"/>
      <point x="132" y="67" type="curve"/>
      <point x="142" y="37" type="line"/>
    </contour>
    <contour>
      <point x="815" y="203" type="curve" smooth="yes"/>
      <point x="717" y="203"/>
      <point x="657" y="241"/>
      <point x="657" y="338" type="curve" smooth="yes"/>
      <point x="657" y="376" type="line"/>
      <point x="689" y="376" type="line" smooth="yes"/>
      <point x="779" y="376"/>
      <point x="827" y="433"/>
      <point x="827" y="523" type="curve" smooth="yes"/>
      <point x="827" y="637" type="line"/>
      <point x="1000" y="637" type="line"/>
      <point x="1000" y="339" type="line" smooth="yes"/>
      <point x="1000" y="262"/>
      <point x="931" y="203"/>
    </contour>
    <contour>
      <point x="1074.0" y="0.0" type="move" name="bottom_deva"/>
    </contour>
    <contour>
      <point x="931.0" y="688.0" type="move" name="center_deva"/>
    </contour>
    <contour>
      <point x="1074.0" y="688.0" type="move" name="top_deva"/>
    </contour>
  </outline>
</glyph>
<glyph name="dvJ_TTA" format="1">
  <advance width="1122"/>
  <outline>
    <contour>
      <point x="-20" y="637" type="line"/>
      <point x="942" y="637" type="line"/>
      <point x="942" y="478" type="line"/>
      <point x="886" y="478" type="line" smooth="yes"/>
      <point x="805" y="478"/>
      <point x="741" y="456"/>
      <point x="697" y="415" type="curve"/>
      <point x="282" y="415" type="line"/>
      <point x="282" y="352" type="line" name="hr01"/>
      <point x="296" y="352" type="line" smooth="yes"/>
      <point x="368" y="352"/>
      <point x="424" y="290"/>
      <point x="424" y="217" type="curve" smooth="yes"/>
      <point x="424" y="190" type="line" smooth="yes"/>
      <point x="424" y="132"/>
      <point x="386" y="84"/>
      <point x="311" y="84" type="curve" smooth="yes"/>
      <point x="225" y="84"/>
      <point x="142" y="144"/>
      <point x="128" y="357" type="curve"/>
      <point x="62" y="340" type="line"/>
      <point x="75" y="119"/>
      <point x="182" y="19"/>
      <point x="313" y="19" type="curve" smooth="yes"/>
      <point x="416" y="19"/>
      <point x="496" y="87"/>
      <point x="496" y="202" type="curve" smooth="yes"/>
      <point x="496" y="273"/>
      <point x="464" y="323"/>
      <point x="427" y="347" type="curve"/>
      <point x="427" y="352" type="line"/>
      <point x="649" y="352" type="line"/>
      <point x="651" y="349" type="line"/>
      <point x="637" y="318"/>
      <point x="631" y="286"/>
      <point x="631" y="247" type="curve" smooth="yes"/>
      <point x="631" y="104"/>
      <point x="732" y="14"/>
      <point x="875" y="14" type="curve" smooth="yes" name="hr02"/>
      <point x="980" y="14"/>
      <point x="1045" y="53"/>
      <point x="1085" y="108" type="curve"/>
      <point x="1039" y="158" type="line"/>
      <point x="998" y="105"/>
      <point x="949" y="79"/>
      <point x="875" y="79" type="curve" smooth="yes"/>
      <point x="770" y="79"/>
      <point x="713" y="141"/>
      <point x="713" y="230" type="curve" smooth="yes"/>
      <point x="713" y="265" type="line" smooth="yes"/>
      <point x="713" y="356"/>
      <point x="766" y="415"/>
      <point x="887" y="415" type="curve" smooth="yes"/>
      <point x="1015" y="415" type="line"/>
      <point x="1015" y="637" type="line"/>
      <point x="1142" y="637" type="line"/>
      <point x="1142" y="698" type="line"/>
      <point x="-20" y="698" type="line"/>
    </contour>
    <contour>
      <point x="920.0" y="14.0" type="move" name="bottom_deva"/>
    </contour>
    <contour>
      <point x="923.0" y="688.0" type="move" name="center_deva"/>
    </contour>
    <contour>
      <point x="1015.0" y="688.0" type="move" name="top_deva"/>
    </contour>
  </outline>
</glyph>
<glyph name="dvJ_VA" format="1">
  <advance width="1206"/>
  <outline>
    <contour>
      <point x="-20" y="637" type="line" name="hr00"/>
      <point x="1014" y="637" type="line"/>
      <point x="1014" y="446" type="line"/>
      <point x="1010" y="446" type="line"/>
      <point x="972" y="481"/>
      <point x="916" y="507"/>
      <point x="843" y="507" type="curve" smooth="yes"/>
      <point x="772" y="507"/>
      <point x="713" y="481"/>
      <point x="676" y="435" type="curve"/>
      <point x="282" y="435" type="line"/>
      <point x="282" y="372" type="line"/>
      <point x="296" y="372" type="line" smooth="yes"/>
      <point x="368" y="372"/>
      <point x="424" y="310"/>
      <point x="424" y="237" type="curve" smooth="yes"/>
      <point x="424" y="210" type="line" smooth="yes"/>
      <point x="424" y="152"/>
      <point x="386" y="104"/>
      <point x="311" y="104" type="curve" smooth="yes"/>
      <point x="225" y="104"/>
      <point x="142" y="164"/>
      <point x="128" y="377" type="curve"/>
      <point x="62" y="360" type="line"/>
      <point x="75" y="139"/>
      <point x="182" y="39"/>
      <point x="313" y="39" type="curve" smooth="yes"/>
      <point x="416" y="39"/>
      <point x="496" y="107"/>
      <point x="496" y="222" type="curve" smooth="yes"/>
      <point x="496" y="293"/>
      <point x="464" y="343"/>
      <point x="427" y="367" type="curve"/>
      <point x="427" y="372" type="line"/>
      <point x="644" y="372" type="line"/>
      <point x="646" y="370" type="line"/>
      <point x="640" y="353"/>
      <point x="637" y="332"/>
      <point x="637" y="312" type="curve" smooth="yes"/>
      <point x="637" y="191"/>
      <point x="725" y="113"/>
      <point x="847" y="113" type="curve" smooth="yes"/>
      <point x="922" y="113"/>
      <point x="979" y="143"/>
      <point x="1010" y="178" type="curve"/>
      <point x="1014" y="178" type="line"/>
      <point x="1014" y="0" type="line"/>
      <point x="1088" y="0" type="line"/>
      <point x="1088" y="637" type="line"/>
      <point x="1226" y="637" type="line"/>
      <point x="1226" y="698" type="line"/>
      <point x="-20" y="698" type="line"/>
    </contour>
    <contour>
      <point x="851" y="179" type="curve" smooth="yes"/>
      <point x="763" y="179"/>
      <point x="716" y="234"/>
      <point x="716" y="298" type="curve" smooth="yes"/>
      <point x="716" y="324" type="line" smooth="yes"/>
      <point x="716" y="388"/>
      <point x="763" y="443"/>
      <point x="851" y="443" type="curve" smooth="yes"/>
      <point x="944" y="443"/>
      <point x="1015" y="392"/>
      <point x="1015" y="342" type="curve" smooth="yes"/>
      <point x="1015" y="280" type="line" smooth="yes"/>
      <point x="1015" y="230"/>
      <point x="944" y="179"/>
    </contour>
    <contour>
      <point x="1088.0" y="0.0" type="move" name="bottom_deva"/>
    </contour>
    <contour>
      <point x="884.0" y="688.0" type="move" name="center_deva"/>
    </contour>
    <contour>
      <point x="1088.0" y="688.0" type="move" name="top_deva"/>
    </contour>
  </outline>
</glyph>
<glyph name="dvKH_RA" format="1">
  <advance width="914"/>
  <outline>
    <contour>
      <point x="246" y="-106" type="line" name="hr00"/>
      <point x="614" y="134" type="line" smooth="yes"/>
      <point x="664" y="166"/>
      <point x="697" y="190"/>
      <point x="719" y="207" type="curve"/>
      <point x="722" y="207" type="line"/>
      <point x="722" y="0" type="line"/>
      <point x="796" y="0" type="line"/>
      <point x="796" y="637" type="line"/>
      <point x="934" y="637" type="line"/>
      <point x="934" y="698" type="line"/>
      <point x="-20" y="698" type="line"/>
      <point x="-20" y="637" type="line"/>
      <point x="243" y="637" type="line"/>
      <point x="243" y="491" type="line" smooth="yes"/>
      <point x="243" y="406"/>
      <point x="209" y="373"/>
      <point x="109" y="373" type="curve" smooth="yes"/>
      <point x="67" y="373" type="line"/>
      <point x="67" y="307" type="line"/>
      <point x="139" y="193" type="line" smooth="yes"/>
      <point x="203" y="92"/>
      <point x="260" y="55"/>
      <point x="357" y="42" type="curve"/>
      <point x="357" y="38" type="line"/>
      <point x="209" y="-50" type="line"/>
    </contour>
    <contour>
      <point x="429" y="91" type="line" smooth="yes"/>
      <point x="307" y="91"/>
      <point x="259" y="120"/>
      <point x="196" y="224" type="curve" smooth="yes"/>
      <point x="144" y="308" type="line"/>
      <point x="144" y="310" type="line"/>
      <point x="258" y="318"/>
      <point x="317" y="372"/>
      <point x="317" y="507" type="curve" smooth="yes"/>
      <point x="317" y="637" type="line"/>
      <point x="722" y="637" type="line"/>
      <point x="722" y="462" type="line"/>
      <point x="718" y="462" type="line"/>
      <point x="690" y="487"/>
      <point x="647" y="509"/>
      <point x="585" y="509" type="curve" smooth="yes"/>
      <point x="479" y="509"/>
      <point x="414" y="441"/>
      <point x="414" y="347" type="curve" smooth="yes"/>
      <point x="414" y="252"/>
      <point x="485" y="187"/>
      <point x="580" y="187" type="curve" smooth="yes"/>
      <point x="596" y="187" type="line"/>
      <point x="597" y="184" type="line"/>
      <point x="515" y="135" type="line"/>
      <point x="437" y="91" type="line"/>
    </contour>
    <contour>
      <point x="597" y="240" type="curve" smooth="yes"/>
      <point x="525" y="240"/>
      <point x="483" y="284"/>
      <point x="483" y="337" type="curve" smooth="yes"/>
      <point x="483" y="357" type="line" smooth="yes"/>
      <point x="483" y="410"/>
      <point x="525" y="454"/>
      <point x="597" y="454" type="curve" smooth="yes"/>
      <point x="680" y="454"/>
      <point x="723" y="406"/>
      <point x="723" y="359" type="curve" smooth="yes"/>
      <point x="723" y="335" type="line" smooth="yes"/>
      <point x="723" y="288"/>
      <point x="680" y="240"/>
    </contour>
    <contour>
      <point x="796.0" y="0.0" type="move" name="bottom_deva"/>
    </contour>
    <contour>
      <point x="533.0" y="688.0" type="move" name="center_deva"/>
    </contour>
    <contour>
      <point x="796.0" y="688.0" type="move" name="top_deva"/>
    </contour>
  </outline>
</glyph>
<glyph name="dvKHx_RA" format="1">
  <advance width="914"/>
  <outline>
    <component base="dvKH_RA"/>
    <component base="dvNukta" xOffset="-3" yOffset="4"/>
    <contour>
      <point x="796.0" y="0.0" type="move" name="bottom_deva"/>
    </contour>
    <contour>
      <point x="533.0" y="688.0" type="move" name="center_deva"/>
    </contour>
    <contour>
      <point x="796.0" y="688.0" type="move" name="top_deva"/>
    </contour>
  </outline>
</glyph>
<glyph name="dvKHx_SA" format="1">
  <advance width="1352"/>
  <outline>
    <contour>
      <point x="471" y="-1" type="curve" smooth="yes"/>
      <point x="551" y="-1" type="line"/>
      <point x="551" y="58" type="line"/>
      <point x="473" y="58" type="line" smooth="yes"/>
      <point x="355" y="58"/>
      <point x="276" y="99"/>
      <point x="196" y="224" type="curve" smooth="yes"/>
      <point x="143" y="307" type="line"/>
      <point x="143" y="310" type="line"/>
      <point x="257" y="318"/>
      <point x="316" y="372"/>
      <point x="316" y="507" type="curve" smooth="yes"/>
      <point x="316" y="637" type="line"/>
      <point x="863" y="637" type="line"/>
      <point x="863" y="500" type="line" smooth="yes"/>
      <point x="863" y="430"/>
      <point x="830" y="387"/>
      <point x="778" y="376" type="curve"/>
      <point x="764" y="456"/>
      <point x="695" y="509"/>
      <point x="597" y="509" type="curve" smooth="yes"/>
      <point x="478" y="509"/>
      <point x="414" y="441"/>
      <point x="414" y="347" type="curve" smooth="yes"/>
      <point x="414" y="251"/>
      <point x="488" y="183"/>
      <point x="599" y="183" type="curve" smooth="yes"/>
      <point x="667" y="183"/>
      <point x="722" y="209"/>
      <point x="753" y="254" type="curve"/>
      <point x="756" y="254" type="line"/>
      <point x="916" y="-6" type="line"/>
      <point x="974" y="35" type="line"/>
      <point x="844" y="244" type="line"/>
      <point x="807" y="299" type="line"/>
      <point x="807" y="301" type="line" name="hr01"/>
      <point x="1160" y="301" type="line"/>
      <point x="1160" y="0" type="line"/>
      <point x="1234" y="0" type="line"/>
      <point x="1234" y="637" type="line"/>
      <point x="1372" y="637" type="line"/>
      <point x="1372" y="698" type="line"/>
      <point x="-20" y="698" type="line"/>
      <point x="-20" y="637" type="line"/>
      <point x="242" y="637" type="line"/>
      <point x="242" y="491" type="line" smooth="yes"/>
      <point x="242" y="406"/>
      <point x="208" y="373"/>
      <point x="109" y="373" type="curve" smooth="yes" name="hr02"/>
      <point x="67" y="373" type="line"/>
      <point x="67" y="306" type="line"/>
      <point x="139" y="193" type="line" smooth="yes"/>
      <point x="222" y="61"/>
      <point x="312" y="-1"/>
    </contour>
    <contour>
      <point x="871" y="364" type="line" name="hr03"/>
      <point x="920" y="397"/>
      <point x="937" y="439"/>
      <point x="937" y="509" type="curve" smooth="yes"/>
      <point x="937" y="637" type="line"/>
      <point x="1160" y="637" type="line"/>
      <point x="1160" y="364" type="line"/>
      <point x="947" y="364" type="line"/>
      <point x="871" y="361" type="line"/>
    </contour>
    <contour>
      <point x="598" y="239" type="curve" smooth="yes"/>
      <point x="524" y="239"/>
      <point x="483" y="283"/>
      <point x="483" y="335" type="curve" smooth="yes"/>
      <point x="483" y="356" type="line" smooth="yes"/>
      <point x="483" y="408"/>
      <point x="524" y="452"/>
      <point x="598" y="452" type="curve" smooth="yes"/>
      <point x="674" y="452"/>
      <point x="718" y="407"/>
      <point x="718" y="355" type="curve" smooth="yes"/>
      <point x="718" y="336" type="line" smooth="yes"/>
      <point x="718" y="284"/>
      <point x="674" y="239"/>
    </contour>
    <contour>
      <point x="129" y="-58" type="curve" smooth="yes"/>
      <point x="166" y="-58"/>
      <point x="181" y="-40"/>
      <point x="181" y="-11" type="curve" smooth="yes"/>
      <point x="181" y="-1" type="line" smooth="yes" name="hr04"/>
      <point x="181" y="28"/>
      <point x="166" y="46"/>
      <point x="129" y="46" type="curve" smooth="yes" name="hr05"/>
      <point x="92" y="46"/>
      <point x="77" y="28"/>
      <point x="77" y="-1" type="curve" smooth="yes" name="hr06"/>
      <point x="77" y="-11" type="line" smooth="yes"/>
      <point x="77" y="-40"/>
      <point x="92" y="-58"/>
    </contour>
    <contour>
      <point x="1234.0" y="0.0" type="move" name="bottom_deva"/>
    </contour>
    <contour>
      <point x="1061.0" y="688.0" type="move" name="center_deva"/>
    </contour>
    <contour>
      <point x="1234.0" y="688.0" type="move" name="top_deva"/>
    </contour>
  </outline>
</glyph>
